SplineFontDB: 3.0
FontName: CISFCamouflageKitOuLn
FullName: CISF Camouflage Kit Outline
FamilyName: CISF Camouflage Kit
Weight: Outline
Copyright: Copyright (c) 2015, Robert Jablonski/Cannot Into Space Fonts, All Rights Reserved.
Version: 1.27
ItalicAngle: 0
UnderlinePosition: -100
UnderlineWidth: 50
Ascent: 800
Descent: 200
InvalidEm: 0
sfntRevision: 0x0001451f
LayerCount: 2
Layer: 0 0 "Back" 1
Layer: 1 0 "Fore" 0
XUID: [1021 604 120746000 14311]
StyleMap: 0x0000
FSType: 0
OS2Version: 4
OS2_WeightWidthSlopeOnly: 0
OS2_UseTypoMetrics: 1
CreationTime: 1429470650
ModificationTime: 1437328253
PfmFamily: 17
TTFWeight: 400
TTFWidth: 5
LineGap: 90
VLineGap: 0
Panose: 2 0 5 3 0 0 0 0 0 0
OS2TypoAscent: 800
OS2TypoAOffset: 0
OS2TypoDescent: -200
OS2TypoDOffset: 0
OS2TypoLinegap: 90
OS2WinAscent: 905
OS2WinAOffset: 0
OS2WinDescent: 187
OS2WinDOffset: 0
HheadAscent: 905
HheadAOffset: 0
HheadDescent: -187
HheadDOffset: 0
OS2SubXSize: 650
OS2SubYSize: 699
OS2SubXOff: 0
OS2SubYOff: 140
OS2SupXSize: 650
OS2SupYSize: 699
OS2SupXOff: 0
OS2SupYOff: 479
OS2StrikeYSize: 49
OS2StrikeYPos: 258
OS2CapHeight: 732
OS2XHeight: 723
OS2Vendor: 'CiSf'
OS2CodePages: 00000001.00000000
OS2UnicodeRanges: 00000001.00000000.00000000.00000000
DEI: 91125
LangName: 1033 "" "" "" "CISF Camouflage Kit Outline v1.27" "" "" "" "" "Cannot Into Space Fonts" "Robert Jablonski, Jasper" "" "" "" "SIL Open Font License (OFL)" "http://scripts.sil.org/OFL"
Encoding: UnicodeBmp
UnicodeInterp: none
NameList: AGL For New Fonts
DisplaySize: -48
AntiAlias: 1
FitToEm: 0
WinInfo: 64 16 4
BeginPrivate: 7
BlueValues 16 [-9 225 653 798]
BlueScale 10 0.00423077
BlueShift 2 15
StdHW 5 [231]
StdVW 5 [171]
StemSnapH 38 [69 75 81 111 126 135 156 174 231 276]
StemSnapV 40 [51 156 171 213 237 264 300 345 363 510]
EndPrivate
BeginChars: 65537 96

StartChar: .notdef
Encoding: 65536 -1 0
Width: 500
Flags: MW
HStem: 0 20<70 430 70 450> 30 20<100 400 100 420> 483 20<100 400 100 100> 513 20<70 430 70 70>
VStem: 50 20<20 20 20 513> 80 20<50 50 50 483> 400 20<50 483 483 483> 430 20<20 513 513 513>
LayerCount: 2
Fore
SplineSet
100 50 m 1
 400 50 l 1
 400 483 l 1
 100 483 l 1
 100 50 l 1
50 0 m 1
 50 533 l 1
 450 533 l 1
 450 0 l 1
 50 0 l 1
80 30 m 1
 80 503 l 1
 420 503 l 1
 420 30 l 1
 80 30 l 1
70 20 m 1
 430 20 l 1
 430 513 l 1
 70 513 l 1
 70 20 l 1
EndSplineSet
EndChar

StartChar: space
Encoding: 32 32 1
Width: 171
Flags: W
LayerCount: 2
Fore
SplineSet
685.78125 0 m 1024,0,0
EndSplineSet
EndChar

StartChar: exclam
Encoding: 33 33 2
Width: 1063
Flags: MW
HStem: 45 21G 265 20<772.073 838.848 772.073 844.527> 616 20<446.484 647.399>
VStem: 996 20<136.862 197.07>
LayerCount: 2
Fore
SplineSet
704 24 m 1
 582.42578125 87.51953125 383.618164062 152.805664062 260 201 c 0
 232.78125 211.612304688 184.967773438 150 182 150 c 0
 162.282226562 150 62.6611328125 282.46875 47 300 c 1
 227 312 l 1
 243.005859375 497.495117188 318.278320312 636 563 636 c 0
 752.998046875 636 729.146484375 285 815 285 c 0
 862.6953125 285 884.352539062 390 917 390 c 0
 964.389648438 390 1016 220.139648438 1016 174 c 0
 1016 99.7236328125 820.943359375 69.12890625 770 42 c 1
 704 24 l 1
706.256835938 45.345703125 m 1
 762.688476562 60.7373046875 l 1
 830.526367188 94.5458984375 995.998046875 124.666015625 995.998046875 174.000976562 c 0
 995.998046875 214.965820312 944.434570312 360.083007812 917.678710938 369.833984375 c 1
 910.099609375 364.677734375 874.055664062 265 814.999023438 265 c 0
 693.631835938 265 731.799804688 616 562.999023438 616 c 0
 329.969726562 616 262.4609375 490.32421875 246.92578125 310.280273438 c 2
 245.451171875 293.185546875 l 1
 86.791015625 282.608398438 l 1
 112.818359375 249.912109375 156.939453125 195.21875 179.049804688 175.271484375 c 1
 191.12109375 187.8828125 228.52734375 234.737304688 267.265625 219.633789062 c 0
 387.877929688 172.611328125 581.5859375 109.048828125 706.256835938 45.345703125 c 1
EndSplineSet
EndChar

StartChar: quotedbl
Encoding: 34 34 3
Width: 917
Flags: MW
HStem: 48 20 111 20 160 20<330.667 391.341> 184 20<123.703 138.264> 205 20<464.362 518.243> 418 20<114.156 132.156 132.156 139.354> 447 20<485.73 517.555 485.73 521.96>
VStem: 141.156 20<224.642 225> 250.158 19.9986 595.156 20<95.2725 157.834>
LayerCount: 2
Fore
SplineSet
150.15625 423 m 0
 189.15625 572 279.344726562 643.920898438 429.15625 669 c 0
 511.637695312 682.807617188 585.052734375 643.961914062 663.15625 624 c 0
 697.59375 615.198242188 870.15625 567.189453125 870.15625 519 c 0
 870.15625 481.291015625 542.764648438 447 501.15625 447 c 0
 452.28125 447 439.416992188 522 408.15625 522 c 1
 387.0859375 526.670898438 369.918945312 513.315429688 354.15625 507 c 0
 329.790039062 493.966796875 305.431640625 482.043945312 297.15625 456 c 1
 280.93359375 434.575195312 269.809570312 406.993164062 270.15625 378 c 0
 270.875 317.932617188 289.178710938 180 372.15625 180 c 0
 410.525390625 180 442.568359375 225 486.15625 225 c 0
 550.330078125 225 615.15625 192.668945312 615.15625 123 c 0
 615.15625 67.544921875 568.712890625 48 522.15625 48 c 0
 392.791015625 48 273.235351562 111 159.15625 111 c 0
 143.53515625 111 133.0546875 102 120.15625 102 c 0
 79.341796875 111.204101562 38.9951171875 153.522460938 48.15625 198 c 0
 54.322265625 227.935546875 49.783203125 222 90.15625 222 c 0
 110.5703125 222 115.25 204 132.15625 204 c 0
 144.37109375 204 141.15625 212.456054688 141.15625 225 c 1
 124.767578125 262.704101562 103.329101562 298.268554688 111.15625 345 c 0
 116.453125 376.62890625 99.15625 402.981445312 99.15625 435 c 0
 99.15625 440.438476562 108.00390625 438 114.15625 438 c 2
 132.15625 438 l 2
 146.552734375 438 147.821289062 414.081054688 150.15625 423 c 0
169.50390625 417.934570312 m 1
 169.50390625 417.934570312 167.305664062 392.755859375 141.897460938 402.317382812 c 0
 123.814453125 409.122070312 127.89453125 418.000976562 127.89453125 418.000976562 c 1
 120.94921875 418.000976562 l 1
 124.591796875 399.21484375 136.14453125 373.125976562 130.881835938 341.698242188 c 0
 124.245117188 302.076171875 143.573242188 269.612304688 161.15625 229.16015625 c 1
 161.15625 225.000976562 l 2
 161.15625 224.283203125 166.526367188 184.000976562 132.15625 184.000976562 c 0
 97.52734375 184.000976562 96.109375 202.000976562 90.15625 202.000976562 c 0
 81.1328125 202.000976562 76.2333984375 202.217773438 69.427734375 202.412109375 c 0
 69.0107421875 200.298828125 68.4189453125 197.245117188 67.7431640625 193.966796875 c 0
 61.8056640625 165.140625 88.5546875 131.497070312 121.916992188 122.165039062 c 0
 125.411132812 122.814453125 138.943359375 131.000976562 159.154296875 131.000976562 c 0
 280.436523438 131.000976562 399.155273438 68.0009765625 522.154296875 68.0009765625 c 0
 564.932617188 68.0009765625 595.154296875 83.498046875 595.154296875 123.000976562 c 0
 595.154296875 176.467773438 545.810546875 205.000976562 486.154296875 205.000976562 c 0
 455.997070312 205.000976562 425.674804688 160.000976562 372.154296875 160.000976562 c 0
 264.311523438 160.000976562 250.810546875 323.05859375 250.15625 377.76171875 c 0
 249.760742188 410.842773438 260.94140625 439.850585938 279.255859375 465.442382812 c 1
 291.865234375 498.84375 322.602539062 512.8046875 345.694335938 525.15625 c 0
 357.043945312 529.703125 377.489257812 547.4609375 410.604492188 541.926757812 c 0
 468.05078125 537.740234375 470.3046875 467 501.155273438 467 c 0
 533.954101562 467 794.543945312 495.692382812 847.901367188 523.399414062 c 1
 824.935546875 554.014648438 689.34375 596.6640625 658.203125 604.623046875 c 0
 576.258789062 625.56640625 507.001953125 661.752929688 432.458007812 649.274414062 c 0
 288.452148438 625.166992188 206.583984375 559.599609375 169.50390625 417.934570312 c 1
EndSplineSet
EndChar

StartChar: numbersign
Encoding: 35 35 4
Width: 725
Flags: MW
HStem: 216 20 375 20 418 20<400.243 437.974>
VStem: 53.7852 20 452.785 20 479.785 20.0015 636.804 19.9814
LayerCount: 2
Fore
SplineSet
488.78515625 639 m 1
 596.78515625 633 660.404296875 479.802734375 656.78515625 396 c 0
 655.045898438 355.73828125 655.155273438 316.422851562 668.78515625 279 c 0
 686.634765625 229.991210938 601.345703125 222 569.78515625 222 c 0
 464.142578125 222 394.401367188 375 326.78515625 375 c 0
 219.657226562 375 218.203125 216 131.78515625 216 c 0
 60.9033203125 216 53.78515625 293.282226562 53.78515625 345 c 0
 58.068359375 451.044921875 192.849609375 493.1796875 284.78515625 474 c 0
 329.505859375 464.669921875 377.700195312 438 422.78515625 438 c 0
 453.162109375 438 479.78515625 463.85546875 479.78515625 498 c 0
 480.5546875 512.198242188 477.15625 527.32421875 467.78515625 537 c 0
 456.26171875 548.897460938 452.78515625 588.765625 452.78515625 606 c 0
 452.78515625 622.708984375 457.458007812 618.942382812 461.78515625 630 c 1
 488.78515625 639 l 1
491.311523438 618.760742188 m 1
 475.686523438 613.553710938 l 2
 475.575195312 613.389648438 474.052734375 611.240234375 472.927734375 609.806640625 c 0
 472.896484375 609.408203125 472.783203125 607.852539062 472.783203125 606.000976562 c 0
 472.783203125 591.177734375 478.336914062 556.244140625 482.145507812 550.950195312 c 0
 496.655273438 535.11328125 500.55859375 516.625 499.78515625 497.462890625 c 0
 499.134765625 453.72265625 465.198242188 418.000976562 422.783203125 418.000976562 c 0
 370.439453125 418.000976562 320.836914062 446.048828125 280.698242188 454.422851562 c 0
 195.641601562 472.166992188 77.9931640625 433.021484375 73.783203125 344.595703125 c 0
 73.8603515625 289.634765625 82.4404296875 236.000976562 131.784179688 236.000976562 c 0
 192.147460938 236.000976562 198.170898438 395.000976562 326.78515625 395.000976562 c 0
 417.833007812 395.000976562 480.385742188 242.000976562 569.78515625 242.000976562 c 0
 606.556640625 242.000976562 651.502929688 255.432617188 651.211914062 266.603515625 c 0
 651.1796875 267.822265625 650.916992188 269.619140625 649.993164062 272.15625 c 0
 634.807617188 313.849609375 635.044921875 356.138671875 636.803710938 396.864257812 c 0
 640.163085938 474.651367188 578.829101562 610.515625 491.311523438 618.760742188 c 1
EndSplineSet
EndChar

StartChar: dollar
Encoding: 36 36 5
Width: 892
Flags: MW
HStem: 45 20<497 578.679> 99 20.0065 163 20<485.078 501.977> 223 20<200.814 277.429> 286 20 441 20 507 20
VStem: 47 19.9702 485 20 521 20 725 19.6002 825.002 19.9983
LayerCount: 2
Fore
SplineSet
170 444 m 1
 215.168945312 581.653320312 340.537109375 640.59765625 485 654 c 0
 704.125 674.330078125 842.46484375 441.350585938 845 249 c 0
 847.704101562 43.7724609375 660.357421875 45 497 45 c 0
 440.395507812 44.2958984375 399.286132812 91.294921875 368 129 c 1
 336.786132812 192.392578125 250.453125 174.223632812 194 168 c 0
 133.897460938 161.374023438 97.25390625 99 68 99 c 0
 45.296875 99 47 106.2734375 47 126 c 0
 58.9609375 205.653320312 162.62890625 243 239 243 c 0
 315.857421875 243 394.264648438 232.42578125 458 195 c 0
 471.4453125 187.104492188 476.155273438 183 494 183 c 0
 509.953125 183 521 191.663085938 521 210 c 0
 521 232.340820312 485 223.698242188 485 255 c 0
 481.640625 272.7265625 501.341796875 283.6171875 515 291 c 0
 530.999023438 299.6484375 532.890625 306 554 306 c 0
 609.3203125 305.811523438 641.2578125 252.904296875 674 219 c 0
 684.115234375 208.525390625 689.647460938 189 707 189 c 0
 733.282226562 189.380859375 720.805664062 231.33984375 725 252 c 0
 730.641601562 296.990234375 707.48046875 343.44921875 689 375 c 0
 631.291992188 473.517578125 654.067382812 507 500 507 c 0
 440.047851562 507 439.66796875 468.228515625 398 441 c 1
 317 441 l 1
 170 444 l 1
504.622070312 258.920898438 m 0
 504.732421875 258.232421875 504.877929688 257.556640625 505.000976562 256.87890625 c 2
 505.000976562 255.000976562 l 2
 505.000976562 244.151367188 541.000976562 260.704101562 541.000976562 210.000976562 c 0
 541.000976562 180.817382812 518.791992188 163.000976562 494.000976562 163.000976562 c 0
 472.287109375 163.000976562 459.716796875 170.80078125 447.874023438 177.754882812 c 0
 388.916015625 212.375 314.20703125 223.000976562 239.000976562 223.000976562 c 0
 165.724609375 223.000976562 77.384765625 186.06640625 66.998046875 124.407226562 c 0
 66.9912109375 123.065429688 66.9794921875 121.78515625 66.970703125 119.006835938 c 2
 68.0009765625 119 l 2
 76.4111328125 119 119.764648438 179.9375 191.80859375 187.879882812 c 0
 241.443359375 193.3515625 342.73046875 218.546875 384.840820312 140.028320312 c 1
 415.904296875 102.701171875 452.474609375 64.447265625 496.876953125 65 c 0
 665.98046875 65 827.42578125 64.8642578125 825.002929688 248.737304688 c 0
 822.575195312 432.92578125 691.733398438 653.095703125 486.848632812 634.086914062 c 0
 355.857421875 621.934570312 247.311523438 572.754882812 198.822265625 463.41796875 c 1
 317.206054688 461.001953125 l 1
 391.737304688 461.001953125 l 1
 417.051757812 480.057617188 432.728515625 527.001953125 500.000976562 527.001953125 c 0
 661.280273438 527.001953125 651.672851562 478.298828125 706.258789062 385.110351562 c 0
 725.33203125 352.546875 751.474609375 302.375 744.751953125 248.762695312 c 1
 744.6015625 248.021484375 l 1
 744.6015625 248.021484375 760.053710938 169.767578125 707.146484375 169.000976562 c 0
 674.158203125 169.000976562 661.119140625 203.549804688 659.614257812 205.107421875 c 0
 622.705078125 243.326171875 596.153320312 285.857421875 553.932617188 286.000976562 c 0
 538.3671875 286.000976562 545.970703125 285.006835938 524.510742188 273.40625 c 0
 513.0078125 267.188476562 505.10546875 260.276367188 504.622070312 258.920898438 c 0
EndSplineSet
EndChar

StartChar: percent
Encoding: 37 37 6
Width: 859
Flags: MW
HStem: -153 20<404.364 470.974 404.364 476.265> 111 21G<680.53 700.235> 153 20<561.756 610.405> 415.003 20
VStem: 52.2354 20 208.235 20 298.235 20 479.235 20<47.5083 101.99> 542.235 20<-71.877 -10.6831>
LayerCount: 2
Fore
SplineSet
205.235351562 591 m 1
 232.235351562 549 l 1
 274.235351562 495 l 1
 275.25390625 479.173828125 339.86328125 463.6484375 355.235351562 459 c 0
 435.484375 434.732421875 522.959960938 433.327148438 610.235351562 435 c 0
 690.325195312 436.2890625 834.080078125 449.084960938 802.235351562 330 c 1
 804.95703125 289.130859375 788.469726562 260.657226562 778.235351562 225 c 0
 765.736328125 181.453125 739.705078125 134.33984375 700.235351562 111 c 1
 660.82421875 111 631.575195312 153 589.235351562 153 c 0
 534.276367188 153 499.235351562 128.98046875 499.235351562 75 c 0
 499.235351562 20.0166015625 562.235351562 20.6337890625 562.235351562 -42 c 0
 562.235351562 -101.75390625 504.294921875 -153 448.235351562 -153 c 0
 354.138671875 -153 208.235351562 -68.58984375 208.235351562 39 c 0
 208.235351562 96.314453125 298.235351562 92.7275390625 298.235351562 141 c 0
 298.235351562 244.479492188 52.2353515625 264.868164062 52.2353515625 420 c 0
 52.2353515625 478.321289062 151.235351562 547.25390625 151.235351562 561 c 1
 205.235351562 591 l 1
782.059570312 331.971679688 m 1
 795.541015625 382.38671875 779.631835938 398.6640625 741.606445312 408.708007812 c 0
 704.573242188 418.490234375 650.8203125 415.65234375 610.556640625 415.00390625 c 0
 523.01171875 413.326171875 433.306640625 414.498046875 349.4453125 439.857421875 c 0
 339.896484375 442.745117188 269.603515625 451.41015625 256.016601562 485.849609375 c 1
 215.897460938 537.431640625 l 1
 198.553710938 564.41015625 l 1
 166.854492188 546.798828125 l 1
 148.891601562 517.765625 72.236328125 459.90625 72.236328125 420 c 0
 72.236328125 285.18359375 318.236328125 272.862304688 318.236328125 141 c 0
 318.236328125 66.3046875 228.236328125 73.439453125 228.236328125 39 c 0
 228.236328125 -51.037109375 360.4921875 -133 448.236328125 -133 c 0
 493.711914062 -133 542.236328125 -89.2412109375 542.236328125 -42 c 0
 542.236328125 2.623046875 479.236328125 -0.6953125 479.236328125 75 c 0
 479.236328125 141.764648438 527.8515625 173 589.236328125 173 c 0
 640.1171875 173 671.379882812 134.939453125 695.041015625 131.369140625 c 1
 724.766601562 151.602539062 747.905273438 191.821289062 759.01171875 230.517578125 c 0
 770.749023438 271.411132812 784.543945312 294.672851562 782.059570312 331.971679688 c 1
EndSplineSet
EndChar

StartChar: ampersand
Encoding: 38 38 7
Width: 930
Flags: MW
HStem: 132 21G<770.805 807.294> 246 20 376 20<627.022 686.425 627.022 691.508> 388 20<719.089 747.294 720.294 747.292> 505 20<98.3789 152.548> 697 20<221.642 342.294 243.294 342.292>
VStem: 60.2939 20 177.294 20 759.294 20 847.443 19.8506
LayerCount: 2
Fore
SplineSet
285.293945312 447 m 1xdfc0
 294.293945312 456 l 1
 327.16015625 477.127929688 324.359375 519 393.293945312 519 c 0
 512.868164062 519 575.75 396 678.293945312 396 c 0xefc0
 694.555664062 396 706.17578125 408 720.293945312 408 c 2
 747.293945312 408 l 2
 758.161132812 408 759.293945312 424.520507812 759.293945312 435 c 0
 759.293945312 659.974609375 177.293945312 548.264648438 177.293945312 681 c 0
 177.293945312 717.203125 205.28515625 717 243.293945312 717 c 2
 342.293945312 717 l 2
 474.241210938 717 668.517578125 808.145507812 798.293945312 753 c 0
 866.138671875 724.170898438 874.73828125 628.475585938 867.293945312 558 c 0
 848.208984375 423.137695312 912.75390625 225.940429688 807.293945312 132 c 1
 734.31640625 132 729.61328125 246 639.293945312 246 c 2
 531.293945312 246 l 2
 443.791992188 246 60.2939453125 278.510742188 60.2939453125 399 c 0
 60.2939453125 431.5078125 73.4638671875 525 123.293945312 525 c 0
 181.801757812 525 226.434570312 465.751953125 285.293945312 447 c 1xdfc0
290.825195312 424.247070312 m 1
 279.21875 427.9453125 l 2
 210.205078125 449.932617188 169.6171875 505.001953125 123.290039062 505.001953125 c 0
 99.205078125 505.001953125 80.2900390625 436.7734375 80.2900390625 399.001953125 c 0
 80.2900390625 308.887695312 433.32421875 266.001953125 531.290039062 266.001953125 c 2
 639.290039062 266.001953125 l 2
 739.755859375 266.001953125 761.712890625 159.239257812 799.956054688 152.58203125 c 1
 884.651367188 238.390625 827.430664062 416.052734375 847.440429688 560.466796875 c 0
 854.668945312 630.360351562 842.973632812 712.282226562 790.469726562 734.592773438 c 0
 671.987304688 784.939453125 483.455078125 697 342.291992188 697 c 2
 243.291992188 697 l 2
 199.9921875 697 197.291992188 697.018554688 197.291992188 681 c 0
 197.291992188 582.961914062 779.291992188 686.762695312 779.291992188 435 c 0
 779.291992188 431.946289062 783.485351562 388 747.291992188 388 c 2
 720.291992188 388 l 2xdfc0
 717.88671875 388 704.723632812 376 678.291992188 376 c 0
 558.977539062 376 498.438476562 499 393.29296875 499 c 0
 334.380859375 499 352.764648438 471.723632812 307.022460938 440.444335938 c 1
 290.825195312 424.247070312 l 1
EndSplineSet
EndChar

StartChar: quotesingle
Encoding: 39 39 8
Width: 950
Flags: MW
HStem: 96 20 363 20 582 20<461.149 532.867> 625 20<476.475 496.507 476.475 505.139> 661 20<445.567 445.567>
VStem: 47.5 20 119.5 20 312.5 20<181.323 241.987> 453.498 20.0023 882.5 20<432.625 511.445>
LayerCount: 2
Fore
SplineSet
470.5 681 m 1
 464.5 654 l 1
 473.676757812 649.141601562 470.44921875 645 482.5 645 c 0
 510.514648438 645 522.3125 675 563.5 675 c 0
 643.586914062 675 902.5 576.026367188 902.5 471 c 0
 902.5 367.764648438 730.694335938 363 665.5 363 c 0
 618.8125 363 592.234375 582 473.5 582 c 0
 438.896484375 582 326.5 575.327148438 326.5 528 c 0
 326.5 487.158203125 470.5 402.475585938 470.5 363 c 0
 470.5 282.059570312 332.5 276.974609375 332.5 207 c 0
 332.5 155.645507812 473.5 164.220703125 473.5 123 c 0
 473.5 103.171875 467.41015625 96 449.5 96 c 0
 366.59375 96 119.5 131.481445312 119.5 258 c 0
 119.5 326.026367188 317.5 304.916015625 317.5 399 c 0
 317.5 501.41796875 47.5 510.100585938 47.5 636 c 0
 47.5 706.434570312 286.25 681 323.5 681 c 2
 470.5 681 l 1
445.567382812 661 m 1
 323.500976562 661.000976562 l 2
 266.71875 661.000976562 67.5009765625 673.611328125 67.5009765625 636.000976562 c 0
 67.5009765625 534.780273438 337.500976562 530.051757812 337.500976562 399.000976562 c 0
 337.500976562 279.653320312 139.500976562 294.490234375 139.500976562 258.000976562 c 0
 139.500976562 157.520507812 361.200195312 116.000976562 449.500976562 116.000976562 c 0
 450.990234375 116.000976562 452.1484375 116.071289062 453.0546875 116.176757812 c 0
 453.288085938 117.732421875 453.3984375 118.102539062 453.499023438 121.998046875 c 0
 448.971679688 126.640625 312.500976562 143.212890625 312.500976562 207.000976562 c 0
 312.500976562 302.34375 449.661132812 304.989257812 450.502929688 362.780273438 c 1
 446.166015625 381.701171875 306.500976562 469.334960938 306.500976562 528 c 0
 306.500976562 604.12890625 448.797851562 602 473.500976562 602 c 0
 597.885742188 602 648.075195312 395.833007812 666.60546875 383 c 1
 739.677734375 383.068359375 882.5 394.25 882.5 471 c 0
 882.5 551.889648438 642.198242188 655 563.5 655 c 0
 533.680664062 655 527.778320312 625 482.499023438 625 c 0
 460.27734375 625 455.141601562 636.32421875 455.141601562 636.32421875 c 1
 441.668945312 643.45703125 l 1
 445.567382812 661 l 1
EndSplineSet
EndChar

StartChar: parenleft
Encoding: 40 40 9
Width: 999
Flags: MW
HStem: 204 20<834.224 834.225 834.225 866.34> 273 20 301 20<744.852 823.231> 375 20 439.019 19.9814 487 20<469.094 569.829> 535 20<99.29 120.224 94.0337 122.675>
VStem: 175.224 20<302.615 328.788 295.581 331.778> 267.224 20 925.218 20.0052
LayerCount: 2
Fore
SplineSet
123.223632812 432 m 1
 192.223632812 459 l 1
 300.594726562 459 409.264648438 507 522.223632812 507 c 0
 638.075195312 507 688.479492188 321 801.223632812 321 c 0
 852.435546875 321 945.223632812 354.94140625 945.223632812 315 c 0
 945.223632812 232.16796875 906.713867188 204 834.223632812 204 c 1
 732.989257812 181.564453125 693.879882812 310.825195312 597.223632812 300 c 0
 577.538085938 297.794921875 551.983398438 306 531.223632812 306 c 0
 472.21875 307.51953125 415.065429688 286.32421875 357.223632812 291 c 0
 322.484375 293.80859375 267.223632812 295.373046875 267.223632812 342 c 0
 267.223632812 352.26171875 270.223632812 363.463867188 270.223632812 372 c 0
 270.223632812 377.9453125 255.240234375 375 252.223632812 375 c 0
 211.79296875 375 195.223632812 345.575195312 195.223632812 312 c 0
 195.223632812 279.162109375 177.782226562 273 144.223632812 273 c 0
 64.2734375 277.423828125 50.9365234375 386.314453125 54.2236328125 453 c 0
 56.2607421875 494.322265625 67.84375 555 120.223632812 555 c 1
 137.520507812 559.303710938 142.802734375 538.4140625 153.223632812 528 c 0
 162.184570312 519.045898438 171.223632812 490.80859375 171.223632812 480 c 1
 123.223632812 432 l 1
74.5234375 411.583984375 m 1
 150.0078125 487.067382812 l 1
 147.646484375 496.614257812 140.688476562 511.998046875 139.374023438 513.518554688 c 0
 129.740234375 523.71484375 125.647460938 531.58984375 122.674804688 535 c 2
 120.223632812 535 l 2
 78.3564453125 535 71.04296875 466.088867188 74.5234375 411.583984375 c 1
76.38671875 392.1953125 m 1
 83.658203125 336.69140625 104.333984375 295.670898438 144.802734375 293.000976562 c 0
 175.165039062 293.126953125 175.223632812 293.228515625 175.223632812 312.000976562 c 0
 175.223632812 351.5546875 197.0234375 394.293945312 251.744140625 395.00390625 c 1
 251.744140625 395.00390625 290.224609375 408.795898438 290.224609375 372.001953125 c 0
 290.224609375 359.21875 287.224609375 348.698242188 287.224609375 342.000976562 c 0
 287.224609375 317.971679688 316.538085938 314.35546875 358.836914062 310.935546875 c 0
 410.66015625 306.74609375 467.879882812 327.638671875 531.482421875 326.000976562 c 0
 556.459960938 326.000976562 581.978515625 318.41796875 594.998046875 319.875976562 c 0
 715.887695312 333.415039062 745.495117188 204.821289062 832.03515625 224 c 1
 834.224609375 224 l 2
 898.455078125 224 924.602539062 241.6171875 925.21875 313.34765625 c 1
 907.854492188 317.798828125 845.23828125 301 801.224609375 301 c 0
 667.3359375 301 617.432617188 487 522.224609375 487 c 0
 415.962890625 487 309.403320312 440.203125 196.045898438 439.018554688 c 1
 76.38671875 392.1953125 l 1
EndSplineSet
EndChar

StartChar: parenright
Encoding: 41 41 10
Width: 931
Flags: MW
HStem: 123 20 304.623 19.3772 411 20 438 20 661 20<463.737 556.925> 676 20<636.2 656.294> 754 20<82.5195 179.687>
VStem: 53.2939 19.9097 71.2939 20.0057 182.294 20<327.321 329.999 329.999 330> 522.314 19.9797
LayerCount: 2
Fore
SplineSet
290.293945312 165 m 0xf760
 272.743164062 160.293945312 251.021484375 157.465820312 230.293945312 159 c 0
 145.26171875 165.291992188 71.2939453125 213.616210938 71.2939453125 306 c 0xf6e0
 70.095703125 340.310546875 130.557617188 316.12109375 152.293945312 324 c 0
 170.200195312 330.490234375 182.293945312 307.568359375 182.293945312 330 c 0
 177.31640625 383.147460938 145.764648438 435.456054688 101.293945312 462 c 0
 38.291015625 499.60546875 59.4091796875 595.869140625 53.2939453125 660 c 0
 49.576171875 698.983398438 57.7451171875 774 107.293945312 774 c 0
 252.079101562 774 391.1796875 681 536.293945312 681 c 0xfb60
 577.556640625 681 616.10546875 696 656.293945312 696 c 1
 689.432617188 702.97265625 708.336914062 667.891601562 734.293945312 651 c 1
 785.4609375 598.606445312 883.442382812 563.311523438 878.293945312 474 c 0
 873.913085938 398.004882812 853.41796875 411 761.293945312 411 c 0
 700.249023438 411 646.935546875 438 587.293945312 438 c 0
 563.592773438 438 542.293945312 429.295898438 542.293945312 405 c 0
 540.956054688 389.665039062 556.20703125 383.615234375 566.293945312 375 c 1
 607.171875 363.471679688 610.405273438 302.129882812 596.293945312 267 c 1
 571.46484375 235.030273438 524.684570312 220.783203125 533.293945312 177 c 0
 539.87109375 143.548828125 513.696289062 123 485.293945312 123 c 0
 470.948242188 123 461.784179688 120.971679688 452.293945312 129 c 0
 416.081054688 159.633789062 381.543945312 189.466796875 290.293945312 165 c 0xf760
285.114257812 184.317382812 m 0
 383.321289062 210.649414062 428.118164062 175.643554688 465.208984375 144.266601562 c 0
 467.245117188 142.543945312 467.046875 142.997070312 485.291992188 142.997070312 c 0
 505.380859375 142.997070312 517.139648438 155.481445312 513.66796875 173.138671875 c 0
 502.211914062 231.397460938 561.704101562 256.991210938 578.72265625 277.07421875 c 1
 590.157226562 309.821289062 581.044921875 350.057617188 560.86328125 355.749023438 c 2
 556.639648438 356.940429688 l 2
 550.876953125 361.862304688 520.936523438 371.084960938 522.3125 406.57421875 c 0
 523.262695312 445.690429688 560.309570312 457.998046875 587.291992188 457.998046875 c 0
 653.157226562 457.998046875 706.326171875 430.998046875 761.29296875 430.998046875 c 0
 859.301757812 430.998046875 854.791992188 413.845703125 858.326171875 475.149414062 c 0
 862.538085938 548.216796875 782.078125 575.208984375 721.482421875 635.504882812 c 1
 686.678710938 659.372070312 678.557617188 680.245117188 658.374023438 675.998046875 c 1
 656.29296875 675.998046875 l 2xf6e0
 621.129882812 675.998046875 582.450195312 660.998046875 536.293945312 660.998046875 c 0
 382.81640625 660.998046875 243.697265625 753.998046875 107.294921875 753.998046875 c 0
 83.4638671875 753.998046875 68.8876953125 707.161132812 73.2041015625 661.896484375 c 0xfb60
 80.2568359375 587.9375 63.1650390625 508.048828125 111.544921875 479.171875 c 0
 162.5390625 448.734375 196.671875 390.9609375 202.293945312 330.93359375 c 1
 202.293945312 329.999023438 l 2
 202.293945312 324.642578125 200.40625 299.12109375 177.356445312 299.921875 c 0
 160.26171875 300.515625 160.68359375 305.1796875 159.108398438 305.196289062 c 0
 134.275390625 296.1953125 103.245117188 306.439453125 91.298828125 304.622070312 c 1
 92.1982421875 227.443359375 152.486328125 184.811523438 231.76953125 178.9453125 c 0
 249.701171875 177.618164062 269.56640625 180.1484375 285.114257812 184.317382812 c 0
EndSplineSet
EndChar

StartChar: asterisk
Encoding: 42 42 11
Width: 988
Flags: MW
HStem: 66 20<554.762 617.277 554.762 623.31> 123 20.0062 742 20<750.55 850.245>
VStem: 48.5 20<243.946 263.43 243.946 269.303> 748.5 20<504.935 538.9> 763.5 20<441 454.512> 919.5 20<652.301 690.365>
LayerCount: 2
Fore
SplineSet
102.5 309 m 2xf6
 107.6875 309 134.400390625 273.801757812 141.5 273 c 0
 228.388671875 263.181640625 350.202148438 307.924804688 333.5 414 c 0
 304.536132812 597.947265625 669.8203125 762 822.5 762 c 0
 883.533203125 762 939.5 729.965820312 939.5 666 c 0
 939.5 624.192382812 898.276367188 594.477539062 858.5 591 c 0
 819.01171875 587.547851562 768.5 558.80078125 768.5 519 c 0xfa
 768.5 490.869140625 783.5 468.0234375 783.5 441 c 0
 793.098632812 347.50390625 713.811523438 282.46484375 696.5 198 c 0
 677.34765625 104.55859375 673.120117188 66 573.5 66 c 0
 519.923828125 66 498.178710938 123 444.5 123 c 0
 393.069335938 125.034179688 355.438476562 93.013671875 318.5 63 c 1
 300.883789062 54.916015625 288.275390625 43.658203125 267.5 45 c 1
 222.82421875 35.8740234375 192.348632812 59.587890625 156.5 72 c 0
 128.004882812 81.865234375 117.094726562 103.314453125 123.5 132 c 0
 136.989257812 192.409179688 48.5 200.7734375 48.5 258 c 0
 48.5 280.60546875 62.4853515625 288.301757812 69.5 303 c 1
 102.5 309 l 2xf6
97.25390625 287.71875 m 1
 82.099609375 284.963867188 l 1
 72.9208984375 271.475585938 68.5 268.859375 68.5 258.000976562 c 0
 68.5 229.891601562 160.259765625 204.8515625 143.01953125 127.642578125 c 0
 138.489257812 107.356445312 143.518554688 97.66015625 163.041992188 90.900390625 c 0
 206.168945312 75.96875 227.991210938 57.34375 266.118164062 65.1318359375 c 1
 281.51953125 64.13671875 284.629882812 68.73046875 307.783203125 80.0634765625 c 1
 342.569335938 108.365234375 384.220703125 144.8671875 444.754882812 143.005859375 c 0
 514.221679688 142.0078125 536.024414062 86 573.499023438 86 c 0
 661.055664062 86 657.48046875 107.240234375 676.90625 202.016601562 c 0
 696.73828125 298.779296875 772.04296875 356.749023438 763.499023438 439.9765625 c 1
 763.499023438 441.000976562 l 2xf6
 763.499023438 460.227539062 748.499023438 483.48046875 748.499023438 519.000976562 c 0
 748.499023438 576.38671875 813.479492188 607.141601562 856.7578125 610.924804688 c 0
 890.010742188 613.83203125 919.5 638.6015625 919.5 666 c 0
 919.5 714.729492188 877.990234375 742 822.5 742 c 0
 678.599609375 742 351.501953125 588.129882812 351.873046875 434.509765625 c 0
 351.88671875 428.734375 352.337890625 422.943359375 353.255859375 417.110351562 c 0
 368.8828125 317.862304688 281.956054688 266.620117188 205.08984375 254.743164062 c 0
 182.750976562 251.291992188 160.286132812 250.75 139.25390625 253.126953125 c 0
 116.109375 255.740234375 105.442382812 279.291992188 97.25390625 287.71875 c 1
EndSplineSet
EndChar

StartChar: plus
Encoding: 43 43 12
Width: 908
Flags: MW
HStem: 156 20 171 20 213 21G<112 112> 244 20<175.463 226 178 226> 273 20 459 20 486 20 562 20<650.553 730.84>
VStem: 52 20<297.801 309.329 297.801 318 297.801 318> 86 20<402 402.562 402.562 402.562> 151 20<222.241 239.399 221.202 244.679> 176 20<343.098 353.6> 187 20 205 20 494.017 19.983 722 20<187.488 211.837> 835.955 20.0448
LayerCount: 2
Fore
SplineSet
112 213 m 1x7ff780
 52 291 l 1
 52 318 l 1
 72.1806640625 329.02734375 55 389 73 429 c 0
 105 498 103.463867188 582.0859375 178 594 c 0
 197.115234375 597.055664062 203.948242188 591.795898438 214 576 c 0
 234.067382812 544.465820312 274.057617188 462 319 462 c 0
 341.721679688 458.59765625 358.969726562 472.509765625 379 477 c 1
 406.268554688 494.193359375 436.760742188 516.399414062 472 528 c 0
 545.719726562 552.26953125 607.106445312 582 694 582 c 0
 767.680664062 582 856 543.149414062 856 462 c 1
 845.818359375 420.409179688 773.424804688 449.056640625 742 444 c 0
 675.473632812 433.294921875 603.013671875 459 538 459 c 0
 518.5390625 459 514 447.966796875 514 429 c 0
 512.716796875 402.5859375 546.958007812 393.353515625 559 372 c 0
 593.275390625 306.579101562 695.165039062 321.754882812 724 252 c 0
 733.095703125 229.997070312 742 222.674804688 742 201 c 0
 742 173.9765625 718.776367188 156 694 156 c 0xbff780
 641.487304688 156 604.612304688 273 535 273 c 0
 420.872070312 273 319.4140625 171 193 171 c 0
 156.834960938 171 151 207.481445312 151 237 c 0
 151 252.357421875 162.15234375 264 178 264 c 2
 226 264 l 2
 266.1328125 264 298 285.793945312 298 330 c 1
 308.079101562 372.499023438 265.057617188 376.998046875 238 387 c 0
 214.815429688 395.5703125 187 382.34375 187 414 c 0x7feb80
 187 431.786132812 205 437.88671875 205 453 c 0
 205 471.794921875 184.931640625 486 169 486 c 0
 153.5234375 486 106 420.178710938 106 402 c 1
 114.7578125 391.041015625 134.76953125 390.404296875 151 384 c 0
 170.844726562 376.169921875 196 374.569335938 196 348 c 0
 196 322.989257812 165.516601562 315.064453125 154 303 c 2
 109 255 l 1
 112 213 l 1x7ff780
178 244 m 2
 172.92578125 244 171 241.80078125 171 236.998046875 c 0
 171 205.40625 177.120117188 190.998046875 193 190.998046875 c 0x7feb80
 308.704101562 190.998046875 409.041015625 292.998046875 535 292.998046875 c 0
 623.973632812 292.998046875 665.795898438 175.998046875 694.000976562 175.998046875 c 0
 709.84375 175.998046875 722.000976562 186.899414062 722.000976562 200.998046875 c 0
 722.000976562 215.885742188 716.596679688 217.557617188 705.517578125 244.357421875 c 0
 683.4375 297.772460938 584.693359375 279.86328125 541.427734375 362.443359375 c 0
 538.338867188 367.920898438 493.328125 384.55859375 494.017578125 431.467773438 c 0
 494.084960938 438.778320312 495.26953125 457.041015625 507.251953125 468.29296875 c 0
 515.869140625 476.384765625 527.223632812 478.997070312 538 478.997070312 c 0
 608.251953125 478.997070312 679.067382812 454.127929688 738.822265625 463.743164062 c 0
 788.541992188 471.743164062 829.27734375 450.563476562 835.956054688 464.857421875 c 1
 833.88671875 525.495117188 763.825195312 561.997070312 694.000976562 561.997070312 c 0
 611.916015625 561.997070312 553.85546875 533.888671875 478.25390625 509 c 0
 445.841796875 498.330078125 415.686523438 476.485351562 386.745117188 458.237304688 c 1
 371.671875 454.858398438 350.712890625 437.803710938 317.573242188 442.005859375 c 0
 254.099609375 444.759765625 213.973632812 538.78515625 197.125976562 565.260742188 c 0
 188.836914062 578.287109375 192.952148438 576.134765625 181.15625 574.249023438 c 0
 127.677734375 565.701171875 127.240234375 509.021484375 96.7724609375 433.595703125 c 1
 110.649414062 458.58203125 137.286132812 505.999023438 168.999023438 505.999023438 c 0
 193.662109375 505.999023438 224.999023438 486.255859375 224.999023438 452.999023438 c 0xbfe780
 224.999023438 419.782226562 206.999023438 416.474609375 206.999023438 413.999023438 c 0xbfeb80
 206.999023438 412.956054688 206.985351562 413.098632812 207.100585938 411.567382812 c 0
 212.328125 410.69921875 227.944335938 412.0390625 244.93359375 405.758789062 c 0
 261.36328125 399.685546875 330.470703125 390.369140625 317.975585938 327.690429688 c 1
 316.749023438 273.36328125 273.64453125 244 226 244 c 2
 178 244 l 2
86 402.561523438 m 1
 81.5068359375 375.21875 92.1826171875 335.774414062 72 309.329101562 c 1
 72 297.80078125 l 1
 94.4052734375 268.673828125 l 1
 139.470703125 316.743164062 l 2
 161.764648438 340.09765625 176 338.198242188 176 347.998046875 c 0x3ff380
 176 359.202148438 157.373046875 359.982421875 143.659179688 365.393554688 c 0
 133.70703125 369.3203125 107.088867188 368.598632812 90.3759765625 389.512695312 c 2
 86 394.98828125 l 1
 86 402.561523438 l 1
EndSplineSet
EndChar

StartChar: comma
Encoding: 44 44 13
Width: 757
Flags: MW
HStem: 54 20 537 19.9849 643 20<218.142 306.625> 666 18.4539 748 20<252.5 282.5 282.5 299.533> 763 20<388.792 449.947>
VStem: 105.5 20<148.566 215.467 148.566 221.151> 159.5 20<534.033 590.176> 186.5 20<377.488 440.663> 193.5 20<244.804 317.918 244.804 322.818> 223.5 20<561.194 576 561.194 576.004> 244.5 20<450.589 502.331> 253.5 20<113.12 144.512> 388.5 20<535.232 553.579> 508.5 20<427.001 474.735> 648.5 20<612.063 638.141> 691.5 20<600.96 711.562>
LayerCount: 2
Fore
SplineSet
615.5 591 m 1xf7af80
 636.5 594 l 1
 642.084960938 604.705078125 648.5 606.125976562 648.5 618 c 0
 648.5 658.282226562 540.090820312 694.520507812 501.5 687 c 0
 448.514648438 676.673828125 408.267578125 704.91015625 363.5 708 c 0
 271.790039062 712.19140625 191.266601562 690.678710938 114.5 666 c 0
 105.887695312 666 45.5 659.280273438 45.5 672 c 0
 45.5 765.200195312 177.442382812 768 252.5 768 c 2
 282.5 768 l 2xfbaf80
 316.56640625 768 369.084960938 783 408.5 783 c 0
 491.393554688 783 711.5 775.125 711.5 648 c 0
 711.5 553.920898438 687.1875 533.741210938 603.5 537 c 0
 549.65234375 539.096679688 500.90234375 562.3359375 447.5 555 c 0
 441.440429688 555 408.5 555.158203125 408.5 552 c 0
 408.5 518.463867188 528.5 499.470703125 528.5 450 c 0
 528.5 404.001953125 443.473632812 294 393.5 294 c 0
 377.334960938 294 314.897460938 424.651367188 306.5 447 c 0
 289.595703125 491.989257812 247.650390625 527.015625 243.5 576 c 1
 243.5 546.387695312 264.5 524.299804688 264.5 489 c 0
 264.5 402.685546875 213.5 359.836914062 213.5 276 c 0xf77780
 213.5 213.608398438 273.5 178.88671875 273.5 126 c 0
 273.5 94.24609375 249.774414062 54 216.5 54 c 0
 153.286132812 54 105.5 113.922851562 105.5 174 c 0
 105.5 268.301757812 186.5 337.9765625 186.5 417 c 0
 186.5 464.325195312 159.5 505.536132812 159.5 555 c 0
 159.5 625.3515625 163.095703125 663 249.5 663 c 0
 364.5 663 507.763671875 635.423828125 615.5 591 c 1xf7af80
249.5 643 m 0
 186.783203125 643 179.5 630.901367188 179.5 555.005859375 c 0
 179.5 513.059570312 206.5 472.190429688 206.5 417.005859375 c 0
 206.5 324.478515625 125.5 256.928710938 125.5 174.005859375 c 0
 125.5 123.126953125 166.618164062 74.005859375 216.5 74.005859375 c 0
 232.8046875 74.005859375 253.5 100.234375 253.5 126.005859375 c 0xfbaf80
 253.5 163.018554688 193.5 200.12890625 193.5 276.004882812 c 0
 193.5 369.631835938 244.5 412.174804688 244.5 489.00390625 c 0
 244.5 515.658203125 223.5 536.017578125 223.5 576.00390625 c 1
 263.428710938 577.692382812 l 1
 266.73828125 538.630859375 305.35546875 506.91015625 325.221679688 454.038085938 c 0
 331.310546875 437.833007812 378.127929688 340.442382812 398.849609375 314.76171875 c 1
 437.541992188 324.995117188 508.499023438 418.939453125 508.499023438 450.001953125 c 0
 508.499023438 476.095703125 388.499023438 488.5859375 388.499023438 552.001953125 c 0
 388.499023438 590.359375 446.163085938 575.002929688 446.163085938 575.002929688 c 1
 505.98046875 582.377929688 556.473632812 558.84765625 604.276367188 556.986328125 c 0
 676.4375 554.176757812 688.522460938 561.4765625 691.20703125 631.640625 c 0
 691.403320312 636.763671875 691.499023438 642.215820312 691.499023438 648.000976562 c 0
 691.499023438 748.61328125 499.885742188 763.000976562 408.499023438 763.000976562 c 0xf77780
 373.33984375 763.000976562 321.419921875 748.000976562 282.5 748.000976562 c 2
 252.5 748.000976562 l 2
 175.8203125 748.000976562 77.0576171875 740.060546875 66.6015625 684.454101562 c 1
 79.8408203125 683.747070312 100.424804688 685.294921875 111.025390625 685.889648438 c 0
 184.1875 709.30859375 268.6875 732.354492188 364.645507812 727.96875 c 0
 418.657226562 724.241210938 453.046875 697.93359375 497.673828125 706.630859375 c 0
 539.0078125 714.685546875 668.5 684.4375 668.5 618 c 0
 668.5 596.895507812 655.172851562 586.551757812 654.232421875 584.749023438 c 2
 649.486328125 575.65234375 l 1
 612.923828125 570.428710938 l 1
 507.28515625 613.987304688 363.750976562 643 249.5 643 c 0
EndSplineSet
EndChar

StartChar: hyphen
Encoding: 45 45 14
Width: 996
Flags: MW
HStem: 99 20<796.057 829.712> 111 19.2444 165 20<586.531 691.182> 318 20 493 20<510.579 580.75> 607 20<641.166 721.856>
VStem: 49.4951 20.0009 184.495 20<146.434 194.619> 370.495 20<228.729 284.421 215.044 285.749> 872.511 19.9844 926.5 19.9953
LayerCount: 2
Fore
SplineSet
835.495117188 471 m 2x7fe0
 916.495117188 441 l 1
 943.274414062 424.052734375 945.736328125 410.030273438 946.495117188 375 c 0
 947.52734375 327.329101562 868.258789062 320.177734375 892.495117188 258 c 1
 892.495117188 230.567382812 895.434570312 203.766601562 901.495117188 177 c 0
 912.561523438 128.123046875 878.373046875 81.87109375 826.495117188 99 c 1xbfe0
 765.619140625 99 729.868164062 165 652.495117188 165 c 0
 520.56640625 165 413.971679688 98.6396484375 280.495117188 111 c 0
 246.630859375 114.135742188 181.556640625 95.1484375 184.495117188 147 c 0
 184.495117188 242.237304688 370.495117188 175.458984375 370.495117188 282 c 0
 370.495117188 289.497070312 362.940429688 318 352.495117188 318 c 2
 316.495117188 318 l 2
 274.515625 318 49.4951171875 370.220703125 49.4951171875 420 c 0
 49.4951171875 474.979492188 98.6669921875 515.44140625 154.495117188 516 c 0
 235.338867188 516.80859375 247.517578125 660.623046875 355.495117188 621 c 1
 431.669921875 621 464.663085938 513 556.495117188 513 c 0
 605.004882812 513 593.8359375 627 688.495117188 627 c 0
 755.216796875 627 767.616210938 496.140625 835.495117188 471 c 2x7fe0
829.711914062 119 m 1
 865.182617188 107.288085938 891.23046875 131.76953125 881.989257812 172.5859375 c 0
 875.796875 199.934570312 872.819335938 225.405273438 872.51171875 254.390625 c 1
 848.23046875 326.484375 926.80859375 360.326171875 926.5 374.569335938 c 0
 925.774414062 408.067382812 926.467773438 410.314453125 907.51171875 423.001953125 c 1
 828.548828125 452.247070312 l 2
 735.799804688 486.598632812 737.334960938 607.001953125 688.495117188 607.001953125 c 0
 611.232421875 607.001953125 637.235351562 493.001953125 556.495117188 493.001953125 c 0
 447.868164062 493.001953125 411.544921875 601.001953125 355.495117188 601.001953125 c 2
 351.94140625 601.001953125 l 1
 250.05078125 638.391601562 273.814453125 497.194335938 154.6953125 496.002929688 c 0
 107.868164062 495.534179688 69.9111328125 462.4375 69.49609375 420.443359375 c 1
 81.884765625 392.701171875 277.428710938 338.000976562 316.495117188 338.000976562 c 2
 352.495117188 338.000976562 l 2
 389.610351562 338.000976562 390.495117188 286.841796875 390.495117188 282.000976562 c 0
 390.495117188 148.087890625 204.495117188 212.295898438 204.495117188 147 c 2
 204.495117188 146.43359375 l 2
 203.775390625 133.736328125 205.095703125 131.270507812 225.763671875 130.244140625 c 0x7fe0
 242.017578125 129.4375 263.177734375 132.689453125 282.338867188 130.915039062 c 0
 407.99609375 119.278320312 513.129882812 185 652.495117188 185 c 0
 742.37890625 185 781.564453125 119 826.495117188 119 c 2
 829.711914062 119 l 1
EndSplineSet
EndChar

StartChar: period
Encoding: 46 46 15
Width: 962
Flags: MW
HStem: 276 20 300 20 330.987 20.0125 340 20 430.025 19.9751 447 20 487.726 19.2735 564 20 619 20<394.442 529.606>
VStem: 106 19.9997 409 20 896 20<285.688 390.442>
LayerCount: 2
Fore
SplineSet
56.986328125 398.908203125 m 1xcbf0
 119.022460938 426.365234375 307.884765625 639 481 639 c 0
 578.211914062 639 916 450.884765625 916 330 c 0
 916 241.375 834.5859375 276 760 276 c 0
 697.135742188 276 642.373046875 300 583 300 c 1
 520.673828125 236.0234375 480.609375 143.350585938 361 165 c 0
 252.734375 184.596679688 106 123.106445312 106 315 c 0
 106 337.377929688 149.219726562 351 169 351 c 0
 210.135742188 347.013671875 249.430664062 359.708007812 292 360 c 0
 313.58984375 360.1484375 337.303710938 363 361 363 c 0
 379.95703125 363 409 385.444335938 409 405 c 0
 409 415.80859375 379.606445312 447 367 447 c 2
 349 447 l 2xe7f0
 329.66796875 447 298 471.40625 298 486 c 0
 297.45703125 524.859375 353.322265625 499.8125 379 507 c 0
 444.262695312 525.268554688 468 453 532 450 c 0
 572 448 645.659179688 489.462890625 625 495 c 0
 560.88671875 512.182617188 502.676757812 565.16015625 436 564 c 0
 283.364257812 561.34375 256.935546875 491.828125 148 423 c 1
 56.986328125 398.908203125 l 1xcbf0
56.986328125 398.908203125 m 2
 52.7041015625 397.012695312 49.0263671875 396 46 396 c 2
 46 396 56.986328125 398.908203125 56.986328125 398.908203125 c 2
304.795898438 557.701171875 m 1
 337.788085938 572.822265625 379.848632812 583.0234375 435.657226562 583.995117188 c 0
 512.311523438 585.329101562 573.720703125 529.448242188 630.181640625 514.31640625 c 0
 639.041015625 511.942382812 652.018554688 499.483398438 647.549804688 484.685546875 c 0
 638.286132812 454.013671875 570.32421875 428.05859375 531.005859375 430.024414062 c 0xebf0
 445.151367188 434.048828125 435.696289062 502.099609375 384.395507812 487.739257812 c 0
 357.994140625 480.349609375 328.081054688 490.040039062 317.935546875 487.725585938 c 1
 322.12109375 480.524414062 343.279296875 466.999023438 349.002929688 466.999023438 c 2
 367.002929688 466.999023438 l 2
 394.7421875 466.999023438 429.002929688 430.471679688 429.002929688 404.999023438 c 0
 429.002929688 370.114257812 389.62109375 342.999023438 361.002929688 342.999023438 c 0
 338.872070312 342.999023438 315.352539062 340.159179688 292.139648438 340 c 0xd7f0
 253.95703125 339.73828125 214.186523438 326.829101562 168.202148438 330.987304688 c 0
 155.788085938 330.611328125 129.594726562 320.104492188 126.000976562 314.439453125 c 0
 126.610351562 143.942382812 239.5390625 207.310546875 364.563476562 184.680664062 c 0
 471.825195312 165.266601562 505.7265625 249.341796875 574.563476562 320.000976562 c 1
 583.000976562 320.000976562 l 2
 647.924804688 320.000976562 702.375 296.000976562 760.000976562 296.000976562 c 0
 851.391601562 296.000976562 896.000976562 266.563476562 896.000976562 330.000976562 c 0
 896.000976562 428.930664062 571.91015625 619.000976562 481.000976562 619.000976562 c 0
 424.466796875 619.000976562 363.326171875 593.524414062 304.795898438 557.701171875 c 1
EndSplineSet
EndChar

StartChar: slash
Encoding: 47 47 16
Width: 1286
Flags: MW
HStem: 159 20<1033.72 1100.37 1033.72 1102.97> 207 20<373.142 449.804 373.142 454.375> 303 20<718.906 851.962> 367.678 22.3222 394 20<468.643 563.131> 474 20 625 20
VStem: 289.323 21.4346 343.758 20 964.758 20 1217.76 20<247.463 294.32>
LayerCount: 2
Fore
SplineSet
223.7578125 483 m 1
 298.7578125 507 l 1
 409.701171875 577.88671875 508.348632812 654.743164062 655.7578125 621 c 1
 921.135742188 683.4296875 1089.9921875 537.440429688 1213.7578125 333 c 0
 1228.56347656 308.543945312 1237.7578125 309.639648438 1237.7578125 279 c 0
 1237.7578125 215.926757812 1130.18261719 159 1075.7578125 159 c 0
 972.739257812 159 913.166015625 303 790.7578125 303 c 0
 647.053710938 303 525.9921875 207 382.7578125 207 c 0
 336.9453125 207 343.7578125 272.89453125 343.7578125 306 c 0
 343.7578125 395.372070312 431.528320312 414 505.7578125 414 c 0
 624.419921875 414 740.829101562 380.10546875 862.7578125 390 c 0
 878.74609375 391.297851562 964.7578125 379.599609375 964.7578125 399 c 0
 964.7578125 472.237304688 681.23828125 474 628.7578125 474 c 0
 595.020507812 474 298.7578125 488.650390625 298.7578125 429 c 0
 295.267578125 399.231445312 317.161132812 376.8515625 310.7578125 345 c 0
 307.174804688 327.17578125 317.052734375 291 292.7578125 291 c 0
 205.252929688 280.547851562 119.499023438 364.828125 124.7578125 450 c 0
 128.875 516.680664062 25.7548828125 528.302734375 52.7578125 609 c 0
 59.826171875 630.124023438 41.0634765625 645 73.7578125 645 c 0
 149.096679688 645 161.528320312 604.326171875 202.7578125 585 c 1
 211.7578125 510 l 1
 223.7578125 483 l 1
212.767578125 458.484375 m 1
 192.258789062 504.625976562 l 1
 184.146484375 572.23046875 l 1
 142.354492188 596.854492188 136.92578125 624.548828125 74.375 624.999023438 c 1
 74.6494140625 619.715820312 74.6396484375 611.3671875 71.7236328125 602.65234375 c 0
 49.2802734375 535.58203125 150.768554688 546.739257812 144.71875 448.765625 c 0
 140.4921875 380.319335938 209.430664062 302.327148438 289.322265625 310.734375 c 1
 291.018554688 322.409179688 288.533203125 335.92578125 291.149414062 348.939453125 c 0
 295.330078125 369.733398438 274.62890625 388.137695312 278.76171875 430.12109375 c 0
 283.888671875 522.748046875 611.409179688 493.999023438 628.756835938 493.999023438 c 0
 666.288085938 493.999023438 984.756835938 504.69140625 984.756835938 398.999023438 c 0
 984.756835938 361.455078125 935.11328125 367.63671875 923.44140625 367.676757812 c 0
 898.264648438 367.762695312 867.915039062 370.352539062 864.375 370.065429688 c 0
 737.759765625 359.791015625 620.505859375 394 505.756835938 394 c 0
 430.723632812 394 363.756835938 375.884765625 363.756835938 306 c 0
 363.756835938 260.881835938 363.526367188 227 382.756835938 227 c 0
 516.8515625 227 637.943359375 323 790.756835938 323 c 0
 929.245117188 323 991.676757812 179 1075.75683594 179 c 0
 1124.97753906 179 1217.75683594 235.57421875 1217.75683594 279 c 0
 1217.75683594 303.631835938 1215.58789062 291.356445312 1196.64746094 322.642578125 c 0
 1073.01367188 526.866210938 912.840820312 660.932617188 655.819335938 600.46875 c 1
 513.897460938 632.956054688 423.188476562 562.770507812 307.333007812 488.745117188 c 1
 212.767578125 458.484375 l 1
EndSplineSet
EndChar

StartChar: zero
Encoding: 48 48 17
Width: 725
Flags: MW
HStem: 108 20<297.048 312.983 297.048 313.729> 640 20<455.664 518> 721 20<325.036 349.293>
VStem: 53.5 20<330.758 434.675 330.758 437.816> 651.5 20<465.179 526.806>
LayerCount: 2
Fore
SplineSet
457.229492188 244.538085938 m 1
 430.653320312 167.391601562 387.748046875 116.427734375 339.013671875 114.083984375 c 0
 329.165039062 110.095703125 318.958984375 108 308.5 108 c 0
 276.969726562 108 247.748046875 127.048828125 223.631835938 159.555664062 c 1
 128.625976562 167.783203125 53.5 266.439453125 53.5 388 c 0
 53.5 487.631835938 103.965820312 572.4921875 174.481445312 604.440429688 c 1
 185.295898438 653.774414062 216.998046875 689.852539062 255.396484375 692.8046875 c 1
 278.5546875 723.3359375 306.018554688 741 335.5 741 c 0
 374.591796875 741 410.134765625 709.943359375 436.799804688 659.010742188 c 1
 444.25390625 659.665039062 451.828125 660 459.5 660 c 0
 576.5 660 671.5 582 671.5 486 c 0
 671.5 439.4140625 649.12890625 397.06640625 612.728515625 365.814453125 c 0
 607.709960938 357.397460938 601.927734375 349.286132812 595.446289062 341.533203125 c 1
 587.095703125 292.418945312 530.036132812 252.700195312 457.229492188 244.538085938 c 1
438.3203125 251.051757812 m 2
 442.438476562 263.006835938 l 1
 455.001953125 264.415039062 l 2
 527.58984375 272.552734375 569.771484375 309.841796875 576.635742188 350.215820312 c 1
 584.259765625 359.3359375 591.208984375 368.77734375 597.22265625 378.86328125 c 0
 630.572265625 407.495117188 651.5 444.357421875 651.5 486.000976562 c 0
 651.5 567.610351562 568.833007812 640.000976562 459.5 640.000976562 c 0
 452.41015625 640.000976562 445.418945312 639.69140625 438.547851562 639.087890625 c 2
 425.264648438 637.921875 l 1
 419.080078125 649.734375 l 2
 393.727539062 698.159179688 363.088867188 721 335.498046875 721 c 0
 314.573242188 721 292.377929688 708.46875 271.329101562 680.717773438 c 2
 265.89453125 673.552734375 l 1
 231.721679688 670.92578125 205.036132812 650.4296875 194.016601562 600.158203125 c 2
 191.869140625 590.362304688 l 1
 182.734375 586.223632812 l 2
 121.056640625 558.279296875 73.5 481.350585938 73.5 388 c 0
 73.5 273.515625 144.004882812 186.526367188 225.357421875 179.481445312 c 2
 234.329101562 178.704101562 l 1
 239.694335938 171.471679688 l 2
 261.680664062 141.8359375 285.594726562 128 308.500976562 128 c 0
 317.465820312 128 326.583984375 130.627929688 334.658203125 133.897460938 c 0
 373.056640625 135.744140625 411.541015625 173.31640625 438.3203125 251.051757812 c 2
EndSplineSet
EndChar

StartChar: one
Encoding: 49 49 18
Width: 1367
Flags: MW
HStem: 168 20<926.566 994.489 926.566 1139.61> 678 20<214.815 224.826 214.815 228.416> 681 42 715 20<139.074 167.43>
VStem: 44.5 20 227.5 20 251.5 24<670.162 677.549> 501.5 20<454.731 477.474> 534.5 20<399.624 429.47> 735.5 20<492.218 576.786>
LayerCount: 2
Fore
SplineSet
221.5 642 m 1xafc0
 208.833007812 652.666992188 214.833007812 660.666992188 239.5 666 c 0
 239.591796875 666.01953125 251.5 668.323242188 251.5 672 c 0
 251.5 683.098632812 232.33203125 678 224.5 678 c 0
 203.225585938 678 110.5 664.458007812 110.5 693 c 0
 110.5 711.821289062 118.873046875 735 140.5 735 c 0xdfc0
 226.223632812 735 312.233398438 718.05078125 404.5 723 c 0
 652.57421875 736.306640625 371.678710938 687.797851562 275.5 681 c 1
 275.5 644.038085938 755.5 628.572265625 755.5 525 c 0
 755.5 459.436523438 521.5 492.948242188 521.5 462 c 0
 521.5 447.461914062 560.5 448.764648438 560.5 435 c 0
 560.5 429.798828125 554.5 432.939453125 554.5 426 c 0
 554.5 373.247070312 1220.27050781 177 1292.5 177 c 2
 1322.5 177 l 2
 1322.42382812 177 1322.71289062 168 956.5 168 c 0
 887.499023438 168 407.5 199.857421875 407.5 237 c 0
 407.5 381.284179688 44.5 348.46484375 44.5 519 c 0
 44.5 598.33203125 227.5 620.423828125 227.5 636 c 0
 227.5 643.006835938 220.686523438 635.46484375 221.5 642 c 1xafc0
1140.25097656 189.000976562 m 1
 931.366210938 243.915039062 534.500976562 354.280273438 534.500976562 429.29296875 c 1
 530.463867188 430.629882812 501.500976562 434.93359375 501.500976562 461.999023438 c 0
 501.500976562 527.299804688 735.500976562 488.325195312 735.500976562 524.999023438 c 0
 735.500976562 600.237304688 337.876953125 608.12109375 267.541992188 659.18359375 c 1
 257.447265625 647.885742188 248.842773438 647.626953125 245.8984375 646.934570312 c 0
 246.303710938 644.857421875 247.500976562 637 247.500976562 636 c 0
 247.500976562 581.817382812 64.5009765625 579.2890625 64.5009765625 519 c 0
 64.5009765625 372.911132812 412.541015625 415.245117188 427.182617188 245.150390625 c 1
 491.608398438 217.05078125 896.630859375 188 956.500976562 188 c 0
 1032.4765625 188 1092.63671875 188.387695312 1140.25097656 189.000976562 c 1
255.5 696.381835938 m 1
 255.5 699.63671875 l 1
 274.08984375 700.950195312 l 2
 283.841796875 701.639648438 294.68359375 702.678710938 308.399414062 704.225585938 c 1
 250.75390625 707.907226562 194.359375 715 140.500976562 715 c 0
 137.646484375 715 132.6015625 712.971679688 130.76171875 697.865234375 c 1
 149.595703125 692.138671875 205.130859375 698 224.5 698 c 0
 225.15234375 698 239.603515625 703.109375 255.5 696.381835938 c 1
EndSplineSet
EndChar

StartChar: two
Encoding: 50 50 19
Width: 918
Flags: MW
HStem: 150 20<405.953 421.631 405.953 423.12> 294 20 354 20<271.615 303.432 268.396 309.249> 454.679 19.3209 564 20<151.879 161.781> 622 20<287.814 363.041 287.814 365.194> 670 20<154.879 180.398> 712 20G<66.0371 89.2866>
VStem: 109.879 20 316.879 20 358.879 20.0781 505.879 20 602.879 20<161.148 177 177 198> 749.879 20<423 450>
LayerCount: 2
Fore
SplineSet
154.87890625 690 m 1
 217.364257812 690 255.749023438 642 319.87890625 642 c 0
 406.202148438 642 769.87890625 548.119140625 769.87890625 450 c 2
 769.87890625 423 l 2
 769.87890625 416.467773438 871.87890625 350.567382812 871.87890625 285 c 0
 871.87890625 250.71484375 796.33984375 286.294921875 772.87890625 273 c 0
 717.069335938 241.374023438 622.87890625 315.254882812 622.87890625 198 c 2
 622.87890625 177 l 2
 622.87890625 145.295898438 433.361328125 150 412.87890625 150 c 0
 374.048828125 150 358.87890625 217.376953125 358.87890625 252 c 0
 358.87890625 286.344726562 505.87890625 272.955078125 505.87890625 309 c 0
 505.87890625 324.326171875 325.618164062 354 292.87890625 354 c 0
 250.3515625 354 262.869140625 294 232.87890625 294 c 0
 160.828125 294 109.87890625 357.997070312 109.87890625 426 c 0
 109.87890625 509.608398438 203.321289062 462.083007812 247.87890625 474 c 0
 268.778320312 479.58984375 316.87890625 462.02734375 316.87890625 501 c 1
 298.186523438 537.681640625 236.088867188 524.11328125 202.87890625 546 c 0
 188.439453125 555.516601562 171.68359375 564 151.87890625 564 c 1
 103.3046875 552.693359375 38.3759765625 586.951171875 46.87890625 642 c 0
 50.07421875 662.690429688 49.1953125 732 82.87890625 732 c 0
 95.6943359375 732 114.213867188 700.866210938 121.87890625 693 c 1
 154.87890625 690 l 1
154.87890625 670 m 2
 153.96875 670.000976562 l 1
 112.708007812 673.751953125 l 1
 102.518554688 684.208007812 90.744140625 702.484375 81.1904296875 711.05078125 c 1
 73.4091796875 702.780273438 69.982421875 660.578125 66.642578125 638.948242188 c 0
 61.45703125 605.376953125 102.971679688 573.151367188 149.580078125 584 c 1
 151.876953125 584 l 2
 177.590820312 584 198.224609375 573.01953125 213.8828125 562.700195312 c 0
 231.149414062 551.321289062 308.822265625 560.857421875 334.696289062 510.08203125 c 2
 336.876953125 505.803710938 l 1
 336.876953125 501.001953125 l 2
 336.876953125 460.157226562 299.489257812 454.586914062 281.07421875 454.696289062 c 0
 267.391601562 454.77734375 255.168945312 455.248046875 253.044921875 454.6796875 c 0
 181.516601562 435.548828125 129.877929688 486.91015625 129.877929688 426 c 0
 129.877929688 367.609375 172.555664062 314.920898438 231.965820312 314.001953125 c 0
 232.509765625 314.774414062 243.913085938 374 292.877929688 374 c 0
 313.985351562 374 525.877929688 358.611328125 525.877929688 309 c 0
 525.877929688 253.665039062 390.662109375 253.89453125 378.956054688 247.879882812 c 1
 380.5234375 209.529296875 399.026367188 170 412.87890625 170 c 0
 430.3828125 170 568.915039062 168.76171875 602.879882812 183.197265625 c 1
 602.879882812 198 l 2
 602.879882812 265.931640625 638.467773438 287.758789062 678.140625 287.610351562 c 0
 713.747070312 287.477539062 744.708984375 280.024414062 763.018554688 290.400390625 c 0
 792.155273438 306.911132812 834.349609375 289.106445312 851.64453125 289.620117188 c 1
 845.65625 341.88671875 749.87890625 385.923828125 749.87890625 423 c 2
 749.87890625 450 l 2
 749.87890625 519.364257812 410.509765625 622 319.87890625 622 c 0
 244.606445312 622 205.91796875 670 154.87890625 670 c 2
EndSplineSet
EndChar

StartChar: three
Encoding: 51 51 20
Width: 727
Flags: MW
HStem: 99 21G<459.219 486.571> 177 20 565.045 19.9555 583 20<69.4058 135.646> 640 20<589.234 636.571>
VStem: 120.5 20 261.5 19.8665 279.5 20 421.5 20<257.15 326.833> 465.5 20 514.5 20<146.74 199.292> 598.5 20<558.123 577.789> 610.5 20<465.987 537.954> 661.5 20<611.678 649.791>
LayerCount: 2
Fore
SplineSet
438.5 561 m 1xede4
 480.5 564 l 1
 462.998046875 591.93359375 505.671875 590.384765625 522.5 585 c 0
 591.494140625 562.922851562 553.96875 660 624.5 660 c 0
 648.642578125 660 681.5 666.58203125 681.5 633 c 0
 681.5 590.356445312 618.5 591.577148438 618.5 564 c 0xedf4
 618.5 552.24609375 630.5 544.908203125 630.5 531 c 0
 630.5 400.973632812 441.5 377.666015625 441.5 276 c 0
 441.5 238.299804688 534.5 227.583984375 534.5 171 c 0
 534.5 122.479492188 510.641601562 99 462.5 99 c 0
 455.9375 99 447.5 97.375 447.5 105 c 0
 447.5 116.331054688 465.5 132.33984375 465.5 150 c 0
 465.5 171.06640625 435.810546875 177 417.5 177 c 2
 330.5 177 l 2
 280.552734375 177 120.5 173.70703125 120.5 258 c 0
 120.5 330.671875 261.5 297.946289062 261.5 399 c 0xeeec
 261.5 403.97265625 279.5 416.532226562 279.5 429 c 0
 279.5 560.047851562 45.5 511.375976562 45.5 591 c 0
 45.5 609.25 60.3115234375 603 78.5 603 c 0xdde4
 192.79296875 603 306.157226562 585 420.5 585 c 1
 438.5 561 l 1xede4
429.044921875 540.2734375 m 1
 410.467773438 565.041015625 l 1xecf4
 299.2109375 566.036132812 187.182617188 582.997070312 78.501953125 582.997070312 c 0
 74.32421875 582.997070312 71.1962890625 583.209960938 67.4892578125 583.48828125 c 1
 81.025390625 562.383789062 299.501953125 560.615234375 299.501953125 428.998046875 c 0xddf4
 299.501953125 409.446289062 286.672851562 399.252929688 281.368164062 393.216796875 c 1
 275.711914062 274.92578125 140.500976562 301.245117188 140.500976562 257.998046875 c 0
 140.500976562 203.404296875 258.89453125 196.998046875 330.500976562 196.998046875 c 2
 417.500976562 196.998046875 l 2
 432.616210938 196.998046875 485.500976562 193.919921875 485.500976562 149.998046875 c 0
 485.500976562 137.314453125 481.615234375 129.326171875 476.553710938 119.89453125 c 1
 503.12109375 123.770507812 514.500976562 135.239257812 514.500976562 170.998046875 c 0
 514.500976562 207.471679688 421.500976562 209.884765625 421.500976562 275.998046875 c 0
 421.500976562 402.592773438 610.500976562 420.982421875 610.500976562 530.998046875 c 0xdeec
 610.500976562 532.404296875 598.500976562 537.41796875 598.500976562 563.998046875 c 0
 598.500976562 621.08203125 661.500976562 610.788085938 661.500976562 632.998046875 c 0
 661.500976562 636.755859375 660.8671875 638.149414062 660.697265625 638.485351562 c 0
 658.868164062 639.725585938 644.487304688 639.999023438 624.5 639.999023438 c 0
 595.233398438 639.999023438 598.079101562 539.81640625 516.405273438 565.951171875 c 0
 513.556640625 566.862304688 507.4296875 567.999023438 501.505859375 568.142578125 c 1
 515.115234375 546.420898438 l 1
 429.044921875 540.2734375 l 1
EndSplineSet
EndChar

StartChar: four
Encoding: 52 52 21
Width: 786
Flags: MW
HStem: 108 20<301.412 365.39 301.412 373.309> 156 20<708 708> 204 20<490.581 559.995> 571 20<556.663 583.093 556.663 590.451> 586 20<463.882 468.319 463.882 468.319> 595 20<635.352 647.616> 655 20<141.851 150.104 139.263 154.801> 691 20<351.585 383.134>
VStem: 48 20 276 20 613 20<262.288 329.567 262.288 336.938> 718 20<194.699 204.687>
LayerCount: 2
Fore
SplineSet
225 657 m 1xf7f0
 249 660 l 1
 293.491210938 678.598632812 322.125 711 372 711 c 0
 410.84765625 711 417.42578125 664.325195312 435 645 c 0
 444.91015625 634.102539062 443.877929688 608.368164062 465 606 c 0xebf0
 471.638671875 606 474.278320312 609 483 609 c 0
 513.725585938 609 540.325195312 591 573 591 c 0
 593.186523438 591 615.818359375 615 645 615 c 0
 691.758789062 615 735 618.494140625 735 564 c 0
 735 460.286132812 633 371.133789062 633 288 c 0
 633 236.575195312 738 239.581054688 738 198 c 0
 738 180.776367188 723.583984375 156 708 156 c 0
 640.224609375 156 588.990234375 204 531 204 c 0
 450.162109375 204 419.618164062 108 327 108 c 0
 263.936523438 108 48 65.5732421875 48 159 c 0
 48 203.666015625 109.012695312 233.453125 105 279 c 0
 93.78515625 406.279296875 191.615234375 438.456054688 276 504 c 1
 276 583.28125 69 582.662109375 69 654 c 0
 69 670.469726562 134.526367188 675 144 675 c 0
 156.208007812 675 190 689 225 657 c 1xf7f0
218.319335938 636.008789062 m 1
 211.50390625 642.239257812 l 2
 183.70703125 667.654296875 165.602539062 655 143.999023438 655 c 0
 139.703125 655 106.854492188 652.533203125 90.642578125 647.138671875 c 1
 103.674804688 621.87890625 295.999023438 593.038085938 295.999023438 504 c 2
 295.999023438 494.209960938 l 1
 205.024414062 423.546875 114.80078125 395.623046875 124.921875 280.754882812 c 0
 130.421875 218.322265625 67.9990234375 184.671875 67.9990234375 159 c 0
 67.9990234375 94.3232421875 275.825195312 128 326.999023438 128 c 0
 403.78125 128 432.057617188 224 531 224 c 0
 599.990234375 224 647.629882812 176.900390625 707.045898438 176 c 0
 710.759765625 178.501953125 718 191.3984375 718 197.999023438 c 0
 718 211.375 613 211.080078125 613 287.999023438 c 0
 613 385.876953125 715 472.317382812 715 563.999023438 c 0
 715 594.578125 702.790039062 595.0703125 660.205078125 595.044921875 c 0
 655.321289062 595.041992188 650.232421875 595 644.999023438 595 c 0
 625.705078125 595 607.90234375 571 573 571 c 0xf7f0
 532.709960938 571 505.623046875 589 483 589 c 0
 480.249023438 589 479.8671875 586 465 586 c 2
 463.881835938 586 l 2
 425.841796875 589.149414062 419.923828125 631.471679688 420.271484375 631.44921875 c 1
 392.0390625 663.720703125 394.26953125 691 371.999023438 691 c 0
 331.170898438 691 305.063476562 661.758789062 254.192382812 640.493164062 c 1
 218.319335938 636.008789062 l 1
EndSplineSet
EndChar

StartChar: five
Encoding: 53 53 22
Width: 914
Flags: MW
HStem: 39 21G<844.021 861.418> 48 20<373.591 530.949 373.591 538.227> 180 20<694.782 766.859 684.371 771.917> 343 20<371.386 433.97> 640.507 19.4932 712 20<511.418 556.765>
VStem: 49 20<239.333 380.839 239.333 396.908> 178 20<608.909 636.893 608.909 651.068> 289 20<416.064 503.105> 335 20<395.182 415.716> 368 20<585.465 597.199 597.199 597.199> 499 20<534 534.001 534.001 654 654 654.001> 536 20<393.508 460.438> 716 20<568.816 651.856> 845 20<162.229 255.881>
LayerCount: 2
Fore
SplineSet
382 621 m 1x7ffe
 388 600 l 1
 388 585 l 2
 388 574.686523438 371.866210938 535.555664062 350.879882812 490.611328125 c 1
 360.188476562 495.133789062 368.82421875 496.026367188 376 492 c 1
 376 461.53125 355 434.134765625 355 402 c 0
 355 379.233398438 357.771484375 363 385 363 c 0
 482.940429688 363 499 455.440429688 499 534 c 2
 499 654 l 2
 499 686.65234375 493.8359375 732 529 732 c 0
 584.529296875 732 736 685.712890625 736 618 c 0
 736 519.631835938 556 503.875976562 556 417 c 0
 556 370.015625 865 343.76171875 865 168 c 0
 865 156.45703125 863.836914062 39 859 39 c 0xbffe
 829.041992188 39 807.833007812 180 736 180 c 0
 653.564453125 180 598.453125 48 478 48 c 0
 268.513671875 48 49 106.604492188 49 354 c 0
 49 439.81640625 289 364.12890625 289 468 c 0
 289 538.2109375 178 561.420898438 178 636 c 0
 178 666.135742188 191.921875 660 220 660 c 0
 270.932617188 660 333.779296875 641.828125 382 621 c 1x7ffe
365.404296875 606.28515625 m 1
 320.711914062 624.530273438 263.61328125 640 219.999023438 640 c 0
 210.375976562 640 203.197265625 640.565429688 198.162109375 640.506835938 c 0
 198.110351562 639.793945312 198 637.78515625 198 636 c 0
 198 581.818359375 309 559.760742188 309 468 c 0
 309 335.500976562 69 407.677734375 69 354 c 0
 69 124.666015625 269.182617188 68 478 68 c 0x7ffe
 583.8984375 68 632.741210938 200 736 200 c 0
 797.717773438 200 825.057617188 131.513671875 843.610351562 92.845703125 c 1
 844.633789062 125.032226562 844.999023438 162.186523438 844.999023438 168.000976562 c 0
 844.999023438 326.6875 535.999023438 332.240234375 535.999023438 417.000976562 c 0
 535.999023438 529.54296875 715.999023438 542.822265625 715.999023438 618.001953125 c 0
 715.999023438 660.939453125 585.634765625 712.001953125 528.999023438 712.001953125 c 0
 522.921875 712.001953125 518.655273438 708.619140625 518.734375 676.633789062 c 0
 518.752929688 669.287109375 519 661.577148438 519 654.000976562 c 2
 519 534.000976562 l 2
 519 456.798828125 502.423828125 343.000976562 385 343.000976562 c 0
 371.69140625 343.000976562 358.823242188 346.168945312 349.342773438 355.234375 c 0
 334.491210938 369.434570312 335 388.362304688 335 402.000976562 c 0
 335 429.431640625 345.790039062 450.423828125 351.626953125 468.740234375 c 1
 308.900390625 447.982421875 l 1
 332.7578125 499.07421875 l 2
 351.877929688 540.021484375 366.948242188 578.573242188 368 585.46484375 c 2
 368 597.19921875 l 1
 365.404296875 606.28515625 l 1
EndSplineSet
EndChar

StartChar: six
Encoding: 54 54 23
Width: 501
Flags: MW
HStem: 153 20.0176 567 20 582 20 609.956 20.0439 640 20<95.8086 116.809 116.809 116.809>
VStem: 215.809 20.0059 287.809 20<501.881 509.998 509.998 510> 342.809 20<308.745 342.825> 363.809 20<428.624 461.463 422.406 463.467> 375.809 20<542.486 573.413> 387.809 20<345.925 357 357 378> 432.809 20<185.637 225.53 383.67 393.178>
LayerCount: 2
Fore
SplineSet
131.80859375 627 m 1xdfb0
 138.36328125 623.333007812 126.662109375 630 140.80859375 630 c 0
 186.291992188 630 395.80859375 619.116210938 395.80859375 561 c 0xdf50
 395.80859375 519.991210938 383.80859375 481.92578125 383.80859375 441 c 0
 383.80859375 403.811523438 452.80859375 399.356445312 452.80859375 387 c 0
 452.80859375 380.33984375 407.80859375 384.70703125 407.80859375 378 c 2
 407.80859375 357 l 2
 407.80859375 334.850585938 362.80859375 352.649414062 362.80859375 333 c 0
 362.80859375 284.489257812 452.80859375 244.060546875 452.80859375 207 c 0
 452.80859375 164.274414062 370.870117188 153 338.80859375 153 c 1
 281.71484375 164.784179688 239.686523438 233.655273438 251.80859375 291 c 0
 265.786132812 357.129882812 215.80859375 396.979492188 215.80859375 453 c 0
 215.80859375 480.35546875 287.80859375 493.762695312 287.80859375 510 c 1
 247.337890625 524.311523438 199.8671875 550.279296875 161.80859375 558 c 0
 144.0859375 561.595703125 130.731445312 567 113.80859375 567 c 0xdfb0
 96.943359375 567 93.1806640625 582 80.80859375 582 c 0xbfb0
 68.9765625 582 74.4130859375 567 62.80859375 567 c 0
 43.892578125 562.818359375 52.193359375 590.119140625 50.80859375 600 c 0
 44.3935546875 645.758789062 46.4541015625 660 95.80859375 660 c 2
 116.80859375 660 l 1
 131.80859375 627 l 1xdfb0
122.043945312 609.545898438 m 1
 116.31640625 612.748046875 l 1
 103.9296875 639.998046875 l 1
 95.8076171875 639.998046875 l 2
 76.8515625 639.998046875 69.697265625 636.76171875 69.26953125 636.419921875 c 0
 69.0205078125 635.965820312 68.7783203125 621.939453125 70.87890625 600.373046875 c 1
 70.87890625 600.373046875 76.7587890625 601.998046875 80.80859375 601.998046875 c 0xbf50
 112.698242188 601.998046875 111.012695312 586.998046875 113.80859375 586.998046875 c 0
 135.239257812 586.998046875 150.370117188 580.7265625 165.78515625 577.598632812 c 0
 208.630859375 568.907226562 256.225585938 542.380859375 294.4765625 528.854492188 c 2
 307.80859375 524.139648438 l 1
 307.80859375 509.998046875 l 2
 307.80859375 473.931640625 238.169921875 454.994140625 235.814453125 451.944335938 c 0
 236.642578125 411.771484375 287.495117188 363.12109375 271.376953125 286.86328125 c 0
 261.68359375 241.0078125 296.8359375 183.495117188 340.913085938 173.016601562 c 1
 379.349609375 173.69140625 432.809570312 190.743164062 432.809570312 206.999023438 c 0
 432.809570312 220.794921875 342.809570312 265.465820312 342.809570312 332.999023438 c 0
 342.809570312 369.151367188 386.236328125 364.172851562 387.809570312 364.313476562 c 2
 387.809570312 377.999023438 l 2
 387.809570312 384.646484375 389.8515625 388.744140625 394.830078125 393.974609375 c 1
 382.764648438 401.001953125 363.80859375 416.247070312 363.80859375 441 c 0xdfb0
 363.80859375 485.93359375 375.80859375 523.97265625 375.80859375 561 c 0
 375.80859375 585.825195312 213.881835938 608.935546875 146.184570312 609.956054688 c 1
 133.625976562 602.0625 122.043945312 609.545898438 122.043945312 609.545898438 c 1
EndSplineSet
EndChar

StartChar: seven
Encoding: 55 55 24
Width: 1011
Flags: MW
HStem: 24 20 51 20 90 20 186 20<404.339 405.176> 324 20 421 20<196.439 223.499> 586 20<682.246 706.702> 630.985 20.0149 690 4.31152 694.312 18.3244 745 20<646.497 676.5>
VStem: 55.5 20 212.5 20<349.326 388.314> 265.5 20<150.236 171.835 146.437 218.088> 526.5 20 631.5 20 656.5 20<212.862 245.072 212.862 261.487> 727.5 20 748.5 20 821.5 20<82.6523 109.6> 899.5 20<462.68 482.76> 914.5 20<527.517 589.779> 938.496 20.004
LayerCount: 2
Fore
SplineSet
634.5 624 m 1xff7ffa
 643.5 615 l 1
 658.536132812 612.12109375 672.9921875 606 691.5 606 c 0
 721.903320312 606 727.5 626.122070312 727.5 654 c 0
 727.5 694.903320312 703.909179688 698.4296875 664.5 693 c 0
 645.157226562 690.334960938 561.763671875 693.899414062 513.525390625 694.311523438 c 1
 568.779296875 710.26171875 616.493164062 765 676.5 765 c 1
 676.5 765 775.5 776.646484375 775.5 756 c 0
 775.5 748.190429688 769.5 737.046875 769.5 726 c 0
 769.5 650.965820312 934.5 639.55859375 934.5 540 c 0xff7ff6
 934.5 515.033203125 919.5 494.520507812 919.5 471 c 0
 919.5 454.360351562 958.5 445.634765625 958.5 414 c 0
 958.5 398.713867188 940.5 393.104492188 940.5 387 c 0
 940.5 373.458007812 951.62890625 297 937.5 297 c 0
 924.483398438 297 923.41015625 324 919.5 324 c 0
 883.66015625 324 676.5 247.143554688 676.5 243 c 0
 676.5 182.724609375 841.5 158.83984375 841.5 84 c 0
 841.5 56.873046875 798.797851562 51 778.5 51 c 0
 744.72265625 51 740.602539062 90 718.5 90 c 0
 692.571289062 90 667.04296875 87 643.5 87 c 0
 605.701171875 87 490.293945312 24 421.5 24 c 0
 402.815429688 24 214.5 90.517578125 214.5 120 c 0
 214.5 148.862304688 265.5 135.47265625 265.5 165 c 0
 265.5 271.176757812 55.5 258.075195312 55.5 408 c 1
 55.5 408 49.2392578125 474 61.5 474 c 0
 117.080078125 474 169.377929688 441 223.5 441 c 0
 232.669921875 441 256.5 448.61328125 256.5 462 c 1
 256.5 430.515625 232.5 404.627929688 232.5 372 c 0
 232.5 326.651367188 250.5 282.727539062 250.5 240 c 0
 250.5 215.775390625 416.178710938 206 392.5 206 c 1
 417.8515625 206 631.5 213.329101562 631.5 318 c 0
 631.5 346.927734375 508.5 345.073242188 508.5 366 c 1
 508.5 366 526.5 371.350585938 526.5 384 c 0
 526.5 396.4140625 511.5 398.5859375 511.5 411 c 0
 511.5 433.125 748.5 396.763671875 748.5 423 c 0
 748.5 529.112304688 52.5 461.25 52.5 642 c 0
 52.5 661.78125 364.5 651 364.5 651 c 2
 526.5 658 559.045898438 639.03125 634.5 624 c 1xff7ffa
513.525390625 694.311523438 m 1
 504.102539062 691.591796875 494.459960938 690 484.5 690 c 0xffbff2
 469.337890625 693.727539062 485.498046875 694.551757812 513.525390625 694.311523438 c 1
753.067382812 747.012695312 m 1
 727.78125 750.46484375 678.712890625 745.122070312 677.661132812 744.999023438 c 2
 676.498046875 744.999023438 l 2
 649.693359375 744.999023438 623.909179688 730.97265625 593.829101562 712.634765625 c 1
 623.002929688 711.98828125 655.797851562 711.989257812 661.76953125 712.811523438 c 0
 701.802734375 718.327148438 747.499023438 712.372070312 747.499023438 653.999023438 c 0
 747.499023438 624.8046875 737.735351562 585.999023438 691.499023438 585.999023438 c 0
 665.02734375 585.999023438 649.780273438 593.432617188 633.702148438 596.510742188 c 1
 624.61328125 605.599609375 l 1
 551.231445312 620.89453125 521.092773438 637.74609375 364.5859375 630.983398438 c 0
 364.002929688 631.00390625 139.641601562 638.53125 74.29296875 629.1796875 c 1
 109.333984375 512.0703125 768.498046875 544.915039062 768.498046875 422.998046875 c 0
 768.498046875 386.267578125 715.623046875 392.98828125 698.815429688 393.013671875 c 0
 650.291015625 393.086914062 582.81640625 399.184570312 543.34375 398.453125 c 1
 545.001953125 394.249023438 546.499023438 389.302734375 546.499023438 384 c 0
 546.499023438 379.151367188 546.067382812 376.56640625 543.61328125 370.448242188 c 1
 564.765625 365.875 651.499023438 365.323242188 651.499023438 318.000976562 c 0
 651.499023438 185.227539062 413.583007812 186.000976562 396.849609375 186.000976562 c 0
 375.938476562 188.279296875 313.924804688 194.280273438 277.078125 203.479492188 c 1
 282.3671875 191.9453125 285.5 178.669921875 285.5 165.000976562 c 0
 285.5 127.872070312 244.673828125 123.01171875 238.046875 120.559570312 c 1
 269.516601562 95.37109375 403.354492188 46.740234375 422.015625 44.0029296875 c 0
 481.809570312 44.4677734375 593.706054688 107.000976562 643.5 107.000976562 c 0
 665.37890625 107.000976562 691.049804688 110.000976562 718.5 110.000976562 c 0
 765.302734375 110.000976562 762.139648438 71.0009765625 778.5 71.0009765625 c 0
 803.56640625 71.0009765625 821.5 81.3037109375 821.5 84.0009765625 c 0
 821.5 135.19921875 656.5 155.15625 656.5 243.000976562 c 0
 656.5 279.973632812 891.506835938 344.000976562 923.850585938 344.000976562 c 1
 922.646484375 361.919921875 920.5 378.090820312 920.5 387.000976562 c 0
 920.5 411.25 938.49609375 414.419921875 938.49609375 414.419921875 c 1
 938.009765625 429.138671875 899.500976562 427.555664062 899.500976562 471 c 0xff7ffa
 899.500976562 503.268554688 914.500976562 523.2578125 914.500976562 540 c 0xff7ff6
 914.500976562 618.0546875 749.500976562 623.655273438 749.500976562 726 c 0
 749.500976562 734.694335938 751.358398438 741.06640625 753.067382812 747.012695312 c 1
74.271484375 453.361328125 m 1
 73.109375 436.633789062 75.408203125 409.90234375 75.4990234375 408.93359375 c 2
 75.4990234375 408 l 2
 75.4990234375 319.461914062 160.170898438 300.08984375 229.874023438 253.53515625 c 1
 226.841796875 287.770507812 212.499023438 327.5546875 212.499023438 372 c 0
 212.499023438 390.51953125 218.646484375 409.169921875 223.499023438 421 c 1
 166.965820312 421 118.919921875 448.959960938 74.271484375 453.361328125 c 1
EndSplineSet
EndChar

StartChar: eight
Encoding: 56 56 25
Width: 770
Flags: MW
HStem: 150 20 162 20 180 20 694 20G<659.24 689.473>
VStem: 50.5 20 83.5 20.1692 107.5 20<316.863 327.671> 236.5 20.0751 251.5 20<696 702 689.164 705.959> 282.5 20<590.523 646.019> 317.5 20 564.5 20<503.836 512.184> 584.5 20 699.498 20.0021
LayerCount: 2
Fore
SplineSet
170.5 639 m 1xbf74
 212.541015625 649.581054688 233.078125 672.198242188 251.5 696 c 1
 251.5 702 l 2xbef4
 251.5 709.918945312 236.5 712.98828125 236.5 723 c 0
 236.5 759.357421875 249.559570312 759.1953125 281.5 762 c 0
 312.159179688 764.692382812 341.463867188 750.671875 368.5 735 c 1
 368.5 691.569335938 302.5 662.038085938 302.5 630 c 0
 302.5 551.046875 584.5 550.368164062 584.5 474 c 1
 584.5 533.672851562 530.5 588.233398438 530.5 648 c 0
 530.5 655.861328125 646.979492188 714 671.5 714 c 0
 707.4453125 714 719.5 564 719.5 564 c 1
 719.5 492.302734375 670.486328125 162 518.5 162 c 0x5f74
 497.46484375 162 484.323242188 180 470.5 180 c 0
 418.458007812 180 364.427734375 150 320.5 150 c 0
 277.223632812 150 89.5 262.563476562 89.5 306 c 0
 89.5 316.689453125 107.5 306.35546875 107.5 321 c 0
 107.5 334.341796875 83.5 334.000976562 83.5 351 c 0
 83.5 424.775390625 317.5 409.834960938 317.5 456 c 0
 317.5 533.23046875 50.5 534.446289062 50.5 612 c 0
 50.5 674.655273438 118.108398438 612.8515625 170.5 639 c 1xbf74
271.5 689.1640625 m 1
 250.37890625 661.874023438 228.262695312 633.749023438 177.391601562 620.124023438 c 1
 133.889648438 600.248046875 82.69140625 622.188476562 71.4638671875 621.088867188 c 0
 71.1689453125 620.086914062 70.4990234375 616.8046875 70.4990234375 612.001953125 c 0
 70.4990234375 563.686523438 337.499023438 562.6484375 337.499023438 456.000976562 c 0
 337.499023438 386.374023438 109.615234375 386.180664062 103.668945312 353.1484375 c 1
 103.668945312 353.1484375 127.5 345.237304688 127.5 321 c 0
 127.5 312.7265625 124.641601562 303.521484375 115.110351562 296.861328125 c 1
 149.02734375 252.8359375 295.71875 169.999023438 320.5 169.999023438 c 0
 356.18359375 169.999023438 411.377929688 199.999023438 470.5 199.999023438 c 0xbee4
 500.907226562 199.999023438 508.520507812 181.999023438 518.5 181.999023438 c 0
 643.110351562 181.999023438 698.903320312 483.258789062 699.497070312 563.185546875 c 0
 698.701171875 572.423828125 686.107421875 673.486328125 669.471679688 693.668945312 c 1
 649.342773438 689.490234375 574.592773438 654.56640625 550.947265625 639.373046875 c 1
 555.965820312 593.83984375 604.498046875 539.252929688 604.498046875 474 c 1x5eec
 603.498046875 474 564.498046875 473 564.498046875 474 c 0
 564.498046875 477.03515625 563.512695312 480.430664062 557.579101562 485.860351562 c 0
 521.500976562 518.875 282.499023438 539.931640625 282.499023438 629.999023438 c 0
 282.499023438 673.961914062 336.826171875 702.708984375 346.241210938 724.525390625 c 1
 324.638671875 736.022460938 303.13671875 743.822265625 283.249023438 742.076171875 c 0
 268.776367188 740.805664062 260.23046875 739.453125 258.35546875 738.576171875 c 0
 257.911132812 737.611328125 256.962890625 735.504882812 256.575195312 727.266601562 c 0x5f74
 257.926757812 726.1875 271.5 719.274414062 271.5 702 c 2
 271.5 689.1640625 l 1
EndSplineSet
EndChar

StartChar: nine
Encoding: 57 57 26
Width: 947
Flags: MW
HStem: 174 20<202.646 298.085 202.646 304.317> 195 20<659.296 699.311> 294 20<510.204 572.402> 610 20<764.698 841.389>
VStem: 50.5 19.9982 786.5 20<386.737 435.046 386.737 448.219> 852.5 20<260.58 302.868> 876.5 20<495.582 514.162>
LayerCount: 2
Fore
SplineSet
887.5 636 m 1
 875.5 588 l 1
 875.5 564 l 2
 875.5 537.443359375 896.5 535.524414062 896.5 507 c 0
 896.5 459.998046875 806.5 456.091796875 806.5 414 c 0
 806.5 359.474609375 872.5 338.76953125 872.5 285 c 0
 872.5 209.302734375 721.12109375 195 677.5 195 c 0
 623.010742188 195 587.303710938 294 557.5 294 c 0
 462.907226562 294 363.133789062 174 245.5 174 c 0
 150.154296875 174 50.5 255.889648438 50.5 363 c 0
 50.5 419.314453125 333.0859375 709.073242188 395.5 696 c 0
 540.239257812 665.682617188 689.895507812 630 839.5 630 c 0
 843.27734375 630 882.388671875 636 887.5 636 c 1
861.018554688 612.538085938 m 1
 852.415039062 611.353515625 845.052734375 609.999023438 839.500976562 609.999023438 c 0
 686.5078125 609.999023438 537.579101562 645.786132812 391.455078125 676.413085938 c 1
 346.006835938 680.436523438 74.8271484375 410.594726562 70.498046875 362.905273438 c 1
 71.01171875 268.6953125 159.791015625 194 245.5 194 c 0
 350.670898438 194 447.69140625 314 557.5 314 c 0
 615.115234375 314 641.092773438 215 677.5 215 c 0
 728.20703125 215 852.5 236.159179688 852.5 285 c 0
 852.5 320.736328125 786.5 341.733398438 786.5 414 c 0
 786.5 482.438476562 876.5 484.163085938 876.5 507.000976562 c 0
 876.5 521.322265625 855.5 522.048828125 855.5 564.000976562 c 2
 855.5 590.462890625 l 1
 861.018554688 612.538085938 l 1
EndSplineSet
EndChar

StartChar: colon
Encoding: 58 58 27
Width: 1026
Flags: MW
HStem: 90 20<576.058 654.551 576.058 658.484> 135 20<182.91 243.989 182.91 249.35> 162 20<305.276 379.647> 189 20<778.463 882.451 767.377 889.463 778.463 778.463> 616 20<417.417 483.458 417.417 495.722> 672.888 21G 675.998 20 724 20<592.572 649.648 584.373 654.3>
VStem: 52.4629 20 142.463 20 602.472 19.9906 797.463 20<648.986 702.226> 953.463 20<233.857 264>
LayerCount: 2
Fore
SplineSet
259.462890625 693 m 1xf9f8
 277.462890625 699 l 2
 283.766601562 699.9453125 290.1875 702 298.462890625 702 c 0
 357.25 702 377.370117188 636 457.462890625 636 c 0
 509.452148438 636 543.283203125 744 625.462890625 744 c 0
 673.833007812 744 817.462890625 735.451171875 817.462890625 669 c 0
 817.462890625 628.97265625 736.611328125 624.529296875 709.462890625 612 c 0
 678.497070312 597.708984375 610.715820312 601.724609375 622.462890625 549 c 1
 622.462890625 435.071289062 715.830078125 418.866210938 796.462890625 381 c 0
 856.916015625 352.610351562 976.938476562 357.189453125 973.462890625 264 c 0
 973.462890625 203.713867188 922.822265625 218.387695312 889.462890625 189 c 1
 778.462890625 189 l 1
 733.462890625 117 l 1
 695.153320312 106.112304688 679.504882812 90 637.462890625 90 c 0
 505.955078125 90 439.83203125 162 319.462890625 162 c 0
 291.088867188 162 266.237304688 135 232.462890625 135 c 0
 114.841796875 135 52.462890625 274.798828125 52.462890625 384 c 0
 52.462890625 461.055664062 142.462890625 497.356445312 142.462890625 549 c 0
 142.462890625 591.73828125 52.462890625 575.084960938 52.462890625 636 c 0
 52.462890625 670.252929688 148.34765625 696 172.462890625 696 c 0
 172.606445312 696 259.462890625 693 259.462890625 693 c 1xf9f8
262.37109375 672.887695312 m 2xfdf8
 259.844726562 672.974609375 183.052734375 675.630859375 172.180664062 676 c 0xfbf8
 151.04296875 675.447265625 77.16796875 648.830078125 72.45703125 635.817382812 c 1
 73.1953125 598.981445312 162.461914062 621.202148438 162.461914062 549 c 0
 162.461914062 475.719726562 72.4619140625 445.884765625 72.4619140625 384 c 0
 72.4619140625 278.047851562 133.357421875 155 232.461914062 155 c 0
 255.516601562 155 278.374023438 182 319.461914062 182 c 0
 449.409179688 182 514.654296875 110 637.461914062 110 c 0
 671.639648438 110 681.1953125 121.1953125 720.481445312 133.966796875 c 1
 767.376953125 209 l 1
 882.451171875 209 l 1
 930.5234375 243.608398438 953.461914062 221.643554688 953.461914062 264.373046875 c 0
 956.185546875 337.413085938 863.899414062 327.234375 787.959960938 362.896484375 c 0
 714.232421875 397.520507812 603.926757812 418.674804688 602.470703125 546.885742188 c 1
 588.733398438 620.5 687.52734375 623.904296875 701.080078125 630.159179688 c 0
 744.49609375 650.196289062 797.4609375 652.110351562 797.4609375 669 c 0
 797.4609375 707.357421875 683.138671875 724 625.4609375 724 c 0
 559.682617188 724 533.982421875 616 457.4609375 616 c 0
 364.264648438 616 339 682 298.461914062 682 c 0
 293.66796875 682 290.633789062 681.004882812 282.25 679.513671875 c 2
 262.37109375 672.887695312 l 2xfdf8
EndSplineSet
EndChar

StartChar: semicolon
Encoding: 59 59 28
Width: 910
Flags: MW
HStem: 57 20 190 20<257.982 297.283> 204 20 244.02 19.98 256 20<545.682 591.278> 357 20 426 20 562 20<485 497 485 497 474.296 497> 655.01 19.9897 715 20<554 604.108>
VStem: 53 20 116 20 203 20 222 20<297.316 363.298> 467 20.0012 524 20 747 20<197.671 233.681> 837 20<505.387 585.28>
LayerCount: 2
Fore
SplineSet
479 591 m 1xaffbc0
 485 582 l 1
 497 582 l 2
 514.545898438 582 524 588.223632812 524 606 c 0
 524 648.80078125 467 645.74609375 467 672 c 0
 467 698.09765625 473.421875 691.043945312 491 708 c 0
 507.959960938 724.360351562 528.538085938 734.87890625 554 735 c 0
 654.215820312 735 857 645.559570312 857 525 c 0
 857 485.7734375 847.920898438 357 797 357 c 0
 707.129882812 357 640.509765625 426 548 426 c 0
 489.827148438 426 242 417.596679688 242 309 c 0
 242 285.631835938 240.963867188 210 275 210 c 0
 319.56640625 210 369.046875 266.771484375 431 264 c 0xd7f7c0
 478.916015625 261.856445312 522.36328125 276 569 276 c 0
 613.555664062 276 767 263.361328125 767 204 c 0
 767 191.341796875 764.05078125 141 752 141 c 0
 693.879882812 141 643.7578125 204 581 204 c 0
 506.65625 204 412.825195312 57 281 57 c 0
 193.266601562 57 53 152.060546875 53 249 c 0
 53 316.241210938 203 320.7578125 203 372 c 0
 203 422.25 116 455.514648438 116 519 c 0
 116 546.999023438 128.53125 568.427734375 131 594 c 0
 134.297851562 628.158203125 154.990234375 673.649414062 197 675 c 0
 286.100585938 677.864257812 396.8515625 614.72265625 479 591 c 1xaffbc0
466.361328125 573.90234375 m 1
 381.657226562 600.180664062 275.826171875 657.526367188 197.64453125 655.012695312 c 0
 172.310546875 654.198242188 153.935546875 623.424804688 150.909179688 592.080078125 c 0
 147.859375 560.485351562 136.001953125 540.920898438 136.001953125 519.001953125 c 0
 136.001953125 472.8359375 223.001953125 443.568359375 223.001953125 372.001953125 c 0
 223.001953125 291.049804688 73.001953125 291.587890625 73.001953125 249.001953125 c 0
 73.001953125 168.787109375 201.469726562 77.001953125 281.001953125 77.001953125 c 0
 400.180664062 77.001953125 485.770507812 224.001953125 581.001953125 224.001953125 c 0
 650.560546875 224.001953125 700.512695312 168.140625 742.463867188 161.721679688 c 1
 745.12109375 172.446289062 747.002929688 197.844726562 747.002929688 204.000976562 c 0
 747.002929688 234.252929688 623.079101562 256.000976562 569.002929688 256.000976562 c 0xaffbc0
 526.568359375 256.000976562 482.575195312 241.673828125 430.108398438 244.020507812 c 0
 379.58203125 246.28125 335.229492188 190.000976562 275.000976562 190.000976562 c 0
 211.74609375 190.000976562 222.000976562 297.912109375 222.000976562 309.000976562 c 0
 222.000976562 446.314453125 500.08984375 446.000976562 548.000976562 446.000976562 c 0
 651.038085938 446.000976562 717.969726562 377.000976562 797.000976562 377.000976562 c 0
 818.79296875 377.000976562 837.000976562 475.865234375 837.000976562 525.000976562 c 0
 837.000976562 624.805664062 650.892578125 715.000976562 554.000976562 715.000976562 c 0
 534.563476562 714.908203125 519.068359375 707.286132812 504.88671875 693.60546875 c 0
 497.2109375 686.201171875 491.217773438 682.474609375 487.368164062 679.80859375 c 0
 487.234375 678.734375 487.109375 678.3359375 487.001953125 673.380859375 c 0
 489.541992188 671.173828125 544.000976562 654.342773438 544.000976562 606 c 0
 544.000976562 594.798828125 541.083984375 582.809570312 532.16015625 574.028320312 c 0
 521.821289062 563.854492188 508.484375 562 497 562 c 2
 474.295898438 562 l 1
 466.361328125 573.90234375 l 1
EndSplineSet
EndChar

StartChar: less
Encoding: 60 60 29
Width: 866
Flags: MW
HStem: 300 20<483.89 529.124 483.89 534.681> 342 20<621.106 660.369 652 660.522 615.345 742> 399 20<280 301.573> 496 20<532.771 594.753> 574 20<207.811 266.124>
VStem: 52 20.0215 794 20<349.209 418.265>
LayerCount: 2
Fore
SplineSet
84 561 m 1
 115 570 l 1
 149.826171875 570 184.141601562 594 223 594 c 0
 318.221679688 594 470.54296875 516 595 516 c 0
 626.603515625 515.220703125 659.279296875 521.728515625 688 504 c 0
 755.430664062 462.375 814 467.529296875 814 369 c 0
 814 329.41796875 760.53515625 358.743164062 742 342 c 0
 731.651367188 332.651367188 668.73828125 342 652 342 c 0
 590.212890625 342 567.361328125 300 502 300 c 0
 457.135742188 300 429.194335938 328.895507812 394 345 c 0
 354.4765625 363.0859375 323.146484375 399 280 399 c 0
 248.97265625 397.565429688 227.786132812 410.38671875 199 417 c 0
 126.33203125 433.6953125 52 437.172851562 52 531 c 0
 52 541.90625 53.0830078125 533.985351562 58 543 c 1
 84 561 l 1
92.705078125 542.701171875 m 1
 72.017578125 528.3828125 l 1
 73.4814453125 455.451171875 124.940429688 454.536132812 203.474609375 436.493164062 c 0
 236.794921875 428.837890625 254.349609375 417.8359375 279.53515625 419 c 2
 279.997070312 419 l 2
 333.795898438 419 369.588867188 378.1640625 402.319335938 363.186523438 c 0
 443.40625 344.385742188 465.782226562 320 501.998046875 320 c 0
 556.249023438 320 578.69140625 362 651.999023438 362 c 0
 669.044921875 362 716.129882812 356.055664062 730.795898438 358.681640625 c 1
 753.876953125 376.051757812 787.193359375 366.1171875 793.942382812 367.389648438 c 0
 793.966796875 367.818359375 793.999023438 368.361328125 793.999023438 369.000976562 c 0
 793.999023438 454.28515625 753.776367188 439.892578125 677.494140625 486.981445312 c 0
 656.635742188 499.856445312 629.9375 495.1328125 594.752929688 496 c 0
 463.92578125 496 309.247070312 574 223 574 c 0
 192.62109375 574 161.552734375 551.625 117.999023438 550.044921875 c 1
 92.705078125 542.701171875 l 1
EndSplineSet
EndChar

StartChar: equal
Encoding: 61 61 30
Width: 795
Flags: MW
HStem: 183 19.4096 438 20<606.751 626.61 606.751 637.925> 489 20 504 20 625 20<391.542 476.666>
VStem: 49.5 20 200.5 20<356.855 472.282 323.55 481.35> 635.5 20<486.82 519.953> 725.5 20<216.721 321.933>
LayerCount: 2
Fore
SplineSet
622.5 438 m 0xef80
 574.114257812 438 546.01171875 495.783203125 499.5 495 c 1
 478.48828125 499.21484375 460.844726562 504 439.5 504 c 0xdf80
 389.259765625 504 341.401367188 489 292.5 489 c 2
 253.5 489 l 2
 238.509765625 489 220.5 479.564453125 220.5 465 c 0
 220.5 182.099609375 745.5 388.866210938 745.5 255 c 0
 745.5 178.442382812 644.938476562 183 595.5 183 c 0
 410.38671875 183 49.5 158.08203125 49.5 432 c 0
 49.5 639.680664062 313.583984375 645 469.5 645 c 0
 483.831054688 645 528.393554688 645.088867188 541.5 636 c 1
 547.5 618 l 1
 567.305664062 596.7265625 655.5 538.905273438 655.5 501 c 0
 655.5 472.639648438 653.350585938 438 622.5 438 c 0xef80
622.5 458 m 0
 630.720703125 458 635.501953125 467.059570312 635.501953125 501.001953125 c 0
 635.501953125 520.744140625 555.745117188 579.795898438 529.90234375 607.553710938 c 1
 525.403320312 621.049804688 l 1
 512.6015625 624.205078125 480.595703125 625.000976562 469.500976562 625.000976562 c 0
 306.576171875 625.000976562 69.5009765625 615.688476562 69.5009765625 432.000976562 c 0
 69.5009765625 222.4765625 303.01171875 202.3984375 499.66796875 202.41015625 c 0
 534.244140625 202.412109375 566.788085938 203 595.500976562 203 c 0
 653.974609375 203 725.500976562 203.3828125 725.500976562 255 c 0
 725.500976562 274.438476562 696.65234375 286.087890625 614.374023438 286.083984375 c 0
 470.599609375 286.078125 200.5 248.711914062 200.5 464.999023438 c 0
 200.5 497.701171875 234.305664062 508.999023438 253.5 508.999023438 c 2
 292.5 508.999023438 l 2xef80
 337.287109375 508.999023438 385.255859375 523.999023438 439.5 523.999023438 c 0
 463.192382812 523.999023438 481.953125 518.9921875 501.498046875 515.000976562 c 0
 562.196289062 513.887695312 591.002929688 458 622.5 458 c 0
EndSplineSet
EndChar

StartChar: greater
Encoding: 62 62 31
Width: 581
Flags: MW
HStem: -12 20<329.633 403.459 329.633 406.136> 571 20<246.001 291.583> 649 20<441.165 504.843> 688 20<197.701 224.5> 718.021 19.9792
VStem: 47.5 20<588.412 642.165 588.412 654.896> 110.5 20<180.256 260.161 180.256 266.088> 182.5 20<400.119 468.634> 222.467 20.0332 321.5 20<225.333 333.701 225.333 343.544> 444.5 20<41.792 95.0479> 513.5 20<545.517 613.15 536.096 613.473>
LayerCount: 2
Fore
SplineSet
263.5 716 m 1
 242.813476562 754.498046875 234.478515625 768.111328125 260.5 756 c 0
 268.56640625 752.245117188 292.513671875 738.456054688 302.5 738 c 0
 316.221679688 737.374023438 324.997070312 732.525390625 338.5 726 c 1
 347.900390625 726 371.5 731.928710938 371.5 717 c 0
 371.5 692.559570312 307.538085938 684.083007812 290.5 678 c 0
 269.861328125 670.631835938 236.543945312 657.838867188 242.5 630 c 0
 242.5 612.547851562 234.502929688 591 257.5 591 c 0
 325.666015625 591 396.830078125 669 485.5 669 c 0
 524.186523438 669 533.5 629.30078125 533.5 597 c 0
 533.5 475.192382812 341.5 391.401367188 341.5 276 c 0
 341.5 174.666015625 464.5 143.662109375 464.5 69 c 0
 464.5 3.701171875 437.772460938 -12 374.5 -12 c 0
 274.428710938 -12 110.5 117.094726562 110.5 228 c 0
 110.5 304.17578125 182.5 368.237304688 182.5 432 c 0
 182.5 505.268554688 47.5 535.509765625 47.5 621 c 0
 47.5 688.791992188 170.901367188 708 224.5 708 c 1
 263.5 716 l 1
282.384765625 723.109375 m 1
 293.83203125 701.8046875 l 1
 226.530273438 687.999023438 l 1
 224.5 687.999023438 l 2
 165.637695312 687.999023438 67.5 663.331054688 67.5 620.999023438 c 0
 67.5 555.82421875 202.5 528.48828125 202.5 431.999023438 c 0
 202.5 354.240234375 130.5 292.322265625 130.5 228 c 0
 130.5 132.512695312 284.766601562 8 374.5 8 c 0
 432.418945312 8 444.5 14.583984375 444.5 69 c 0
 444.5 121.095703125 321.5 157.75 321.5 276 c 0
 321.5 411.087890625 513.5 494.032226562 513.5 597.000976562 c 0
 513.5 629.944335938 504.5625 649.000976562 485.5 649.000976562 c 0
 407.892578125 649.000976562 339.837890625 571.000976562 257.5 571.000976562 c 0
 247.6953125 571.000976562 236.624023438 573.9609375 229.243164062 582.7109375 c 0
 216.912109375 597.329101562 221.80078125 611.416992188 222.466796875 628.305664062 c 0
 215.420898438 674.752929688 267.181640625 690.913085938 283.775390625 696.836914062 c 0
 295.166015625 700.903320312 311.959960938 703.66015625 328.309570312 708.71484375 c 1
 315.530273438 714.93359375 310.048828125 717.635742188 301.588867188 718.021484375 c 0
 293.584960938 718.38671875 288.938476562 720.438476562 282.384765625 723.109375 c 1
EndSplineSet
EndChar

StartChar: question
Encoding: 63 63 32
Width: 949
Flags: MW
HStem: 102 20 204 20 316 20<120.5 141.5 141.5 161.127> 610.004 20 634 20<747.5 747.501 746.442 766.068>
VStem: 48.5 20<187.091 267.507 187.091 270.755> 318.5 20<508.37 563.725 508.37 565.374> 357.5 20<386.604 428.953> 508.5 20<550.764 575.401 550.764 577.911> 640.5 20<290.688 404.436> 844.5 20<529.214 630.645> 880.5 20<144.55 245.304>
LayerCount: 2
Fore
SplineSet
552.5 591 m 1
 534.5 588 l 1
 530.899414062 577.796875 528.5 580.801757812 528.5 570 c 0
 528.5 531.52734375 571.227539062 529.912109375 606.5 528 c 0
 656.922851562 525.266601562 670.721679688 580.356445312 696.5 612 c 1
 707.634765625 633.3125 718.400390625 657.087890625 747.5 654 c 0
 784.63671875 654 864.5 655.290039062 864.5 606 c 0
 864.5 452.427734375 660.5 451.87109375 660.5 357 c 0
 660.5 224.375976562 900.5 334.608398438 900.5 156 c 0
 900.5 133.100585938 897.888671875 102 870.5 102 c 0
 763.543945312 102 702.33203125 204 594.5 204 c 0
 495.7734375 204 433.920898438 105 318.5 105 c 0
 203.802734375 105 48.5 99.2001953125 48.5 252 c 0
 48.5 289.510742188 74.865234375 336 120.5 336 c 2
 141.5 336 l 2
 180.754882812 336 357.5 365.208007812 357.5 408 c 0
 357.5 449.905273438 318.5 479.658203125 318.5 525 c 0
 318.5 605.748046875 326.360351562 628.391601562 408.5 630 c 0
 454.032226562 630.891601562 534.5 663 552.5 591 c 1
523.151367188 606.384765625 m 1
 503.3125 627.00390625 456.764648438 610.94140625 408.891601562 610.00390625 c 0
 336.774414062 608.591796875 338.5 602.450195312 338.5 525 c 0
 338.5 491.740234375 377.5 462.974609375 377.5 408.000976562 c 0
 377.5 334.432617188 172.298828125 316.000976562 141.5 316.000976562 c 2
 120.5 316.000976562 l 2
 90.53515625 316.000976562 68.5 283.012695312 68.5 252.000976562 c 0
 68.5 122.180664062 193.990234375 125.000976562 318.5 125.000976562 c 0
 421.483398438 125.000976562 481.202148438 224.000976562 594.500976562 224.000976562 c 0
 716.107421875 224.000976562 777.432617188 122.000976562 870.500976562 122.000976562 c 0
 875.577148438 122.000976562 880.500976562 128.357421875 880.500976562 156.000976562 c 0
 880.500976562 310.307617188 640.500976562 192.649414062 640.500976562 357 c 0
 640.500976562 480.893554688 844.500976562 471.243164062 844.500976562 606 c 0
 844.500976562 628.568359375 794.700195312 634 747.500976562 634 c 2
 746.442382812 634 l 2
 731.48828125 635.586914062 726.301757812 625.850585938 713.288085938 600.94140625 c 1
 694.771484375 578.211914062 672.80078125 504.376953125 605.41796875 508.029296875 c 0
 577.359375 509.55078125 508.5 509.165039062 508.5 570 c 0
 508.5 585.822265625 515.46484375 594.159179688 515.639648438 594.655273438 c 2
 519.568359375 605.787109375 l 1
 523.151367188 606.384765625 l 1
EndSplineSet
EndChar

StartChar: at
Encoding: 64 64 33
Width: 1232
Flags: MW
HStem: -15 20 60 20<357.742 507.646 357.742 508.633> 81 20<794.115 903.785> 175 20<330.236 390.398> 414 20<1011.06 1085.5 1040.5 1085.5> 424.007 19.9931 538 20 564 36<719.5 740.5> 700 20<937.797 1020.43> 730 20<240.985 337.797>
VStem: 56.5 20<236.693 412.946 236.693 412.985> 273.5 20<288.59 411.482> 489.5 20<609.374 728.731> 566.5 20 686.5 20 900.5 20<237.528 324.544 237.528 330.704> 1149.5 20<72.1533 150.469>
LayerCount: 2
Fore
SplineSet
719.5 564 m 1xf7ff80
 731.5 600 l 1
 740.5 600 l 2
 759.125 600 770.908203125 555 812.5 555 c 0
 926.35546875 555 876.706054688 720 974.5 720 c 0
 1076.49804688 720 1175.5 633.513671875 1175.5 528 c 0
 1175.5 463.586914062 1161.75 414 1085.5 414 c 2
 1040.5 414 l 2xfbff80
 981.629882812 414 920.5 352.088867188 920.5 297 c 0
 920.5 178.055664062 1169.5 241.248046875 1169.5 84 c 0
 1169.5 59.833984375 1162.609375 -15 1130.5 -15 c 0
 1026.80371094 -15 941.0703125 81 866.5 81 c 0
 721.729492188 81 579.765625 60 437.5 60 c 0
 276.87109375 60 56.5 129.922851562 56.5 324 c 0
 56.5 501.970703125 131.84375 750 329.5 750 c 0
 379.043945312 750 509.5 767.462890625 509.5 690 c 0
 509.5 528.747070312 293.5 513.96484375 293.5 309 c 0
 293.5 268.1796875 303.971679688 195 356.5 195 c 0
 434.809570312 195 686.5 193.891601562 686.5 327 c 0
 686.5 406.310546875 566.5 404.083984375 566.5 501 c 0
 566.5 544.288085938 584.75 558 629.5 558 c 0
 657.178710938 558 755.341796875 444.83984375 782.5 444 c 0
 820.5 443 890.5 449 872.5 483 c 0
 841.5 543 719.5 564 719.5 564 c 1xf7ff80
844.07421875 539.254882812 m 1
 861.254882812 528.235351562 879.859375 512.32421875 890.22265625 492.267578125 c 0
 903.170898438 467.810546875 887.708984375 446.220703125 871.194335938 437.715820312 c 0
 845.063476562 424.258789062 807.200195312 423.341796875 781.974609375 424.005859375 c 0xf7ff80
 737.578125 425.37890625 650.231445312 530.0546875 628.465820312 537.999023438 c 1
 591.439453125 537.61328125 586.500976562 533.830078125 586.500976562 501 c 0
 586.500976562 424.094726562 706.500976562 430.598632812 706.500976562 327 c 0
 706.500976562 166.153320312 424.294921875 175 356.500976562 175 c 0
 280.640625 175 273.500976562 272.215820312 273.500976562 309 c 0
 273.500976562 531.27734375 489.500976562 550.912109375 489.500976562 689.999023438 c 0
 489.500976562 721.176757812 451.59765625 731.740234375 392.301757812 731.685546875 c 0
 368.592773438 731.6640625 346.094726562 730 329.5 730 c 0
 152.469726562 730 76.5 501.891601562 76.5 324 c 0
 76.5 149.385742188 277.983398438 80 437.5 80 c 0
 577.791992188 80 719.790039062 101 866.5 101 c 0
 956.52734375 101 1036.34082031 5.6005859375 1130.4296875 4.9970703125 c 1
 1138.20605469 9.4228515625 1149.5 60.306640625 1149.5 84 c 0
 1149.5 216.9375 900.5 147.360351562 900.5 297 c 0
 900.5 364.408203125 969.828125 434 1040.5 434 c 2
 1085.5 434 l 2
 1146.36523438 434 1155.5 465.461914062 1155.5 528 c 0
 1155.5 620.90625 1066.359375 700 974.5 700 c 0
 901.09375 700 957.98828125 574.041015625 844.07421875 539.254882812 c 1
EndSplineSet
EndChar

StartChar: A
Encoding: 65 65 34
Width: 981
Flags: MW
HStem: 90 20 120 20 216 20 354 20.1182 442 20<703.585 721.828> 562 20<130.911 227.539> 645 20 654 20 769 20<522.111 661.055>
VStem: 50.666 20 101.666 20 242.666 20 275.666 20 408.666 20<310.7 333> 758.666 20 882.643 20.0226 906.666 20<500.655 628.014>
LayerCount: 2
Fore
SplineSet
560.666015625 555 m 1xfeff80
 629.666015625 507 l 1
 677.666015625 465 l 1
 693.979492188 463.470703125 696.50390625 462 710.666015625 462 c 0
 732.990234375 462 758.666015625 473.255859375 758.666015625 498 c 0
 758.666015625 614.967773438 523.23828125 654 443.666015625 654 c 0xfdff80
 408.051757812 654 375.938476562 645 341.666015625 645 c 0
 317.0859375 645 275.666015625 634.611328125 275.666015625 669 c 0
 275.666015625 789.782226562 483.555664062 789 560.666015625 789 c 0
 761.443359375 789 926.666015625 743.02734375 926.666015625 513 c 0
 926.666015625 488.310546875 941.446289062 354 911.666015625 354 c 0
 834.4296875 354 766.446289062 405.303710938 683.666015625 387 c 0
 607.47265625 370.15234375 452.049804688 429.93359375 428.666015625 333 c 1
 428.666015625 288.399414062 481.344726562 315.158203125 515.666015625 309 c 0
 627.178710938 288.9921875 868.162109375 365.891601562 902.666015625 213 c 1
 902.666015625 182.393554688 891.120117188 120 854.666015625 120 c 0
 756.391601562 120 700.462890625 216 599.666015625 216 c 0
 481.65625 216 392.737304688 90 245.666015625 90 c 0
 204.282226562 90 50.666015625 72.9482421875 50.666015625 129 c 0
 50.666015625 195.345703125 242.666015625 221.583007812 242.666015625 312 c 0
 242.666015625 392.98828125 101.666015625 373.600585938 101.666015625 435 c 0
 101.666015625 477.618164062 100.15625 582 161.666015625 582 c 0
 293.411132812 582 431.734375 585.15234375 560.666015625 555 c 1xfeff80
552.407226562 536.381835938 m 1
 429.477539062 564.461914062 292.325195312 561.999023438 161.666992188 561.999023438 c 0
 127.194335938 561.999023438 121.666992188 487.865234375 121.666992188 434.999023438 c 0
 121.666992188 403.69140625 262.666992188 417.12109375 262.666992188 312 c 0
 262.666992188 198.657226562 70.6669921875 166.805664062 70.6669921875 129 c 0
 70.6669921875 120.524414062 101.83203125 107.545898438 165.06640625 107.560546875 c 0
 197.61328125 107.568359375 228.424804688 110.000976562 245.666015625 110.000976562 c 0
 380.87890625 110.000976562 466.905273438 236.000976562 599.665039062 236.000976562 c 0
 714.330078125 236.000976562 770.6171875 140.000976562 854.665039062 140.000976562 c 0
 865.934570312 140.000976562 881.829101562 174.814453125 882.642578125 210.782226562 c 1
 851.129882812 338.314453125 643.294921875 265.782226562 512.1328125 289.315429688 c 0
 498.889648438 291.69140625 448.381835938 271.694335938 420.915039062 299.154296875 c 0
 412.001953125 308.065429688 408.665039062 320.447265625 408.665039062 333.000976562 c 2
 408.665039062 335.37890625 l 1
 437.961914062 456.823242188 622.869140625 394.041015625 679.346679688 406.529296875 c 0
 769.087890625 426.372070312 840.505859375 376.620117188 905.565429688 374.119140625 c 1
 913.9921875 399.975585938 906.665039062 490.666992188 906.665039062 513.000976562 c 0
 906.665039062 726.712890625 760.053710938 769.000976562 560.665039062 769.000976562 c 0
 473.693359375 769.000976562 295.665039062 762.825195312 295.665039062 669.000976562 c 0
 295.665039062 666.885742188 295.95703125 665.8359375 296.081054688 665.482421875 c 0
 299.591796875 663.43359375 319.868164062 665.000976562 341.665039062 665.000976562 c 0xfeff80
 372.334960938 665.000976562 404.5859375 674.000976562 443.665039062 674.000976562 c 0
 518.370117188 674.000976562 778.665039062 640.953125 778.665039062 498.000976562 c 0
 778.665039062 455.366210938 736.4140625 442.000976562 710.665039062 442.000976562 c 0
 693.002929688 442.000976562 685.923828125 444.138671875 669.361328125 445.69140625 c 1
 617.33203125 491.216796875 l 1
 552.407226562 536.381835938 l 1
EndSplineSet
EndChar

StartChar: B
Encoding: 66 66 35
Width: 886
Flags: MW
HStem: 156 20 396 20<751.184 784.621 747.762 793.768> 670 20<71 125 125 125> 741 20 754 20<461 487.585>
VStem: 95 20<208.814 245.808 208.814 260.473> 374 20<362.952 463.654> 405 20<595.599 683.293> 465.025 19.9746 510 20<409.805 482.625> 680 20<427.9 455.46 427.9 467.324> 779 20<533.247 567.519 521.876 575.066> 819 20<473.098 511.485>
LayerCount: 2
Fore
SplineSet
125 690 m 1xf7f8
 146 693 l 1
 140.393554688 701.17578125 199.615234375 708.973632812 209 708 c 0
 287.904296875 699.814453125 328.266601562 814.124023438 416 777 c 0
 428.9765625 770.359375 445.125976562 775.584960938 461 774 c 0xeff8
 514.169921875 774 587.930664062 846.375 659 852 c 0
 754.743164062 859.578125 847.012695312 758.823242188 809 663 c 1
 809 599.448242188 839 549.307617188 839 495 c 0
 839 449.258789062 820.536132812 396 767 396 c 0
 735.368164062 396 680 393.46484375 680 438 c 0
 680 496.647460938 779 502.493164062 779 564 c 0
 779 586.131835938 764.998046875 741 746 741 c 0
 695.237304688 741 425 721.586914062 425 645 c 0
 425 546.198242188 530 530.249023438 530 435 c 0
 530 384.609375 487.791992188 349.352539062 485 294 c 0
 481.90625 232.66796875 468.451171875 119.606445312 383 156 c 1
 347.57421875 156 95 128.724609375 95 228 c 0
 95 292.946289062 374 329.904296875 374 396 c 0
 374 531.307617188 47 640.073242188 47 648 c 0
 47 661.462890625 53.189453125 690 71 690 c 2
 125 690 l 1xf7f8
796.482421875 602.258789062 m 1
 798.094726562 584.455078125 799 571.037109375 799 564 c 0
 799 479.752929688 700 472.919921875 700 438 c 0
 700 417.80078125 728.5234375 416 767 416 c 0
 802.2421875 416 819 451.196289062 819 495 c 0
 819 527.969726562 806.393554688 558.650390625 796.482421875 602.258789062 c 1
387.08203125 176.000976562 m 1
 421.311523438 161.422851562 435.295898438 169.360351562 448.198242188 200.096679688 c 0
 459.424804688 226.841796875 463.581054688 266.431640625 465.022460938 295.010742188 c 0
 468.354492188 361.063476562 509.997070312 396.325195312 509.997070312 435.002929688 c 0
 509.997070312 511.8515625 404.997070312 528.494140625 404.997070312 645.001953125 c 0
 404.997070312 752.751953125 706.670898438 761.001953125 745.997070312 761.001953125 c 0xf7f8
 784.638671875 761.001953125 784.791992188 695.530273438 788.971679688 666.759765625 c 1
 814.196289062 730.345703125 776.969726562 798.650390625 713.1640625 823.807617188 c 0
 616.892578125 861.765625 550.989257812 754.001953125 460.998046875 754.001953125 c 2
 460.001953125 754.001953125 l 2
 449.485351562 755.051757812 431.817382812 747.50390625 407.514648438 758.872070312 c 0
 334.241210938 788.977539062 315.184570312 678.203125 207.130859375 688.083007812 c 0
 204.922851562 688.124023438 191.318359375 687.094726562 176.15625 684.387695312 c 1
 180.704101562 677.755859375 l 1
 126.420898438 670.000976562 l 1
 72.779296875 670.000976562 l 2
 71.48046875 668.122070312 69.810546875 664.721679688 68.4287109375 659.056640625 c 1
 123.0078125 634.604492188 394 536.33203125 394 396.000976562 c 0
 394 301.297851562 115 263.614257812 115 228.000976562 c 0
 115 189.626953125 193.357421875 172.469726562 285.35546875 172.572265625 c 0
 330.541992188 172.622070312 368.33984375 176.000976562 383 176.000976562 c 2
 387.08203125 176.000976562 l 1
EndSplineSet
EndChar

StartChar: C
Encoding: 67 67 36
Width: 696
Flags: MW
HStem: 192 18.8296 291 20<439.502 483.37> 505 20<238.5 253.587 232.239 253.916> 537.991 20.009 730 20<443.765 479.78>
VStem: 46.5 20<509.577 555.474 509.577 569.325> 155.5 20<530.469 545.376 530.469 545.376> 187.5 20<228.336 265.807 228.336 274.597> 262.5 20<369.245 429.729> 421.5 20 469.5 19.9839 497.5 20<416.132 469.511 416.132 480.032> 617.5 20<319.693 352.802> 629.5 20<580.811 632.181>
LayerCount: 2
Fore
SplineSet
280.5 624 m 1xfff8
 313.5 621 l 1
 317.782226562 616.00390625 325.5 615.485351562 325.5 606 c 0
 325.5 584.276367188 294.592773438 581.076171875 277.5 576 c 0
 243.883789062 566.016601562 192.736328125 569.7421875 175.5 540 c 1
 175.5 520.9375 225.978515625 525 238.5 525 c 0
 268.673828125 525 306.193359375 558 322.5 558 c 0
 358.908203125 558 392.141601562 499.591796875 376.5 462 c 0
 333.137695312 357.78515625 488.5546875 419.947265625 469.5 495 c 1
 469.5 561.311523438 421.5 633.745117188 421.5 708 c 0
 421.5 726.340820312 422.115234375 750 445.5 750 c 0
 518.799804688 750 649.5 683.787109375 649.5 600 c 0xfff4
 649.5 537.194335938 517.5 507.022460938 517.5 432 c 0
 517.5 400.263671875 637.5 395.9375 637.5 330 c 0
 637.5 264.34375 574.5 121.293945312 574.5 102 c 1
 574.5 140.107421875 586.5 175.448242188 586.5 213 c 0
 586.5 239.439453125 494.240234375 291 472.5 291 c 0
 406.50390625 291 365.826171875 192 295.5 192 c 0
 223.509765625 192 187.5 177.708984375 187.5 249 c 0
 187.5 300.193359375 262.5 342.490234375 262.5 396 c 0
 262.5 463.458007812 46.5 459.624023438 46.5 531 c 0
 46.5 607.650390625 211.405273438 608.399414062 280.5 624 c 1xfff8
445.5 730 m 0
 442.030273438 730 441.500976562 719.141601562 441.500976562 708.000976562 c 0
 441.500976562 642.280273438 488.008789062 573.37890625 489.485351562 497.375976562 c 1
 501.7421875 440.5546875 446.715820312 396.8984375 407.276367188 388.474609375 c 0
 392.897460938 385.403320312 374.625 385.45703125 361.173828125 398.587890625 c 0
 343.524414062 415.817382812 346.603515625 442.2109375 358.03515625 469.684570312 c 0
 366.416015625 489.826171875 348.088867188 536.897460938 323.016601562 537.9921875 c 0
 322.13671875 537.758789062 318.15625 536.251953125 313.384765625 533.797851562 c 0
 296.829101562 525.282226562 269.331054688 505 238.5 505 c 1
 238.5 505 155.5 489.69140625 155.5 540 c 2
 155.5 545.375976562 l 1
 158.196289062 550.02734375 l 2
 183.264648438 593.284179688 247.697265625 588.01171875 271.806640625 595.171875 c 0
 280.40234375 597.724609375 290.20703125 599.5 297.956054688 602.330078125 c 2
 281.764648438 603.801757812 l 1
 196.258789062 585.916992188 66.5 579.94921875 66.5 530.999023438 c 0
 66.5 488.155273438 282.5 492.930664062 282.5 395.999023438 c 0
 282.5 325.583007812 207.5 282.614257812 207.5 248.999023438 c 0
 207.5 207.673828125 211.772460938 210.807617188 242.7109375 210.829101562 c 0
 256.362304688 210.838867188 274.250976562 212 295.5 212 c 0
 347.751953125 212 387.36328125 311 472.5 311 c 0
 503.16015625 311 571.63671875 272.546875 597.609375 237.268554688 c 1
 608.54296875 272.334960938 617.5 309.38671875 617.5 330 c 0xfff8
 617.5 375.604492188 497.5 366.599609375 497.5 432 c 0
 497.5 528.064453125 629.5 561.62109375 629.5 600 c 0
 629.5 664.362304688 514.060546875 730 445.5 730 c 0
EndSplineSet
EndChar

StartChar: D
Encoding: 68 68 37
Width: 747
Flags: MW
HStem: 222 20 589.001 20 661 20<162.255 215.566> 685 20G<409.5 415.5 415.5 429.077> 733 20<572.334 634.047>
VStem: 43.5 20 133.5 20 383.5 20<501 520.214> 394.5 20 665.5 20<147.801 337.554>
LayerCount: 2
Fore
SplineSet
388.5 687 m 1xfec0
 409.5 705 l 1
 415.5 705 l 2
 442.654296875 705 452.225585938 683.619140625 448.5 657 c 0
 445.383789062 634.735351562 450.02734375 605.306640625 475.5 609 c 0
 558.291992188 609 516.16796875 753 628.5 753 c 0
 639.59375 753 703.5 758.07421875 703.5 741 c 0
 703.5 590.075195312 403.5 539.427734375 403.5 501 c 1xff40
 403.5 501 685.5 435.107421875 685.5 240 c 0
 685.5 55.6015625 588.2578125 222 441.5 222 c 0
 368.861328125 222 43.5 39.419921875 43.5 168 c 0
 43.5 271.077148438 394.5 269.799804688 394.5 381 c 0
 394.5 459.743164062 133.5 468.115234375 133.5 615 c 0
 133.5 648.423828125 143.010742188 681 181.5 681 c 0
 249.631835938 681 322.50390625 704 388.5 687 c 1xfec0
393.603515625 665.032226562 m 1
 383.510742188 667.630859375 l 2
 324.796875 682.754882812 254.389648438 660.999023438 181.499023438 660.999023438 c 0
 160.583984375 660.999023438 153.499023438 647.24609375 153.499023438 614.999023438 c 0
 153.499023438 488.806640625 414.499023438 492.220703125 414.499023438 380.999023438 c 0xfec0
 414.499023438 241.282226562 63.4990234375 241.303710938 63.4990234375 167.998046875 c 0
 63.4990234375 148.353515625 70.41015625 142.123046875 99.51953125 142.130859375 c 0
 187.72265625 142.155273438 375.529296875 241.998046875 441.499023438 241.998046875 c 0
 623.737304688 241.998046875 665.499023438 79.5048828125 665.499023438 239.998046875 c 0
 665.499023438 413.953125 404.715820312 480.166992188 398.934570312 481.526367188 c 2
 383.499023438 485.14453125 l 1
 383.499023438 500.998046875 l 2
 383.499023438 571.594726562 670.615234375 609.499023438 683.060546875 732.001953125 c 1
 667.643554688 734.63671875 637.579101562 732.998046875 628.5 732.998046875 c 0
 536.970703125 732.998046875 590.681640625 592.168945312 476.776367188 588.999023438 c 0
 470.623046875 588.29296875 459.114257812 589.3984375 451.421875 593.696289062 c 0
 428.349609375 606.588867188 424.833007812 632.194335938 428.692382812 659.771484375 c 0
 431.624023438 680.71484375 426.526367188 684.39453125 416.865234375 684.970703125 c 1
 393.603515625 665.032226562 l 1
EndSplineSet
EndChar

StartChar: E
Encoding: 69 69 38
Width: 894
Flags: MW
HStem: -186 20 -75.2646 20 579 20
VStem: 123 20<490.717 557.899 490.717 566.674> 166 20<555 562.507> 249 20<-133.333 -46.1353> 487 20<-69.126 -31.748> 513 20<163.33 331.008> 555 20<841.247 873.72 830.795 880.91> 730 20<11.6548 66.9375 42 195> 834.994 20.0057
LayerCount: 2
Fore
SplineSet
213 -135 m 1
 249 -120 l 1
 249 27.7294921875 513 77.6591796875 513 249 c 0
 513 413.016601562 123 421.547851562 123 528 c 0
 123 605.348632812 246.760742188 623.609375 297 681 c 0
 336.801757812 726.466796875 555 809.494140625 555 873 c 0
 555 888.819335938 440.6875 893.895507812 450 897 c 0
 579 940 855 801.883789062 855 753 c 0
 855 635.309570312 560.184570312 579 480 579 c 2
 408 579 l 2
 390.788085938 579 186 570.013671875 186 555 c 1
 431.724609375 587.75 729.177734375 469.025390625 750 195 c 0
 753.89453125 143.750976562 750 91.875 750 42 c 0
 750 -18.6904296875 507 -18.49609375 507 -45 c 0
 507 -93.251953125 549.594726562 -77.5859375 444.948242188 -75.2646484375 c 1
 482.01171875 -79.4345703125 651 -131.962890625 651 -171 c 1
 615.465820312 -200.521484375 539.098632812 -175.299804688 492 -186 c 0
 434.672851562 -199.024414062 401.530273438 -140.651367188 351 -144 c 0
 296.0234375 -147.643554688 273.875 -186 216 -186 c 0
 118.084960938 -186 39 -171.732421875 39 -75 c 0
 39 -64.90625 45.7060546875 -69 57 -69 c 0
 73.6787109375 -69 81.716796875 -74.2060546875 99 -78 c 1
 168 -129 l 1
 213 -135 l 1
215.708984375 -155.538085938 m 1
 160.25390625 -148.145507812 l 1
 90.4326171875 -96.5380859375 l 1
 74.8916015625 -92.583984375 69.373046875 -89.6416015625 59.6923828125 -89.0625 c 1
 66.4208984375 -152.646484375 121.271484375 -166.001953125 216.001953125 -166.001953125 c 0
 263.299804688 -166.001953125 283.209960938 -128.451171875 349.678710938 -124.045898438 c 0
 419.4921875 -119.418945312 444.032226562 -176.390625 487.5703125 -166.499023438 c 0
 533.482421875 -156.068359375 589.60546875 -170.952148438 621.987304688 -163.111328125 c 1
 585.693359375 -134.98046875 467.783203125 -97.9609375 442.713867188 -95.140625 c 1
 445.393554688 -55.2705078125 l 1
 463.422851562 -55.6708984375 476.83203125 -56.4326171875 487.786132812 -57.2685546875 c 1
 487.360351562 -53.8291015625 487.000976562 -49.376953125 487.000976562 -45.001953125 c 0
 487.000976562 16.822265625 730.000976562 8.533203125 730.000976562 41.998046875 c 0
 730.000976562 92.9072265625 733.80078125 144.236328125 730.05859375 193.483398438 c 0
 710.750976562 447.576171875 435.741210938 568.107421875 188.643554688 535.174804688 c 2
 166.000976562 532.157226562 l 1
 166.000976562 555 l 2
 166.000976562 605.458984375 408.000976562 599.000976562 408.000976562 599.000976562 c 1
 480.000976562 599.000976562 l 2
 564.512695312 599.000976562 833.098632812 661.830078125 834.994140625 752.201171875 c 1
 825.419921875 775.243164062 695.434570312 853.887695312 574.569335938 877.893554688 c 1
 574.572265625 877.873046875 575 874.440429688 575 873 c 0
 575 788.590820312 339.368164062 699.03515625 312.048828125 667.827148438 c 0
 248.987304688 595.7890625 143 587.796875 143 528.000976562 c 0
 143 453.432617188 533 437.444335938 533 249.000976562 c 0
 533 57.201171875 269 4.4140625 269 -120 c 2
 269 -133.333007812 l 1
 215.708984375 -155.538085938 l 1
EndSplineSet
EndChar

StartChar: F
Encoding: 70 70 39
Width: 1410
Flags: MW
HStem: 78 18.9655 255 20 466 20<706.679 794.169> 567 20 598 20<834 1029 1029 1029> 631.215 19.7854
VStem: 541 20<449.653 476.754> 1068 20 1164 20 1345 20<201.602 372.519>
LayerCount: 2
Fore
SplineSet
1029 618 m 1
 1032 627 l 1
 1060.92871094 649.529296875 1088.84082031 656.782226562 1128 651 c 0
 1182.79589844 642.908203125 1278.52832031 673.063476562 1308 621 c 1
 1308 601.162109375 1267.32128906 567 1248 567 c 2
 1224 567 l 2
 1121.37207031 567 561 509.5078125 561 444 c 1
 561 455.306640625 693.357421875 486 720 486 c 0
 868.338867188 486 1365 499.037109375 1365 246 c 0
 1365 157.203125 1260.83203125 78 1176 78 c 0
 1145.8359375 78 1068 67.8701171875 1068 111 c 0
 1068 167.76953125 1164 194.01171875 1164 237 c 0
 1164 292.82421875 957.780273438 254.4453125 918 255 c 0
 618.516601562 259.176757812 185.966796875 214.65234375 45 483 c 1
 45 634.1328125 747.143554688 618 834 618 c 0
 884.078125 618 984.608398438 640.407226562 1029 618 c 1
576.674804688 431.668945312 m 1
 576.674804688 431.668945312 541.8984375 444.440429688 541.001953125 443.998046875 c 1
 541.001953125 479.884765625 586.719726562 492.848632812 625.060546875 504.481445312 c 0
 783.022460938 552.407226562 1140.53613281 586.998046875 1224.00097656 586.998046875 c 2
 1247.88867188 586.998046875 l 2
 1253.01953125 587.706054688 1277.23339844 603.256835938 1286.04394531 617.340820312 c 1
 1261.51953125 643.001953125 1188.09179688 621.90625 1125.078125 631.211914062 c 0
 1092.18261719 636.069335938 1072.51074219 631.48046875 1048.99511719 614.737304688 c 1
 1040.65332031 589.711914062 l 1
 1019.98730469 600.143554688 l 2
 986.553710938 617.01953125 889.274414062 597.998046875 833.999023438 597.998046875 c 0
 735.05859375 597.998046875 83.7900390625 600.63671875 65.345703125 487.375976562 c 1
 200.67578125 240.892578125 613.873046875 279.241210938 918.278320312 274.99609375 c 1
 918.278320312 274.99609375 1183.99902344 326.533203125 1183.99902344 236.998046875 c 0
 1183.99902344 169.193359375 1087.99902344 147.955078125 1087.99902344 110.998046875 c 0
 1087.99902344 104.618164062 1099.1640625 96.9208984375 1136.93066406 96.9638671875 c 0
 1151.27832031 96.98046875 1165.17773438 97.9990234375 1175.99902344 97.9990234375 c 0
 1251.82421875 97.9990234375 1344.99902344 172 1344.99902344 245.999023438 c 0
 1344.99902344 448.454101562 965.907226562 466.122070312 769.776367188 466.11328125 c 0
 750.697265625 466.112304688 733.909179688 465.999023438 720 465.999023438 c 0
 703.599609375 465.999023438 600.139648438 442.934570312 576.674804688 431.668945312 c 1
EndSplineSet
EndChar

StartChar: G
Encoding: 71 71 40
Width: 637
Flags: MW
HStem: 195 21G<457.382 485> 442 20<257 272 257 272 246.587 272> 499 20<373.182 408.988 373.182 413.074> 525.996 20 564.995 20.005
VStem: 158 20<448.577 486.837> 290 20<477 477.001 477.001 498 498 498.001> 417 20<459.443 482.568>
LayerCount: 2
Fore
SplineSet
215 522 m 1
 257 462 l 1
 272 462 l 2
 281.450195312 462 290 465.447265625 290 477 c 2
 290 498 l 2
 290 527.375 323.915039062 558 353 558 c 0
 379.338867188 558 360.36328125 519 386 519 c 0
 431.975585938 519 448.420898438 585 476 585 c 0
 488.096679688 585 521 577.860351562 521 564 c 0
 521 517.45703125 437 497.135742188 437 468 c 0
 437 450.885742188 460.245117188 449.009765625 479 453 c 0
 553.805664062 468.916015625 566.954101562 404.221679688 590 354 c 1
 590 340.1328125 558.11328125 300.750976562 548 291 c 0
 520.772460938 264.748046875 521.484375 210.932617188 485 195 c 1
 429.763671875 195 351.670898438 304.595703125 311 288 c 0
 183.287109375 235.887695312 130.58984375 340.87109375 47 390 c 1
 47 434.509765625 158 426.153320312 158 471 c 0
 158 502.673828125 83 489.252929688 83 537 c 0
 83 550.397460938 95.2919921875 546 107 546 c 0
 142.897460938 546 177.38671875 526.80078125 215 522 c 1
203.5078125 503.541992188 m 1
 167.065429688 510.109375 135.41015625 525.473632812 107.962890625 525.995117188 c 1
 111.1015625 523.45703125 178 514.446289062 178 470.998046875 c 0
 178 415.096679688 88.6787109375 406.866210938 73.1181640625 397.04296875 c 1
 155.33203125 340.56640625 196.735351562 262.974609375 303.443359375 306.515625 c 0
 360.033203125 329.607421875 447.905273438 221.038085938 480.788085938 215.352539062 c 1
 499.022460938 227.212890625 498.510742188 271.063476562 534.118164062 305.395507812 c 0
 540.026367188 311.092773438 562.30859375 338.615234375 568.853515625 352.298828125 c 1
 545.038085938 407.194335938 537.0625 444.904296875 483.161132812 433.436523438 c 0
 468.594726562 430.337890625 416.999023438 424.766601562 416.999023438 467.999023438 c 0
 416.999023438 516.188476562 494.918945312 540.280273438 500.348632812 559.178710938 c 1
 494.310546875 562.015625 481.50390625 564.8046875 476.401367188 564.994140625 c 0
 473.045898438 563.338867188 440.147460938 499 386 499 c 0
 353.840820312 499 350.637695312 532.165039062 349.5625 537.749023438 c 1
 331.369140625 535.018554688 310 512.77734375 310 498.000976562 c 2
 310 477.000976562 l 2
 310 467.197265625 306.029296875 457.033203125 298.344726562 450.571289062 c 0
 289.44140625 443.083984375 279.467773438 442 272 442 c 2
 246.586914062 442 l 1
 203.5078125 503.541992188 l 1
EndSplineSet
EndChar

StartChar: H
Encoding: 72 72 41
Width: 983
Flags: MW
HStem: 114 20 159 20 213 20 328 20<287.2 346.941> 472 20<715.152 744.874> 487 20<795.587 835.958> 634 20<551.952 601.166> 655.001 20 730.22 19.78
VStem: 50.5 20.0017 467.5 19.9371 675.5 20<569.23 630.603> 879.5 20<665.75 739.897> 912.5 20<383.254 443.34>
LayerCount: 2
Fore
SplineSet
446.5 594 m 1xf7fc
 458.5 615 l 2
 461.219726562 625.576171875 467.5 635.130859375 467.5 651 c 0
 467.5 658.555664062 482.811523438 675 497.5 675 c 0
 515.381835938 675 537.404296875 654 566.5 654 c 0
 635.831054688 654 626.731445312 762.529296875 710.5 750 c 0
 768.112304688 741.3828125 899.5 780.793945312 899.5 699 c 0
 899.5 632.500976562 695.5 679.206054688 695.5 582 c 0
 695.5 556.4609375 695.803710938 492 734.5 492 c 0xfbfc
 755.248046875 492 781.674804688 507 809.5 507 c 0
 862.416992188 507 932.5 475.680664062 932.5 411 c 0
 932.5 355.5078125 844.538085938 159 794.5 159 c 0
 709.500976562 159 650.693359375 213 557.5 213 c 0
 463.783203125 213 426.361328125 114 356.5 114 c 0
 278.82421875 114 50.5 135.663085938 50.5 234 c 0
 50.5 248.166015625 100.953125 504 137.5 504 c 0
 205.58203125 504 238.899414062 348 335.5 348 c 0
 358.381835938 348 509.5 420 509.5 420 c 1
 509.5 420 201.020507812 633.84375 239.5 630 c 0
 290.224609375 624.932617188 414.209960938 629.731445312 446.5 594 c 1xf7fc
450.168945312 560.110351562 m 1
 431.659179688 580.59375 l 2
 417.099609375 596.705078125 347.771484375 604.734375 286.62109375 607.3359375 c 1
 360.44921875 547.85546875 520.893554688 436.439453125 520.893554688 436.439453125 c 1
 549.247070312 416.78125 l 1
 518.09765625 401.946289062 l 2
 516.97265625 401.41015625 371.77734375 328.002929688 335.498046875 328.002929688 c 0
 226.588867188 328.002929688 178.706054688 477.500976562 141.286132812 483.70703125 c 1
 116.025390625 452.333984375 72.5458984375 254.09765625 70.5009765625 233.596679688 c 0
 71.33203125 164.265625 269.662109375 134.000976562 356.498046875 134.000976562 c 0
 406.54296875 134.000976562 448.900390625 233.000976562 557.498046875 233.000976562 c 0
 659.448242188 233.000976562 717.338867188 179.396484375 794.459960938 178.999023438 c 0
 820.583007812 181.559570312 912.499023438 358.526367188 912.499023438 411.000976562 c 0
 912.499023438 458.146484375 858.290039062 487.000976562 809.499023438 487.000976562 c 0xf7fc
 788.124023438 487.000976562 764.141601562 472.000976562 734.498046875 472.000976562 c 0
 669.231445312 472.000976562 675.498046875 565.788085938 675.498046875 582.000976562 c 0
 675.498046875 705.28125 879.498046875 665.755859375 879.498046875 699.000976562 c 0
 879.498046875 724.713867188 861.42578125 732.240234375 815.036132812 732.125976562 c 0
 779.5234375 732.038085938 738.794921875 725.545898438 707.540039062 730.220703125 c 0
 640.873046875 740.192382812 666.380859375 634.000976562 566.499023438 634.000976562 c 0
 529.3359375 634.000976562 501.909179688 654.86328125 497.51953125 655.001953125 c 0
 497.12890625 654.982421875 490.76953125 652.198242188 487.436523438 647.833984375 c 0
 486.6171875 628.658203125 479.044921875 614.591796875 477.19921875 607.4140625 c 2
 450.168945312 560.110351562 l 1
EndSplineSet
EndChar

StartChar: I
Encoding: 73 73 42
Width: 945
Flags: MW
HStem: 406 20<546.588 615.63> 541 20<760.217 819.747> 660 20.1234 667 20<372.982 431.146> 681 19.9931 694 20<108.476 133.994> 730 20<594.587 662.012>
VStem: 45 20 210 20 246 20 357 20 445 20<537.662 609.699> 700 20<218.174 286.643> 754 20<690.906 726.68> 829 20<87.0596 129.486> 880 20<425.014 507.758>
LayerCount: 2
Fore
SplineSet
207 708 m 2xc7ff
 273 711 l 1
 307.147460938 704.11328125 352.96484375 687 393 687 c 0xd7ff
 469.291015625 687 547.174804688 750 642 750 c 0
 682.0234375 750 774 757.359375 774 696 c 0
 774 685.811523438 775.833007812 660 759 660 c 0
 714.326171875 660 672.471679688 682.1953125 627 681 c 0xebff
 563.500976562 679.331054688 465 646.3984375 465 573 c 0
 465 502.32421875 511.17578125 426 582 426 c 0
 649.260742188 426 719.434570312 561 801 561 c 0
 838.493164062 561 900 529.515625 900 486 c 0
 900 364.02734375 720 342.286132812 720 231 c 0
 720 205.348632812 849 156.971679688 849 102 c 0
 849 72.119140625 811.938476562 76.4892578125 789 78 c 0
 709.116210938 83.2626953125 632.252929688 47.55078125 555 54 c 0
 466.112304688 61.4208984375 308.666015625 24.38671875 261 102 c 1
 261 139.599609375 357 125.034179688 357 168 c 0
 357 247.325195312 210 256.40234375 210 330 c 0
 210 367.430664062 246 394.432617188 246 429 c 0
 246 544.529296875 45 604.78125 45 669 c 0
 45 711.7890625 90.9521484375 714 126 714 c 0
 141.98828125 714 190.18359375 708 207 708 c 2xc7ff
207.454101562 688 m 1
 206.998046875 688.002929688 l 2
 187.549804688 688.002929688 139.259765625 694.002929688 125.998046875 694.002929688 c 0xd7ff
 85.6923828125 694.002929688 64.998046875 689.645507812 64.998046875 669.002929688 c 0
 64.998046875 633.03515625 265.998046875 562.821289062 265.998046875 429.001953125 c 0
 265.998046875 380.506835938 229.998046875 354.524414062 229.998046875 330.001953125 c 0
 229.998046875 281.782226562 376.998046875 271.189453125 376.998046875 168.001953125 c 0
 376.998046875 113.701171875 295.39453125 109.73828125 284.372070312 103.946289062 c 1
 329.40625 54.205078125 462.701171875 81.77734375 556.662109375 73.9326171875 c 0
 626.758789062 68.0810546875 703.635742188 103.668945312 790.3125 97.958984375 c 0
 808.419921875 96.7666015625 826.073242188 97.654296875 828.734375 99.62109375 c 0
 828.774414062 99.75390625 828.998046875 100.4921875 828.998046875 102.001953125 c 0
 828.998046875 138.081054688 699.998046875 174.83203125 699.998046875 231.001953125 c 0
 699.998046875 365.155273438 879.998046875 385.048828125 879.998046875 486.000976562 c 0
 879.998046875 510.865234375 833.498046875 541.000976562 800.998046875 541.000976562 c 0
 737.287109375 541.000976562 670.166992188 406.000976562 581.998046875 406.000976562 c 0
 494.90625 406.000976562 444.998046875 496.432617188 444.998046875 573.000976562 c 0
 444.998046875 666.993164062 562.598632812 699.315429688 626.47265625 700.994140625 c 0
 676.342773438 702.3046875 715.989257812 681.981445312 753.5625 680.124023438 c 1xebff
 754.090820312 684.1953125 753.999023438 690.8359375 753.999023438 696.000976562 c 0
 753.999023438 730.616210938 694.362304688 730.000976562 641.999023438 730.000976562 c 0
 555.84765625 730.000976562 480.015625 667.000976562 392.999023438 667.000976562 c 0
 348.720703125 667.000976562 304.725585938 683.72265625 271.405273438 690.907226562 c 1
 207.454101562 688 l 1
EndSplineSet
EndChar

StartChar: J
Encoding: 74 74 43
Width: 982
Flags: MW
HStem: -9 20.0571 6 19.9886 81.8666 20.1334 109 20G<45.5 45.5> 118 20<450.623 480.803> 142.005 19.9946 252 20 312 20 460 20<522.5 603.5 522.5 603.5> 507 20 532.063 19.9371 700 20<359.564 474.027>
VStem: 219.5 20 403.5 20<200.044 210> 901.516 19.9836 916.5 20<467.114 503.268>
LayerCount: 2
Fore
SplineSet
891.5 528 m 1x77fe
 918.5 525 l 1
 926.764648438 510.306640625 936.5 514.536132812 936.5 492 c 0x77fd
 936.5 442.227539062 915.5 395.9609375 915.5 345 c 2
 915.5 369 l 2
 915.5 405.576171875 890.328125 423.944335938 870.5 450 c 0
 816.690429688 520.708007812 720.291992188 502.833984375 642.5 507 c 0
 607.678710938 507 534.791992188 480 522.5 480 c 2
 603.5 480 l 2
 654.762695312 480 855.5 419.215820312 855.5 354 c 0
 855.5 342.8671875 831.232421875 312 819.5 312 c 2
 783.5 312 l 2
 758.143554688 312 747.7109375 252 717.5 252 c 0
 680.677734375 252 631.37890625 253.368164062 603.5 279 c 0
 538.231445312 339.006835938 423.383789062 305.287109375 423.5 210 c 0
 423.5 190.087890625 438.745117188 138 462.5 138 c 0
 499.10546875 138 552.518554688 160.955078125 597.5 162 c 0
 719.5859375 164.834960938 894.860351562 175.569335938 921.5 18 c 0
 921.5 4.3876953125 926.375976562 -9 912.5 -9 c 0xaffe
 799.956054688 -9 688.44140625 9.8740234375 573.5 6 c 0
 392.4140625 -0.103515625 188.208007812 13.904296875 45.5 129 c 1
 45.5 129 107.397460938 102 111.5 102 c 0
 121.268554688 102 219.5 95.6806640625 219.5 123 c 0
 219.5 148.204101562 201.973632812 182.489257812 213.5 207 c 0
 251.241210938 287.255859375 137.038085938 305.584960938 111.5 366 c 1
 111.5 419.020507812 216.5 483.1328125 216.5 522 c 2
 216.5 555 l 2
 216.5 623.737304688 328.627929688 720 390.5 720 c 0
 557.5546875 720 708.790039062 552 843.5 552 c 1
 891.5 528 l 1x77fe
521.958007812 499.995117188 m 1
 535.014648438 501.815429688 608.401367188 526.997070312 642.50390625 526.997070312 c 2
 643.0390625 526.997070312 l 2
 714.666015625 523.161132812 823.9921875 544.141601562 886.419921875 462.109375 c 0
 893.256835938 453.125 899.91796875 446.205078125 909.029296875 435.114257812 c 1
 912.881835938 453.33984375 916.50390625 473.826171875 916.50390625 491.998046875 c 0x6ffd
 916.50390625 495.017578125 916.33984375 496.30859375 916.0546875 497.709960938 c 0
 915.362304688 498.377929688 912.510742188 500.34375 907.42578125 506.10546875 c 1
 885.75 508.513671875 l 1
 838.65625 532.060546875 l 1
 691.291015625 536.440429688 543.8984375 699.998046875 390.502929688 699.998046875 c 0
 340.396484375 699.998046875 236.502929688 608.788085938 236.502929688 554.998046875 c 2
 236.502929688 521.998046875 l 2
 236.502929688 465.163085938 137.813476562 405.08203125 131.827148438 369.802734375 c 1
 149.313476562 337.764648438 275.462890625 291.758789062 231.600585938 198.486328125 c 0
 225.432617188 185.369140625 239.501953125 158.170898438 239.501953125 122.997070312 c 0
 239.501953125 81.78515625 183.090820312 82.8427734375 163.243164062 81.8642578125 c 1
 285.921875 29.1220703125 435.282226562 21.3505859375 572.828125 25.986328125 c 0
 686.583984375 29.8203125 794.956054688 12.17578125 901.762695312 11.0546875 c 1
 901.711914062 11.8505859375 901.619140625 12.970703125 901.517578125 16.1884765625 c 0
 877.32421875 151.290039062 726.200195312 144.981445312 597.965820312 142.00390625 c 0
 558.543945312 141.087890625 506.184570312 117.998046875 462.500976562 117.998046875 c 0x6ffe
 413.84765625 117.998046875 403.500976562 191.629882812 403.500976562 209.998046875 c 0
 403.358398438 326.896484375 542.57421875 362.181640625 617.037109375 293.721679688 c 0
 636.993164062 275.374023438 680.1171875 271.999023438 717.500976562 271.999023438 c 0
 725.061523438 271.999023438 732.153320312 331.999023438 783.500976562 331.999023438 c 2
 816.741210938 331.999023438 l 2
 821.288085938 335.204101562 832.703125 348.92578125 835.432617188 355.2890625 c 0
 830.885742188 394.483398438 654.793945312 460 603.5 460 c 2
 522.5 460 l 1
 521.958007812 499.995117188 l 1
EndSplineSet
EndChar

StartChar: K
Encoding: 75 75 44
Width: 989
Flags: MW
HStem: 111 20 201 20 276 20 673.001 20
VStem: 85.251 20<311.129 360.515 311.129 365.221> 199.251 20.0062
LayerCount: 2
Fore
SplineSet
64.2509765625 636 m 1
 64.2509765625 636 -6.734375 690.842773438 109.250976562 654 c 0
 194.250976562 627 364.234375 693 496.250976562 693 c 0
 570.692382812 693 946.250976562 242.565429688 946.250976562 138 c 0
 946.250976562 105.788085938 716.040039062 111 691.250976562 111 c 0
 608.397460938 111 586.8828125 276 457.250976562 276 c 0
 370.740234375 276 299.6015625 201 220.250976562 201 c 0
 146.896484375 201 85.2509765625 269.955078125 85.2509765625 342 c 0
 85.2509765625 388.44140625 119.032226562 431.977539062 160.250976562 447 c 0
 175.5625 452.580078125 199.250976562 457.611328125 199.250976562 477 c 0
 200.443359375 502.25 171.68359375 516.091796875 166.250976562 540 c 0
 163.794921875 550.809570312 134.040039062 585.944335938 124.250976562 594 c 2
 73.2509765625 630 l 1
 64.2509765625 636 l 1
99.1220703125 636.21875 m 2
 136.387695312 609.9140625 l 2
 149.711914062 598.94921875 180.517578125 567.47265625 185.752929688 544.432617188 c 0
 187.77734375 535.524414062 219.913085938 517.944335938 219.256835938 476.220703125 c 0
 217.64453125 438.486328125 176.356445312 431.583984375 167.098632812 428.209960938 c 0
 133.5078125 415.967773438 105.250976562 379.029296875 105.250976562 342.000976562 c 0
 105.250976562 280.256835938 159.383789062 221.000976562 220.250976562 221.000976562 c 0
 287.266601562 221.000976562 359.389648438 296.000976562 457.250976562 296.000976562 c 0
 604.422851562 296.000976562 634.84375 131.000976562 691.250976562 131.000976562 c 0
 712.344726562 131.000976562 883.615234375 129.060546875 925.57421875 144.768554688 c 1
 905.529296875 256.178710938 551.77734375 669.561523438 496.212890625 673.001953125 c 0
 370.599609375 672.684570312 200.026367188 604.181640625 103.196289062 634.939453125 c 0
 101.658203125 635.427734375 101.51171875 635.474609375 99.1220703125 636.21875 c 2
EndSplineSet
EndChar

StartChar: L
Encoding: 76 76 45
Width: 953
Flags: MW
HStem: 15 20 106 20<466 619 619 626.287> 216 20.0256 240 20 252 20 294 20 445 20<393.41 443.181> 613 20<451.834 515.738> 669.964 21G 682 20<151.833 185.647> 801.991 20.0089
VStem: 43 20 199 19.9876 287 20<574.161 641.768> 356 20<300.251 322.019> 373 20 427 20 754 20 770 20<464.2 506.018> 803 20<313.035 349.232> 842 20<388.752 427.025> 889.968 20.0316
LayerCount: 2
Fore
SplineSet
328 693 m 1xf77edc
 340 717 l 2
 343.891601562 718.650390625 373 730.151367188 373 732 c 2
 373 756 l 2
 373 778.635742188 387.213867188 822 409 822 c 0
 444.263671875 822 631 783 631 783 c 1
 631 621.447265625 307 683.53515625 307 600 c 0
 307 548.322265625 362.819335938 465 424 465 c 0
 462.362304688 465 410.66796875 633 493 633 c 0
 538.4765625 633 874 637.8828125 874 612 c 0
 874 552.900390625 790 532.036132812 790 480 c 0xf77dbc
 790 448.400390625 862 452.05078125 862 402 c 0
 862 375.504882812 823 353.46484375 823 345 c 0
 823 281.069335938 910 204.030273438 910 129 c 0
 910 105.852539062 788.918945312 15 784 15 c 0
 732.673828125 15 436 12.3486328125 436 108 c 0
 436 119.411132812 458.375 126 466 126 c 2
 619 126 l 2
 633.573242188 126 754 115.940429688 754 150 c 0
 754 187.711914062 704.01171875 252 667 252 c 0xef7cdc
 645.002929688 252 645.444335938 216 625 216 c 0
 559.28515625 216 545.596679688 294 478 294 c 2
 433 294 l 2
 420.900390625 294 418 293.799804688 418 294 c 0
 418 307.903320312 427 319.971679688 427 333 c 1
 427 314.9609375 376 323.038085938 376 321 c 0
 376 279.501953125 309.192382812 240 271 240 c 0
 227.608398438 240 115 283.197265625 115 333 c 0
 115 358.180664062 201.546875 431.614257812 199 504 c 0
 196.02734375 588.489257812 43.6025390625 573.541015625 43 660 c 0
 43 717.263671875 134.665039062 702 169 702 c 0
 203.400390625 702 298.462890625 699.831054688 328 693 c 1xf77edc
409.552734375 341.8671875 m 2
 409.552734375 341.8671875 446.012695312 332.80859375 446.994140625 333.001953125 c 1
 446.994140625 325.427734375 445.63671875 320.287109375 443.682617188 314.001953125 c 1
 477.995117188 314.001953125 l 2
 562.087890625 314.001953125 578.108398438 237.834960938 623.118164062 236.02734375 c 0
 623.73828125 236.837890625 635.087890625 272.001953125 666.99609375 272.001953125 c 0
 720.502929688 272.001953125 773.99609375 197.420898438 773.99609375 150.001953125 c 0xef3edc
 773.99609375 87.787109375 660.693359375 106.001953125 618.99609375 106.001953125 c 2
 466.149414062 106.001953125 l 2
 465.296875 105.916992188 460.76953125 105.0625 456.487304688 103.110351562 c 1
 468.952148438 45.982421875 705.516601562 34.923828125 778.834960938 34.998046875 c 1
 797.940429688 47.599609375 878.4296875 111.815429688 889.966796875 131.321289062 c 1
 887.640625 192.315429688 802.998046875 267.1953125 802.998046875 345.000976562 c 0
 802.998046875 378.809570312 841.998046875 390.516601562 841.998046875 402.000976562 c 0
 841.998046875 431.78515625 769.998046875 418.26953125 769.998046875 480.000976562 c 0
 769.998046875 543.03515625 843.93359375 571.763671875 852.5859375 601.426757812 c 1
 791.532226562 615.318359375 531.817382812 613.000976562 492.998046875 613.000976562 c 0
 435.284179688 613.000976562 499.264648438 445.000976562 423.997070312 445.000976562 c 0
 346.522460938 445.000976562 286.997070312 539.904296875 286.997070312 600.000976562 c 0
 286.997070312 670.555664062 406.983398438 669.948242188 478.920898438 684.545898438 c 0
 548.948242188 698.755859375 600.669921875 720.431640625 609.58203125 766.993164062 c 1
 564.15234375 776.274414062 436.6484375 801.2890625 409.780273438 801.991210938 c 1
 403.955078125 797.764648438 392.997070312 770.900390625 392.997070312 756 c 2
 392.997070312 732 l 2
 392.997070312 701.950195312 357.016601562 702.354492188 354.524414062 701.333007812 c 2
 338.840820312 669.96484375 l 1xefbdbc
 323.491210938 673.514648438 l 2
 298.952148438 679.189453125 202.295898438 682 168.998046875 682 c 0
 119.3984375 682 62.998046875 689.0625 62.998046875 660.069335938 c 0
 63.4296875 598.08984375 215.076171875 615.82421875 218.986328125 504.702148438 c 0
 221.7421875 426.379882812 141.157226562 349.336914062 135.0234375 332.19140625 c 1
 136.693359375 306.2734375 229.241210938 259.999023438 270.999023438 259.999023438 c 0
 303.030273438 259.999023438 355.999023438 298.064453125 355.999023438 320.999023438 c 0xf77e9c
 355.999023438 353.739257812 379.125 341.357421875 379.125 341.357421875 c 1
 387.303710938 341.270507812 399.999023438 340.203125 409.552734375 341.8671875 c 2
EndSplineSet
EndChar

StartChar: M
Encoding: 77 77 46
Width: 909
Flags: MW
HStem: 72 20 457 20<420 432.906> 799 20<575.831 627.041> 807.99 20.0096
VStem: 69 20<530.608 613.316 530.608 623.927> 321 20.03 373.496 19.5037 501 20<204.526 305.055> 531 20<673.595 724.642> 597 20<504.172 552.975> 646 20<546.118 628.139 546.118 638.735> 733 20<724.294 766.514> 844 20<254.839 400.044>
LayerCount: 2
Fore
SplineSet
321 665 m 0xeff8
 321.614257812 685.057617188 308.999023438 698.594726562 288 708 c 0
 269.837890625 716.134765625 236.301757812 734.008789062 216 747 c 0
 185.859375 766.287109375 129.264648438 764.98828125 126 807 c 0
 126 821.91796875 123.485351562 828 141 828 c 0xdff8
 358.934570312 828 279.184570312 769.272460938 384 642 c 0
 392.373046875 631.833007812 393.126953125 619.188476562 393 606 c 0
 393 592.596679688 390.018554688 577.134765625 393 564 c 0
 399.055664062 537.326171875 386.801757812 485.32421875 420 477 c 1
 445.811523438 477 597 483.344726562 597 525 c 0
 597 580.94921875 531 632.947265625 531 702 c 0
 531 747.284179688 545.661132812 819 606 819 c 0
 648.08203125 819 753 809.01953125 753 750 c 0
 753 681.071289062 666 656.27734375 666 600 c 0
 666 492.236328125 864 488.703125 864 330 c 0
 864 167.491210938 747.108398438 72 582 72 c 0
 532.3984375 72 45 40.974609375 45 153 c 0
 45 201.30859375 501 148.051757812 501 261 c 0
 501 349.109375 69 441.26171875 69 597 c 0
 69 650.853515625 127.41015625 660 174 660 c 1
 174 660 270.966796875 651.3984375 285 648 c 0
 316.276367188 640.42578125 318.317382812 652.932617188 321 665 c 0xeff8
314.55078125 715.82421875 m 1
 282.875 785.311523438 300.322265625 807.106445312 145.983398438 807.989257812 c 1
 148.803710938 784.974609375 182.153320312 792.40234375 226.780273438 763.845703125 c 0
 245.76171875 751.69921875 279.411132812 733.760742188 296.17578125 726.251953125 c 0
 302.47265625 723.431640625 308.86328125 719.860351562 314.55078125 715.82421875 c 1
341.03125 666.938476562 m 1
 340.932617188 656.895507812 340.305664062 646.567382812 328.33984375 635.342773438 c 0
 315.807617188 623.586914062 298.55078125 624.138671875 280.29296875 628.560546875 c 0
 271.681640625 630.645507812 183.46484375 639.072265625 173.11328125 639.998046875 c 0
 123.908203125 639.75390625 89 629.634765625 89 596.998046875 c 0
 89 464.21875 521 380.544921875 521 260.998046875 c 0
 521 132.557617188 121.995117188 164.671875 66.2978515625 146.516601562 c 1
 96.21484375 75.626953125 523.083007812 91.998046875 582 91.998046875 c 0
 738.811523438 91.998046875 844 179.6796875 844 329.998046875 c 0
 844 470.090820312 646 465.387695312 646 599.998046875 c 0
 646 677.47265625 733 698.58984375 733 749.999023438 c 0
 733 783.029296875 654.833007812 798.999023438 606 798.999023438 c 0xeff8
 566.727539062 798.999023438 551 748.67578125 551 701.999023438 c 0
 551 645.19140625 617 595.923828125 617 524.999023438 c 0
 617 451.666992188 432.9375 456.999023438 420 456.999023438 c 2
 417.53125 456.999023438 l 1
 361.431640625 471.065429688 376.244140625 547.470703125 373.497070312 559.5703125 c 0
 369.1953125 578.520507812 373 595.3828125 373 606.094726562 c 0
 373.125976562 619.194335938 371.810546875 625.338867188 368.561523438 629.284179688 c 0
 357.798828125 642.353515625 348.684570312 655.0390625 341.03125 666.938476562 c 1
EndSplineSet
EndChar

StartChar: N
Encoding: 78 78 47
Width: 1396
Flags: MW
HStem: 174 20<733.565 784.61 733.565 789.039> 237 20<1089.95 1129.1 1089.95 1131.16> 246 20<974.891 1035.12> 255 20<1251.47 1308.44 1249.56 1322.94> 556 20<190.478 201.628> 589 20<82.6978 100.455> 643.013 19.9874 754 20G<182.154 194.118>
VStem: 46.4551 20<522.189 575.77 522.189 582.606> 148.455 20<678.623 686.998 686.998 687> 391.455 20 460.455 20 827.455 20<476.527 549.311> 1329.55 18.9093
LayerCount: 2
Fore
SplineSet
232.455078125 711 m 1xaffc
 291.455078125 510 396.427734375 666.345703125 490.455078125 663 c 0
 541.081054688 661.19921875 850.455078125 588.400390625 850.455078125 579 c 0
 850.455078125 566.264648438 847.455078125 555.622070312 847.455078125 543 c 0
 847.455078125 410.0546875 1348.45507812 587.418945312 1348.45507812 366 c 0
 1348.45507812 285.047851562 1363.42382812 255 1282.45507812 255 c 0x9ffc
 1220.48242188 255 1159.86132812 237 1102.45507812 237 c 0xcffc
 1073.13769531 237 1048.79296875 246 1021.45507812 246 c 0
 928.327148438 246 844.622070312 174 733.455078125 174 c 0
 657.360351562 174.838867188 579.6953125 171.487304688 505.455078125 177 c 0
 417.905273438 183.500976562 391.455078125 227.1484375 391.455078125 321 c 0
 391.455078125 360.481445312 460.455078125 361.348632812 460.455078125 405 c 1
 422.333984375 484.37890625 283.844726562 466.112304688 199.455078125 480 c 0
 124.236328125 492.37890625 46.455078125 457.12109375 46.455078125 567 c 0
 46.455078125 598.212890625 64.9404296875 609 100.455078125 609 c 0
 123.198242188 612.685546875 143.591796875 602.991210938 163.455078125 594 c 0
 178.05859375 587.389648438 181.500976562 576 199.455078125 576 c 0
 203.80078125 576 205.455078125 591.388671875 205.455078125 597 c 0
 208.466796875 615.794921875 186.366210938 627.029296875 178.455078125 636 c 0
 165.96875 650.158203125 148.455078125 660.09375 148.455078125 687 c 0
 145.266601562 704.288085938 158.748046875 715.595703125 163.455078125 732 c 0
 165.416015625 738.834960938 176.853515625 774 187.455078125 774 c 0
 200.780273438 774 216.569335938 765.771484375 229.455078125 762 c 1
 232.455078125 711 l 1xaffc
489.744140625 643.012695312 m 0
 424.299804688 645.341796875 277.337890625 487.08203125 212.623046875 707.55078125 c 1
 210.2734375 747.498046875 l 1
 204.030273438 749.83984375 199.162109375 751.720703125 193.403320312 753.151367188 c 1
 189.719726562 746.702148438 183.509765625 729.375 182.6796875 726.482421875 c 0
 174.526367188 698.067382812 166.7890625 697.861328125 168.455078125 688.827148438 c 2
 168.455078125 686.998046875 l 2
 168.455078125 670.248046875 176.915039062 667.981445312 193.455078125 649.2265625 c 0
 193.841796875 648.788085938 229.288085938 629.793945312 225.44140625 595.525390625 c 1
 225.44140625 595.525390625 234.091796875 555.997070312 199.455078125 555.997070312 c 0
 171.705078125 555.997070312 159.124023438 574.00390625 155.208007812 575.776367188 c 0
 133.6015625 585.556640625 118.609375 591.677734375 102.065429688 588.997070312 c 2
 100.455078125 588.997070312 l 2
 69.0888671875 588.997070312 66.455078125 584.54296875 66.455078125 566.997070312 c 0
 66.455078125 477.380859375 112.065429688 514.6484375 202.703125 499.732421875 c 0
 276.721679688 487.551757812 432.364257812 509.69140625 478.484375 413.65625 c 2
 480.456054688 409.551757812 l 1
 480.456054688 404.998046875 l 2
 480.456054688 338.576171875 411.456054688 335.581054688 411.456054688 320.999023438 c 0
 411.456054688 232.129882812 430.579101562 202.614257812 506.936523438 196.944335938 c 0
 579.497070312 191.556640625 657.000976562 194.84375 733.565429688 194 c 0
 835.655273438 194 917.875 266 1021.45507812 266 c 0xaffc
 1053.41308594 266 1077.43847656 257 1102.45507812 257 c 0xcffc
 1155.75 257 1216.67089844 275 1282.45507812 275 c 0
 1334.43457031 275 1329.55175781 278.681640625 1329.54589844 311.211914062 c 0
 1329.54296875 325.095703125 1328.45507812 343.529296875 1328.45507812 366 c 0
 1328.45507812 453.895507812 1228.95703125 467.725585938 1097.96289062 467.677734375 c 0
 987.537109375 467.637695312 827.456054688 447.116210938 827.456054688 543 c 0
 827.456054688 552.4375 828.626953125 559.500976562 829.520507812 566.668945312 c 1
 772.026367188 585.7265625 527.438476562 641.671875 489.744140625 643.012695312 c 0
EndSplineSet
EndChar

StartChar: O
Encoding: 79 79 48
Width: 1068
Flags: MW
HStem: 105 20<160.032 235.667 156.875 243.017> 144 20<871.898 970.568 871.898 978.964> 240 20<460.97 602.233> 526 20<388.5 424.5> 559 20<199.589 224.975> 700 20<742.5 752.213>
VStem: 46.5 20 103.5 20 271.5 20 602.5 20<420.936 510.573> 824.431 20.0689 1001.5 20<225.948 344.467>
LayerCount: 2
Fore
SplineSet
310.5 573 m 2
 340.5 570 l 1
 358.385742188 560.8671875 365.389648438 546 388.5 546 c 0
 399.657226562 546 411.725585938 546.122070312 424.5 546 c 0
 496.681640625 545.3125 582.354492188 574.362304688 607.5 645 c 0
 627.393554688 700.885742188 683.627929688 730.787109375 742.5 720 c 0
 761.926757812 720 844.5 730.974609375 844.5 702 c 0
 844.5 567.650390625 622.5 574.146484375 622.5 447 c 0
 622.5 394.872070312 1021.5 427.934570312 1021.5 261 c 0
 1021.5 190.896484375 1017.42773438 144 940.5 144 c 0
 794.078125 144 677.965820312 240 526.5 240 c 0
 395.439453125 240 304.534179688 105 181.5 105 c 0
 138.564453125 105 46.5 93.837890625 46.5 156 c 0
 46.5 308.541015625 271.5 293.498046875 271.5 426 c 0
 271.5 475.58984375 103.5 464.688476562 103.5 537 c 0
 103.5 580.171875 184.677734375 579 214.5 579 c 0
 235.44921875 579 288.481445312 575.202148438 310.5 573 c 2
308.509765625 553.099609375 m 2
 287.358398438 555.21484375 233.670898438 559.000976562 214.500976562 559.000976562 c 0
 173.594726562 559.000976562 123.500976562 552.275390625 123.500976562 537.000976562 c 0
 123.500976562 489.884765625 291.500976562 507.89453125 291.500976562 426.000976562 c 0
 291.500976562 267.725585938 66.5009765625 285.904296875 66.5009765625 156 c 0
 66.5009765625 119.811523438 132.249023438 125 181.500976562 125 c 0
 289.83203125 125 381.604492188 260 526.500976562 260 c 0
 686.874023438 260 803.295898438 164 940.500976562 164 c 0
 1000.63476562 164 1001.50097656 189.409179688 1001.50097656 261 c 0
 1001.50097656 405.259765625 602.500976562 356.719726562 602.500976562 447 c 0
 602.500976562 596.129882812 819.86328125 593.025390625 824.431640625 698.247070312 c 1
 809.817382812 703.864257812 760.205078125 699.999023438 742.5 699.999023438 c 2
 740.682617188 699.999023438 l 1
 689.63671875 709.352539062 643.146484375 685.500976562 626.341796875 638.29296875 c 0
 596.647460938 554.875976562 499.927734375 525.28125 424.309570312 526.001953125 c 0
 411.780273438 526.122070312 399.801757812 526.000976562 388.5 526.000976562 c 0
 358.453125 526.000976562 343.3203125 544.986328125 334.383789062 550.512695312 c 1
 308.509765625 553.099609375 l 2
EndSplineSet
EndChar

StartChar: P
Encoding: 80 80 49
Width: 1129
Flags: MW
HStem: 39 20<971.837 1017.85 971.837 1020.98> 177 20<471.486 584.899> 369 20<679.545 720.184> 444 20<96.9438 211.829> 481 20<448.636 495.288> 508 20<160.166 179.806> 532 20<84.4116 102.115> 648.999 20 703 20G<635.989 681.5>
VStem: 42.5 20 204.5 20 628.5 20<292.543 328.427> 762.5 20.0407 846.5 20 1066.5 20<43.6792 119.903>
LayerCount: 2
Fore
SplineSet
174.5 579 m 1
 143.5 651 302.935546875 669 369.5 669 c 0
 411.990234375 669 422.771484375 501 474.5 501 c 0
 516.075195312 501 590.478515625 723 681.5 723 c 1
 774.701171875 576.451171875 1044.21582031 514.759765625 972.5 297 c 0
 918.94140625 134.37109375 1086.5 179.805664062 1086.5 60 c 0
 1086.5 27.3583984375 1030.45996094 39 1011.5 39 c 0
 929.915039062 39 762.5 103.9609375 762.5 201 c 0
 762.5 231.2265625 846.5 223.278320312 846.5 258 c 0
 846.5 311.552734375 743.8671875 369 696.5 369 c 0
 662.590820312 369 648.5 341.853515625 648.5 315 c 0
 648.5 270.0859375 654.5 223.760742188 654.5 180 c 0
 654.5 173.372070312 587.297851562 177 582.5 177 c 0
 342.201171875 177 318.157226562 444 105.5 444 c 0
 71.08984375 444 42.5 491.0078125 42.5 522 c 0
 42.5 545.758789062 75.3232421875 552 93.5 552 c 0
 122.798828125 552 142.83203125 528 177.5 528 c 0
 195.337890625 528 204.5 522.8515625 204.5 543 c 0
 204.5 556.0390625 197.327148438 556.172851562 192.5 561 c 2
 174.5 579 l 1
1011.5 59 m 0
 1024.19628906 59 1066.50292969 55.390625 1066.50292969 60 c 0
 1066.50292969 141.857421875 896.78125 131.01171875 953.506835938 303.255859375 c 0
 1018.12109375 499.452148438 782.291015625 545.495117188 671.708007812 701.711914062 c 1
 610.4765625 685.89453125 538.01953125 480.999023438 474.502929688 480.999023438 c 0
 409.510742188 480.999023438 378.680664062 641.055664062 368.477539062 648.997070312 c 1
 298.388671875 648.737304688 180.206054688 626.413085938 191.6640625 590.12109375 c 1
 206.431640625 575.354492188 l 2
 206.90625 575.018554688 224.501953125 563.758789062 224.501953125 543 c 0
 224.501953125 522.413085938 208.953125 507.251953125 191.9921875 507.4140625 c 0
 186.399414062 507.467773438 182.111328125 508 177.500976562 508 c 0
 132.69140625 508 110.728515625 532 93.5009765625 532 c 0
 71.9853515625 532 62.5009765625 523.138671875 62.5009765625 522 c 0
 62.5009765625 497.793945312 88.38671875 464 105.500976562 464 c 0
 338.899414062 464 360.471679688 197 582.500976562 197 c 0
 587.849609375 197 612.8515625 195.517578125 634.245117188 196.185546875 c 1
 633.078125 233.536132812 628.500976562 274.263671875 628.500976562 315 c 0
 628.500976562 347.834960938 648.169921875 389 696.500976562 389 c 0
 749.786132812 389 866.500976562 331.512695312 866.500976562 258 c 0
 866.500976562 209.010742188 787.723632812 202.005859375 782.541015625 198.706054688 c 1
 785.404296875 124.984375 932.174804688 59 1011.5 59 c 0
EndSplineSet
EndChar

StartChar: Q
Encoding: 81 81 50
Width: 1181
Flags: MW
HStem: 487.081 19.919 661 20<107.079 135.408 93.8125 135.784>
LayerCount: 2
Fore
SplineSet
309.408203125 579 m 0
 371.408203125 567 417.831054688 605.1484375 471.408203125 594 c 0
 619.228515625 563.241210938 762.185546875 502.477539062 918.408203125 507 c 1
 1068.11328125 549.83203125 1139.55273438 380.927734375 1125.40820312 258 c 1
 1142.59863281 203.1640625 1101.7890625 183.204101562 1053.40820312 198 c 0
 988.509765625 217.84765625 929.918945312 179.147460938 870.408203125 165 c 0
 823.107421875 153.754882812 772.697265625 138.897460938 723.408203125 126 c 0
 634.538085938 99.5400390625 575.575195312 151.836914062 507.408203125 180 c 0
 442.262695312 206.9140625 412.622070312 276.610351562 348.408203125 288 c 0
 284.149414062 299.397460938 219.642578125 307.40625 156.408203125 300 c 0
 53.5537109375 287.953125 45.2001953125 412.671875 54.408203125 486 c 0
 60.3330078125 533.186523438 52.216796875 681 135.408203125 681 c 0
 156.620117188 681.794921875 163.764648438 659.197265625 180.408203125 651 c 0
 193.56640625 644.518554688 252.408203125 590 309.408203125 579 c 0
1105.05371094 256.068359375 m 1
 1118.81054688 375.629882812 1056.04199219 525.575195312 921.498046875 487.081054688 c 1
 758.201171875 482.353515625 613.358398438 544.034179688 467.3359375 574.418945312 c 0
 425.84375 583.052734375 378.108398438 545.33203125 305.615234375 559.36328125 c 0
 243.302734375 571.388671875 179.400390625 628.677734375 172.4140625 632.583007812 c 0
 139.622070312 650.025390625 144.263671875 661.317382812 135.784179688 661 c 0
 78.3740234375 661 81.998046875 545.189453125 74.2529296875 483.508789062 c 0
 64.6533203125 407.061523438 76.693359375 310.80078125 154.083007812 319.865234375 c 0
 220.541015625 327.649414062 287.005859375 319.204101562 351.90234375 307.693359375 c 0
 428.40625 294.124023438 460.954101562 220.833007812 515.045898438 198.485351562 c 0
 589.33203125 167.793945312 638.721679688 121.654296875 718.021484375 145.264648438 c 0
 767.616210938 158.2421875 817.573242188 172.998046875 865.782226562 184.458984375 c 0
 918.75 197.05078125 984.291015625 240.052734375 1059.25683594 217.125976562 c 0
 1091.30371094 207.325195312 1105.63769531 217.211914062 1108.42382812 226.750976562 c 0
 1109.99023438 232.115234375 1108.50390625 245.0625 1105.05371094 256.068359375 c 1
EndSplineSet
EndChar

StartChar: R
Encoding: 82 82 51
Width: 803
Flags: MW
HStem: 363 20 662.928 21G 673 20<492.867 504.26> 718 20<601.598 620.12> 778 20<245.325 330.215>
VStem: 52 20<436.239 447.879 436.239 450.95 517.658 542.582> 106 20 731 20<476.709 517.639>
LayerCount: 2
Fore
SplineSet
106 636 m 0xbf
 106 725 189 798 293 798 c 0
 374.5234375 798 443.7578125 753.143554688 469.875976562 690.88671875 c 1
 478.62109375 692.272460938 487.692382812 693 497 693 c 0
 513.352539062 693 529.021484375 690.75390625 543.510742188 686.638671875 c 1
 559.799804688 718.236328125 583.147460938 738 609 738 c 0
 647.923828125 738 680.537109375 693.19921875 692.3046875 630.663085938 c 1
 706.91015625 623.90234375 718.708984375 603.014648438 723.995117188 575.1640625 c 1
 741.213867188 554.82421875 751 531.590820312 751 507 c 0
 751 428 650 363 526 363 c 0
 474.737304688 363 427.40625 374.108398438 389.515625 392.723632812 c 1
 353.97265625 376.345703125 302.360351562 366 245 366 c 0
 138 366 52 402 52 446 c 0
 52 455.899414062 56.353515625 465.342773438 64.3193359375 474.03515625 c 1
 56.65234375 488.040039062 52 506.2109375 52 526 c 0
 52 563.59375 68.7900390625 595.34765625 91.1435546875 603.796875 c 1
 94.7119140625 613.109375 99.765625 621.990234375 106.11328125 630.305664062 c 0
 106.038085938 632.196289062 106 634.094726562 106 636 c 0xbf
389.791015625 414.872070312 m 1
 427.247070312 396.469726562 472.677734375 382.999023438 526 382.999023438 c 0
 646.481445312 382.999023438 731 446.418945312 731 506.999023438 c 0
 731 528.279296875 720.560546875 548.266601562 705.328125 566.259765625 c 1
 700.471679688 591.848632812 689.576171875 609.88671875 683.904296875 612.512695312 c 2
 674.555664062 616.83984375 l 1
 672.650390625 626.963867188 l 2
 661.25390625 687.528320312 631.239257812 718 609.000976562 718 c 0
 594.194335938 718 575.993164062 705.999023438 561.288085938 677.474609375 c 2
 553.7890625 662.928710938 l 1xdf
 538.046875 667.399414062 l 2
 525.361328125 671.001953125 511.520507812 673 497 673 c 0
 488.734375 673 480.708007812 672.353515625 473.005859375 671.1328125 c 2
 457.504882812 668.676757812 l 1
 451.43359375 683.149414062 l 2
 428.872070312 736.927734375 367.428710938 778 293.000976562 778 c 0
 197.6484375 778 126.000976562 711.598632812 126.000976562 636 c 0
 126.000976562 631.87890625 126.225585938 627.899414062 126.384765625 623.8984375 c 0
 117.82421875 612.684570312 111.833984375 601.895507812 106.609375 588.26171875 c 1
 98.2158203125 585.088867188 l 2
 87.833984375 581.165039062 72 559.1640625 72 526 c 0
 72 509.31640625 76.0322265625 494.2890625 81.8623046875 483.639648438 c 2
 88.73828125 471.080078125 l 1
 79.064453125 460.5234375 l 2
 73.453125 454.400390625 72 449.758789062 72 446 c 0
 72 426.477539062 134.819335938 386 245 386 c 0
 305.943359375 386 354.071289062 398.412109375 389.791015625 414.872070312 c 1
EndSplineSet
EndChar

StartChar: S
Encoding: 83 83 52
Width: 912
Flags: MW
HStem: 39 20<374.348 461.379 367.076 468.345> 69 21G<827.516 857.984> 91 20<188.53 224.028 188.17 237.078> 148 20G<56.063 78.0068 665.976 748.197> 168 20<665.976 748.197> 370 20<647.318 671.318 671.318 743.473> 538 20<365.318 434.318 434.318 434.318> 574.008 19.9917 733 20<405.526 452.753 400.468 465.824>
VStem: 50.3184 20<483.586 542.003 483.586 556.03> 338.318 20<297.76 363.824> 365.318 20 446.318 20 567.318 20<484.421 532.238> 639.318 20<626.506 709.453> 840.318 20<195 266.356>
LayerCount: 2
Fore
SplineSet
362.318359375 561 m 1xf7ff
 365.318359375 558 l 1
 434.318359375 558 l 1
 439.727539062 577.833984375 446.318359375 579.471679688 446.318359375 603 c 0
 446.318359375 654.418945312 365.318359375 640.834960938 365.318359375 696 c 0
 365.318359375 734.962890625 381.618164062 753 419.318359375 753 c 0
 486.188476562 753 659.318359375 761.905273438 659.318359375 657 c 0
 659.318359375 596.012695312 587.318359375 566.475585938 587.318359375 498 c 0
 587.318359375 470.842773438 604.44140625 390 647.318359375 390 c 2
 671.318359375 390 l 2
 815.626953125 390 860.318359375 337.711914062 860.318359375 195 c 1
 860.318359375 195 867.650390625 69 848.318359375 69 c 0
 806.713867188 69 777.075195312 168 719.318359375 168 c 0xefff
 612.633789062 168 529.372070312 39 407.318359375 39 c 0
 341.376953125 39 56.318359375 29.3134765625 56.318359375 144 c 0
 56.318359375 146.325195312 52.8076171875 168 59.318359375 168 c 0
 96.6953125 168 161.021484375 111 215.318359375 111 c 0
 232.737304688 111 338.318359375 286.51953125 338.318359375 309 c 0
 338.318359375 418.6484375 50.318359375 429.1015625 50.318359375 507 c 0
 50.318359375 605.059570312 201.607421875 594 272.318359375 594 c 1
 362.318359375 561 l 1xf7ff
838.858398438 93.4091796875 m 1
 843.737304688 124.130859375 840.346679688 193.916992188 840.317382812 194.42578125 c 2
 840.317382812 195.000976562 l 2
 840.317382812 330.307617188 806.55078125 370.000976562 671.317382812 370.000976562 c 2
 647.317382812 370.000976562 l 2
 579.74609375 370.000976562 567.317382812 473.603515625 567.317382812 498.000976562 c 0
 567.317382812 581.86328125 639.317382812 613.280273438 639.317382812 657 c 0
 639.317382812 732.25390625 512.331054688 733 419.317382812 733 c 0
 391.735351562 733 385.317382812 726.895507812 385.317382812 696 c 0
 385.317382812 664.92578125 466.317382812 680.143554688 466.317382812 603.000976562 c 0
 466.317382812 574.529296875 457.161132812 565.749023438 453.61328125 552.73828125 c 2
 449.59375 538.000976562 l 1
 357.033203125 538.000976562 l 1
 351.29296875 543.741210938 l 1
 268.744140625 574.008789062 l 1
 187.053710938 574.375 70.318359375 577.005859375 70.318359375 507 c 0
 70.318359375 460.172851562 358.318359375 444.27734375 358.318359375 309 c 0
 358.318359375 280.068359375 258.836914062 91 215.318359375 91 c 0
 161.7421875 91 110.048828125 130.8671875 76.3173828125 143.864257812 c 1
 77.279296875 59.71875 326.833984375 59 407.318359375 59 c 0
 515.439453125 59 596.801757812 188 719.318359375 188 c 0
 782.106445312 188 817.860351562 109.44140625 838.858398438 93.4091796875 c 1
EndSplineSet
EndChar

StartChar: T
Encoding: 84 84 53
Width: 884
Flags: MW
HStem: 66 20<432.729 474.981 432.729 485.912> 120 20<722.641 769.804 722.641 781.721> 198 20<553.686 617.097> 331 20<604.209 627.58 593.714 630.313> 346 20<706.696 741.788> 625 20<246.256 277.525> 736 20<570.086 609.137>
VStem: 46 20 100 20 211 20 569 20<398.968 411> 728 20<682.895 740.771> 818 20<256.021 304.958>
LayerCount: 2
Fore
SplineSet
370 636 m 1xeff8
 373 627 l 1
 439 618 l 1
 448 696 l 1
 496.224609375 714.66796875 523.678710938 756 604 756 c 0
 634.194335938 756 748 767.541015625 748 714 c 0
 748 651.790039062 707.803710938 629.828125 673 591 c 0
 628.806640625 541.696289062 603.12890625 473.637695312 589 411 c 1
 589 386.935546875 577.427734375 351 610 351 c 0xf7f8
 645.159179688 351 684.537109375 366 724 366 c 0
 764.530273438 366 838 327.915039062 838 282 c 0
 838 230.041015625 815.44140625 120 748 120 c 0
 680.354492188 120 651.194335938 198 583 198 c 0
 524.37109375 198 526.82421875 66 445 66 c 0
 364.748046875 66 46 37.7919921875 46 174 c 0
 46 296.690429688 211 297.051757812 211 378 c 0
 211 465.315429688 100 504.296875 100 591 c 0
 100 651.930664062 227.512695312 645 265 645 c 0
 290.049804688 645 344.349609375 636 370 636 c 1xeff8
355.387695312 616.590820312 m 1
 327.784179688 618.533203125 282.909179688 625.000976562 265.001953125 625.000976562 c 0
 214.146484375 625.000976562 120.001953125 622.734375 120.001953125 591.000976562 c 0
 120.001953125 522.34765625 231.001953125 483.244140625 231.001953125 378.000976562 c 0
 231.001953125 268.853515625 66.001953125 277.34765625 66.001953125 174 c 0
 66.001953125 103.713867188 197.657226562 83.54296875 327.563476562 83.580078125 c 0
 377.270507812 83.5947265625 420.455078125 86 445.001953125 86 c 0
 504.9609375 86 495.512695312 218 583.001953125 218 c 0
 668.015625 218 697.280273438 140 748.000976562 140 c 0
 791.606445312 140 818.000976562 227.10546875 818.000976562 282 c 0
 818.000976562 308.469726562 759.57421875 346 724.000976562 346 c 0xeff8
 689.391601562 346 650.626953125 331 610 331 c 0
 598.418945312 331 586.754882812 334.53125 578.619140625 343.064453125 c 0
 560.268554688 362.3125 568.998046875 386.693359375 568.998046875 411 c 2
 568.998046875 413.227539062 l 1
 583.82421875 478.95703125 609.782226562 550.4375 658.10546875 604.348632812 c 0
 696.966796875 647.703125 727.999023438 662.14453125 727.999023438 713.999023438 c 0
 727.999023438 726.482421875 699.079101562 737.08984375 648.231445312 737.046875 c 0
 630.141601562 737.03125 614.275390625 736 603.999023438 736 c 0
 536.173828125 736 516.112304688 705.864257812 466.541992188 682.21875 c 1
 456.52734375 595.424804688 l 1
 357.962890625 608.865234375 l 1
 355.387695312 616.590820312 l 1
EndSplineSet
EndChar

StartChar: U
Encoding: 85 85 54
Width: 1019
Flags: MW
HStem: 48 21G<902.587 950.772> 57 19.9882 135 20<680.119 799.978> 250 20<468.187 510.771 468.187 517.433> 301 20<611.521 682.111 605.339 696.154> 559 20<314.404 372.805 314.404 386.303> 691 20G<311.5 311.5> 733 20<527.863 618.445>
VStem: 47.5 20 65.5 20 158.5 20 240.5 20<639 651 619.658 658.352 619.658 658.352> 423.5 20<364.276 457.123> 678.5 20<552.925 666.167> 951.5 20<169.987 255.922>
LayerCount: 2
Fore
SplineSet
311.5 711 m 1x7fbe
 260.5 651 l 1
 260.5 639 l 2
 260.5 600.315429688 296.30859375 579 332.5 579 c 0
 413.109375 579 446.662109375 753 593.5 753 c 0
 657.069335938 753 698.5 696.334960938 698.5 636 c 0
 698.5 469.849609375 443.5 536.24609375 443.5 378 c 0
 443.5 350.551757812 450.873046875 270 485.5 270 c 0
 536.041015625 270 578.178710938 321 632.5 321 c 0
 731.721679688 321 971.5 328.84375 971.5 183 c 0
 971.5 156.973632812 966.044921875 48 935.5 48 c 0xbfbe
 869.674804688 48 835.456054688 135 764.5 135 c 0
 595.737304688 135 451.662109375 63.2529296875 269.5 57 c 0
 195.676757812 54.4658203125 65.9189453125 59.244140625 65.5 156 c 0x7f7e
 65.5 253.491210938 158.5 336.653320312 158.5 429 c 0
 158.5 510.880859375 47.5 520.306640625 47.5 603 c 0
 47.5 705.508789062 233.036132812 685.735351562 311.5 711 c 1x7fbe
259.267578125 680.430664062 m 1
 161.52734375 667.762695312 67.498046875 661.487304688 67.498046875 603 c 0x7fbe
 67.498046875 541.171875 178.498046875 531.938476562 178.498046875 429 c 0
 178.498046875 323.75 85.498046875 241.234375 85.498046875 156 c 0
 85.8056640625 85.009765625 183.609375 74.0634765625 268.8125 76.98828125 c 0x7f7e
 445.749023438 83.0615234375 589.771484375 155 764.499023438 155 c 0
 849.752929688 155 886.53125 71.068359375 932.681640625 68.068359375 c 1
 944.149414062 84.4013671875 951.499023438 162.008789062 951.499023438 183 c 0
 951.499023438 298.826171875 759.809570312 301 632.499023438 301 c 0
 590.54296875 301 549.366210938 250 485.499023438 250 c 0
 422.612304688 250 423.499023438 359.23046875 423.499023438 378 c 0
 423.499023438 563.108398438 678.499023438 495.494140625 678.499023438 636 c 0
 678.499023438 688.236328125 643.390625 733 593.499023438 733 c 0
 462.2265625 733 440.10546875 559 332.5 559 c 0
 290.350585938 559 240.5 585.108398438 240.5 639 c 2
 240.5 658.3515625 l 1
 259.267578125 680.430664062 l 1
EndSplineSet
EndChar

StartChar: V
Encoding: 86 86 55
Width: 1320
Flags: MW
HStem: 48 20 282 20 490 20<594.602 701.054> 547 20<933.658 1035.07> 586 20<334.331 441.547>
VStem: 1089.36 20<211.712 292.752 211.712 294.529> 1167.36 20<98.8652 148.73>
LayerCount: 2
Fore
SplineSet
116.359375 450 m 0
 189.287109375 517.010742188 279.301757812 606 389.359375 606 c 0
 493.734375 606 547.844726562 510 641.359375 510 c 0
 760.749023438 510 871.956054688 567 995.359375 567 c 0
 1074.77734375 567 1268.359375 509.993164062 1268.359375 402 c 0
 1268.359375 374.826171875 1109.359375 342.504882812 1109.359375 243 c 0
 1109.359375 180.424804688 1187.359375 189.25390625 1187.359375 132 c 0
 1187.359375 45.6328125 1117.15332031 48 1052.359375 48 c 0
 843.78125 48 870.147460938 282 677.359375 282 c 0
 522.810546875 282 377.591796875 190.80078125 218.359375 210 c 1
 112.615234375 179.098632812 39.3330078125 267.102539062 53.359375 363 c 1
 66.564453125 384.767578125 65.515625 403.282226562 116.359375 450 c 0
216.68359375 230.346679688 m 1
 369.78515625 211.88671875 512.583007812 301.997070312 677.358398438 301.997070312 c 0
 892.370117188 301.997070312 864.216796875 67.9970703125 1052.359375 67.9970703125 c 0
 1122.06738281 67.9970703125 1167.359375 65.7333984375 1167.359375 131.997070312 c 0
 1167.359375 165.463867188 1089.359375 158.931640625 1089.359375 242.998046875 c 0
 1089.359375 346.059570312 1226.24023438 388.755859375 1248.22070312 406.390625 c 1
 1242.8359375 488.129882812 1073.89746094 546.999023438 995.359375 546.999023438 c 0
 878.204101562 546.999023438 767.206054688 489.999023438 641.359375 489.999023438 c 0
 532.831054688 489.999023438 480.331054688 585.999023438 389.360351562 585.999023438 c 0
 290.068359375 585.999023438 204.06640625 503.428710938 129.891601562 435.272460938 c 0
 83.0673828125 392.248046875 86.6611328125 381.849609375 72.654296875 356.400390625 c 1
 62.732421875 270.026367188 126.149414062 203.889648438 216.68359375 230.346679688 c 1
EndSplineSet
EndChar

StartChar: W
Encoding: 87 87 56
Width: 1374
Flags: MW
HStem: 96 20 315 20<87.4541 110.973 87.4541 111.602> 354 20.4187 577 20 615.9 20.1
VStem: 49.6553 20<355.529 366 355.529 366> 253.655 20 286.655 20 397.655 20 1304.57 20.0848
LayerCount: 2
Fore
SplineSet
256.655273438 456 m 2
 248.989257812 462.671875 253.655273438 472.046875 253.655273438 480 c 0
 253.655273438 565.36328125 447.026367188 636 526.655273438 636 c 1
 619.86328125 583.046875 729.317382812 596.516601562 835.655273438 597 c 0
 1003.83398438 597.264648438 1237.49511719 601.333984375 1312.65527344 420 c 0
 1321.28417969 399.181640625 1324.65527344 386.2265625 1324.65527344 363 c 0
 1324.65527344 325.989257812 729.235351562 96 592.655273438 96 c 0
 509.125 96 397.655273438 203.860351562 397.655273438 288 c 2
 397.655273438 330 l 2
 397.655273438 365.512695312 351.787109375 354 331.655273438 354 c 0
 281.3828125 358.377929688 231.83203125 349.946289062 187.655273438 330 c 0
 160.735351562 317.844726562 125.548828125 315 97.6552734375 315 c 0
 64.900390625 315 49.6552734375 337.390625 49.6552734375 366 c 0
 43.830078125 418.876953125 121.659179688 404.11328125 154.655273438 396 c 0
 187.772460938 387.857421875 217.284179688 384 253.655273438 384 c 0
 265.638671875 384 286.655273438 395.986328125 286.655273438 411 c 2
 286.655273438 417 l 1
 256.655273438 456 l 2
225.994140625 364.783203125 m 1
 199.706054688 366.37890625 175.310546875 370.327148438 149.880859375 376.579101562 c 0
 111.693359375 385.96875 72.125 385.08203125 69.7431640625 375.267578125 c 0
 69.4013671875 373.861328125 69.3037109375 370.2890625 69.6552734375 367.098632812 c 2
 69.6552734375 366 l 2
 69.6552734375 345.05859375 77.2529296875 335 97.6552734375 335 c 0
 124.290039062 335 157.17578125 338.181640625 179.424804688 348.227539062 c 0
 194.365234375 354.973632812 210.015625 360.525390625 225.994140625 364.783203125 c 1
284.583007812 374.420898438 m 1
 300.419921875 375.459960938 316.3359375 375.354492188 332.41796875 374.008789062 c 0
 339.557617188 374.162109375 385.702148438 386.930664062 408.4375 358.5078125 c 0
 414.763671875 350.598632812 417.654296875 340.412109375 417.654296875 330.001953125 c 2
 417.654296875 288.001953125 l 2
 417.654296875 216.979492188 521.482421875 116.001953125 592.654296875 116.001953125 c 0
 710.440429688 116.001953125 1241.68164062 317.6015625 1304.5703125 368.799804688 c 1
 1304.03808594 384.909179688 1301.63085938 394.3671875 1294.1796875 412.344726562 c 0
 1225.54492188 577.934570312 1007.703125 577.2734375 835.686523438 577.002929688 c 0
 733.295898438 576.537109375 622.346679688 561.700195312 521.65625 615.90234375 c 1
 439.16015625 612.5390625 273.65625 539.940429688 273.65625 480.002929688 c 0
 273.65625 474.436523438 272.9609375 471.879882812 272.440429688 468.286132812 c 2
 306.65625 423.805664062 l 1
 306.65625 411.002929688 l 2
 306.65625 392.784179688 294.385742188 381.010742188 284.583007812 374.420898438 c 1
EndSplineSet
EndChar

StartChar: X
Encoding: 88 88 57
Width: 1177
Flags: MW
HStem: 225 20<873.809 893.712> 264 20<296.852 407.181 296.417 409.666> 505.02 19.9799 520.015 19.9848
VStem: 228.809 20 1018.81 20<257.015 296.51>
LayerCount: 2
Fore
SplineSet
261.80859375 516 m 1xec
 246.80859375 560 496.920898438 536.18359375 594.80859375 540 c 0xdc
 635.97265625 541.60546875 674.936523438 523.151367188 717.80859375 525 c 0
 846.129882812 530.763671875 975.89453125 518.329101562 1086.80859375 450 c 0
 1101.35351562 441.0390625 1125.80859375 426.413085938 1125.80859375 402 c 0
 1122.60839844 385.638671875 1118.20117188 363.596679688 1098.80859375 366 c 0
 1073.41210938 369.147460938 1032.80859375 342.629882812 1032.80859375 318 c 0
 1032.80859375 305.364257812 1038.80859375 302.01953125 1038.80859375 291 c 0
 1038.80859375 223.029296875 913.616210938 225 873.80859375 225 c 0
 806.147460938 222.534179688 753.409179688 275.1953125 690.80859375 285 c 0
 573.201171875 303.419921875 467.522460938 264 351.80859375 264 c 0
 241.89453125 264 69.052734375 300.947265625 51.80859375 426 c 0
 43.4599609375 486.536132812 121.9140625 471.0859375 153.80859375 462 c 0
 177.6796875 455.19921875 228.80859375 453.22265625 228.80859375 480 c 0
 228.80859375 492.682617188 226.590820312 502.430664062 225.80859375 510 c 1
 261.80859375 516 l 1xec
283.365234375 514.75 m 1
 288.346679688 500.146484375 l 1
 248.138671875 493.4453125 l 2
 248.459960938 489.916015625 248.810546875 484.848632812 248.810546875 480.000976562 c 0
 248.810546875 441.251953125 205.599609375 437.57421875 186.818359375 437.646484375 c 0
 158.022460938 437.756835938 78.296875 462.955078125 71.9052734375 440.48828125 c 0
 71.26953125 438.251953125 70.826171875 434.513671875 71.623046875 428.732421875 c 0
 86.1689453125 323.243164062 241.0234375 284 351.809570312 284 c 0
 462.551757812 284 570.108398438 324.1484375 693.904296875 304.759765625 c 0
 766.729492188 293.353515625 815.130859375 242.875 873.4453125 245 c 0
 924.659179688 245 1018.80957031 250.68359375 1018.80957031 291 c 0
 1018.80957031 291.939453125 1012.80957031 296.776367188 1012.80957031 318 c 0
 1012.80957031 360.212890625 1065.2265625 389.44140625 1100.48730469 385.940429688 c 0
 1101.98535156 388.55078125 1104.07519531 395.237304688 1105.73535156 403.568359375 c 0
 1104.66308594 412.749023438 1091.95898438 423.3359375 1076.31933594 432.971679688 c 0
 970.564453125 498.122070312 845.36328125 510.708007812 718.70703125 505.01953125 c 0xec
 669.40625 502.893554688 630.203125 521.364257812 595.587890625 520.014648438 c 0
 513.388671875 516.809570312 329.21484375 530.279296875 283.365234375 514.75 c 1
EndSplineSet
EndChar

StartChar: Y
Encoding: 89 89 58
Width: 774
Flags: MW
HStem: 153 20 622.084 22.9161 646 20G 727 20<493.7 555.348>
VStem: 43.5 20 368.5 20<426.853 538.758> 650.5 20<597.251 699.157> 710.5 20<225.341 339.309>
LayerCount: 2
Fore
SplineSet
166.5 666 m 1
 191.515625 659.015625 216.672851562 652.172851562 241.5 645 c 1
 334.5 642 l 2
 341.712890625 638.182617188 374.875976562 673.973632812 379.5 681 c 0
 410.161132812 727.591796875 463.900390625 747 523.5 747 c 0
 587.196289062 747 670.5 738.314453125 670.5 660 c 0
 670.5 534.501953125 388.5 600.515625 388.5 477 c 0
 388.5 376.706054688 730.5 420.6171875 730.5 258 c 0
 730.5 192.682617188 669.0703125 153 607.5 153 c 0
 455.110351562 153 43.5 407.450195312 43.5 573 c 0
 43.5 633.543945312 166.5 655.002929688 166.5 666 c 1
171.130859375 643.950195312 m 1
 138.458007812 626.442382812 63.4990234375 605.661132812 63.4990234375 573.000976562 c 0
 63.4990234375 427.998046875 462.395507812 173.000976562 607.499023438 173.000976562 c 0
 662.184570312 173.000976562 710.499023438 207.487304688 710.499023438 258.000976562 c 0
 710.499023438 396.0546875 368.499023438 343.176757812 368.499023438 477.000976562 c 0
 368.499023438 629.760742188 650.499023438 563.420898438 650.499023438 660.000976562 c 0
 650.499023438 716.891601562 590.912109375 727.000976562 523.499023438 727.000976562 c 0
 467.834960938 727.000976562 421.953125 709.131835938 396.206054688 670.006835938 c 0
 392.369140625 664.17578125 363.885742188 617.20703125 331.577148438 622.084960938 c 2
 238.353515625 625.091796875 l 1
 215.837890625 631.596679688 195.249023438 637.254882812 171.130859375 643.950195312 c 1
EndSplineSet
EndChar

StartChar: Z
Encoding: 90 90 59
Width: 1250
Flags: MW
HStem: 583 20<489.517 489.517 489.517 535.611> 610 20<751.531 928.32> 687.999 20
LayerCount: 2
Fore
SplineSet
487.611328125 603 m 1
 535.611328125 603 l 2
 621.759765625 603 705.337890625 630 793.611328125 630 c 0
 1080.99707031 630 1018.50683594 412.034179688 1111.61132812 174 c 0
 1124.21582031 141.774414062 1204.61132812 94.98046875 1204.61132812 63 c 1
 1189.58300781 33.4345703125 1146.10351562 19.8369140625 1114.61132812 15 c 0
 973.078125 -6.7353515625 966.702148438 196.97265625 859.611328125 228 c 1
 751.219726562 204.225585938 582.059570312 233.651367188 529.611328125 123 c 0
 505.362304688 71.8427734375 436.484375 80.857421875 388.611328125 75 c 0
 213.028320312 53.515625 90.994140625 203.140625 70.611328125 366 c 0
 63.046875 426.436523438 39.8427734375 485.846679688 46.611328125 549 c 0
 55.451171875 631.491210938 39.9951171875 708 145.611328125 708 c 0
 188.377929688 704.659179688 220.732421875 667.779296875 217.611328125 627 c 0
 213.477539062 573.01171875 280.3046875 569.592773438 322.611328125 576 c 0
 352.392578125 580.509765625 379.052734375 582.123046875 409.611328125 588 c 2
 487.611328125 603 l 1
489.516601562 583 m 1
 413.388671875 568.358398438 l 2
 381.310546875 562.189453125 354.2578125 560.5625 325.606445312 556.223632812 c 0
 287.181640625 550.404296875 191.545898438 548.54296875 197.669921875 628.525390625 c 0
 199.8671875 657.237304688 177.53125 684.673828125 144.826171875 687.997070312 c 0
 60.2255859375 687.52734375 76.353515625 638.856445312 66.49609375 546.8671875 c 0
 60.3759765625 489.762695312 82.431640625 432.587890625 90.455078125 368.482421875 c 0
 110.008789062 212.25 225.287109375 75.1630859375 386.180664062 94.8505859375 c 0
 442.415039062 101.731445312 494.516601562 95.6572265625 511.538085938 131.565429688 c 0
 571.809570312 258.721679688 762.0625 227.078125 860.29296875 248.624023438 c 1
 865.176757812 247.208984375 l 2
 1002.734375 207.354492188 983.901367188 15.16015625 1111.57519531 34.767578125 c 0
 1138.09863281 38.841796875 1170.17382812 50.06640625 1183.28710938 66.599609375 c 1
 1172.93554688 86.890625 1108.56933594 126.872070312 1092.98535156 166.71484375 c 0
 994.491210938 418.528320312 1063.02929688 610 793.611328125 610 c 0
 709.451171875 610 625.974609375 583 535.611328125 583 c 2
 489.516601562 583 l 1
EndSplineSet
EndChar

StartChar: bracketleft
Encoding: 91 91 60
Width: 1208
Flags: MW
HStem: 114 20 213 20 315 20 477 19.1881
VStem: 86.3037 20 365.304 20 1143.3 20<187.328 296.152>
LayerCount: 2
Fore
SplineSet
74.3037109375 477 m 1
 -60.6962890625 492 303.302734375 557.76171875 416.303710938 597 c 0
 558.930664062 646.525390625 1163.30371094 412.802734375 1163.30371094 222 c 0
 1163.30371094 129.426757812 1038.875 114 968.303710938 114 c 0
 808.125976562 114 719.701171875 315 566.303710938 315 c 0
 450.624023438 315 363.278320312 213 248.303710938 213 c 0
 165.265625 213 86.3037109375 224.53515625 86.3037109375 315 c 0
 86.3037109375 414.291015625 206.749023438 449.1171875 296.303710938 435 c 0
 321.024414062 431.102539062 365.303710938 426.026367188 365.303710938 456 c 0
 365.303710938 469.536132812 363.978515625 459.061523438 356.303710938 471 c 1
 74.3037109375 477 l 1
112.67578125 496.188476562 m 1
 367.373046875 490.772460938 l 1
 372.873046875 482.215820312 l 1
 387.297851562 471.829101562 385.3046875 460.0390625 385.3046875 456.002929688 c 0
 385.3046875 417.3046875 345.994140625 411.911132812 326.971679688 412.028320312 c 0
 314.38671875 412.10546875 302.323242188 413.806640625 293.190429688 415.24609375 c 0
 208.608398438 428.579101562 106.3046875 395.833984375 106.3046875 315.000976562 c 0
 106.3046875 243.967773438 163.06640625 233.000976562 248.3046875 233.000976562 c 0
 351.157226562 233.000976562 438.575195312 335.000976562 566.303710938 335.000976562 c 0
 737.373046875 335.000976562 825.092773438 134.000976562 968.303710938 134.000976562 c 0
 1043.20898438 134.000976562 1143.30371094 152.655273438 1143.30371094 222.000976562 c 0
 1143.30371094 370.302734375 664.206054688 583.905273438 466.55078125 583.731445312 c 0
 447.8515625 583.71484375 432.8125 581.561523438 422.864257812 578.107421875 c 0
 353.185546875 553.912109375 199.6796875 521.900390625 112.67578125 496.188476562 c 1
EndSplineSet
EndChar

StartChar: backslash
Encoding: 92 92 61
Width: 1332
Flags: MW
HStem: 180 20<638.728 803.344 638.728 809.587> 318 20<1055.57 1162.74 1123.74 1162.74> 475.022 19.9776 541 20<577.69 712.389 574.327 718.009>
VStem: 67.7393 20 1259.74 20<364.196 432.083>
LayerCount: 2
Fore
SplineSet
130.739257812 474 m 1
 132.528320312 467.5859375 155.19140625 495 160.739257812 495 c 0
 329.276367188 495 489.915039062 561 658.739257812 561 c 0
 766.038085938 561 1279.73925781 523.111328125 1279.73925781 372 c 0
 1279.73925781 329.59375 1190.94726562 318 1162.73925781 318 c 2
 1123.73925781 318 l 2
 987.40234375 318 885.435546875 180 733.739257812 180 c 0
 534.448242188 180 375.915039062 302.108398438 175.739257812 270 c 0
 108.1953125 257.693359375 35.375 275.99609375 55.7392578125 360 c 0
 58.11328125 369.791015625 67.7392578125 399.82421875 67.7392578125 408 c 2
 67.7392578125 429 l 2
 67.7392578125 439.775390625 114.578125 452.551757812 121.739257812 456 c 1
 130.739257812 474 l 1
144.403320312 456.607421875 m 1
 136.573242188 440.9453125 l 1
 123.643554688 434.71875 104.639648438 430.205078125 87.7412109375 421.438476562 c 1
 87.7412109375 408 l 2
 87.7412109375 391.672851562 77.3662109375 364.313476562 75.177734375 355.287109375 c 0
 64.5595703125 311.484375 81.396484375 296.497070312 110.5703125 289.55859375 c 0
 127.958007812 285.422851562 149.890625 285.619140625 172.364257812 289.713867188 c 0
 382.616210938 323.438476562 543.71484375 200 733.740234375 200 c 0
 872.948242188 200 973.53515625 338 1123.73925781 338 c 2
 1162.73925781 338 l 2
 1197.47558594 338 1259.73925781 356.392578125 1259.73925781 372 c 0
 1259.73925781 492.166992188 777.278320312 541 658.739257812 541 c 0
 496.641601562 541 339.26953125 476.618164062 166.262695312 475.022460938 c 0
 162.071289062 471.400390625 154.999023438 463.139648438 144.403320312 456.607421875 c 1
EndSplineSet
EndChar

StartChar: bracketright
Encoding: 93 93 62
Width: 1066
Flags: MW
HStem: 180 20<879.248 942.909> 192 20<636.891 685.3> 451 20<207.891 279.891 279.891 279.892 201.482 279.891>
VStem: 994.891 20<199.905 293.086>
LayerCount: 2
Fore
SplineSet
207.890625 471 m 1x70
 279.890625 471 l 2
 308.688476562 471 334.3046875 477 363.890625 477 c 0
 465.916015625 477 1014.890625 364.171875 1014.890625 222 c 0
 1014.890625 177.810546875 957.926757812 180 927.890625 180 c 0xb0
 829.1953125 180 733.709960938 192 636.890625 192 c 0
 549.197265625 189.00390625 470.690429688 141.4140625 381.890625 153 c 1
 141.056640625 94.3935546875 20.2177734375 358.842773438 57.890625 558 c 0
 61.6708984375 577.985351562 43.2392578125 624 72.890625 624 c 0
 107.548828125 624 126.341796875 587.215820312 150.890625 570 c 1
 165.890625 501 l 1
 207.890625 471 l 1x70
380.783203125 173.314453125 m 1
 464.008789062 162.456054688 538.633789062 208.654296875 636.55078125 212 c 0x70
 735.83203125 212 830.604492188 200 927.891601562 200 c 0
 966.65625 200 994.891601562 202.53125 994.891601562 222 c 0
 994.891601562 334.44140625 472.040039062 457 363.891601562 457 c 0
 337.146484375 457 311.608398438 451 279.891601562 451 c 2
 201.482421875 451 l 1
 147.987304688 489.2109375 l 1
 132.901367188 558.60546875 l 1
 107.09765625 580.2734375 92.982421875 602.033203125 75.736328125 603.856445312 c 1
 75.162109375 594.801757812 81.240234375 573.833984375 77.5419921875 554.283203125 c 0
 47.1865234375 393.80859375 125.498046875 196.463867188 276.36328125 168.284179688 c 0
 307.473632812 162.47265625 343.40625 164.21875 380.783203125 173.314453125 c 1
EndSplineSet
EndChar

StartChar: asciicircum
Encoding: 94 94 63
Width: 1121
Flags: MW
HStem: 126 20<708.124 809.381> 348 20<550.911 580> 541 20<285.62 372.315 275.187 372.917> 556 20<706.318 826.42> 700 20<116.542 147.273>
VStem: 46 20 1055 20<176.277 298.527>
LayerCount: 2
Fore
SplineSet
229 564 m 2xde
 231.836914062 548.423828125 261.373046875 561 289 561 c 0xee
 455.629882812 561 621.446289062 576 790 576 c 0
 880.072265625 576 1075 351.0546875 1075 246 c 0
 1075 106.5546875 855.76171875 126 763 126 c 0
 637.370117188 126 595.000976562 348 565 348 c 0
 536.822265625 348 262 303.901367188 262 258 c 2
 262 234 l 2
 262 340.326171875 46 542.16015625 46 669 c 0
 46 703.0078125 100.083984375 720 133 720 c 0
 161.545898438 720 171.068359375 693.612304688 193 678 c 1
 229 564 l 2xde
209.635742188 558.903320312 m 2
 175.809570312 666.017578125 l 1
 150.19140625 687.631835938 146.96875 700.000976562 132.999023438 700.000976562 c 0
 99.455078125 700.000976562 65.9990234375 680.548828125 65.9990234375 669.000976562 c 0
 65.9990234375 574.418945312 217.15625 414.891601562 267.536132812 294.940429688 c 1
 335.189453125 337.502929688 535.22265625 368 564.999023438 368 c 0
 632.010742188 368 653.248046875 146 762.999023438 146 c 0
 867.999023438 146 1054.99902344 133.744140625 1054.99902344 246 c 0
 1054.99902344 339.532226562 862.841796875 556 789.999023438 556 c 0xde
 622.63671875 556 456.833984375 541 288.999023438 541 c 0
 282.240234375 541 219.776367188 517.357421875 209.635742188 558.903320312 c 2
EndSplineSet
EndChar

StartChar: underscore
Encoding: 95 95 64
Width: 815
Flags: MW
HStem: 150 20<567.514 652.311 562.157 656.736> 700 20<534.107 621.071>
VStem: 164.669 20<251.319 317.917 251.319 321.23> 176.669 20<360.1 405.024> 669.669 20<339.107 387.572 339.107 396.556> 726.669 20<241.529 290.278> 744.669 20<478.212 530.083>
LayerCount: 2
Fore
SplineSet
158.668945312 615 m 2xd8
 203.668945312 621 l 2
 231.9765625 621 253.833007812 625.866210938 281.668945312 636 c 0
 372.515625 669.073242188 474.545898438 720 593.668945312 720 c 0
 648.47265625 720 645.810546875 693.907226562 683.668945312 663 c 0
 732.517578125 623.12109375 764.668945312 568.756835938 764.668945312 498 c 0xda
 764.668945312 439.626953125 689.668945312 418.14453125 689.668945312 357 c 0
 689.668945312 321.21484375 746.668945312 322.275390625 746.668945312 279 c 0
 746.668945312 193.993164062 701.802734375 150 611.668945312 150 c 0
 523.359375 150 164.668945312 164.346679688 164.668945312 309 c 0xec
 164.668945312 333.4609375 176.668945312 351.200195312 176.668945312 369 c 0
 176.668945312 441.047851562 60.8623046875 458.481445312 50.6689453125 531 c 0
 44.521484375 574.740234375 124 610.376953125 158.668945312 615 c 2xd8
161.3125 595.17578125 m 2
 125.798828125 590.440429688 67.6455078125 553.916015625 70.474609375 533.784179688 c 0
 77.4248046875 484.3359375 196.668945312 460.016601562 196.668945312 369 c 0xda
 196.668945312 342.055664062 184.668945312 326.834960938 184.668945312 309 c 0
 184.668945312 193.638671875 512.64453125 170 611.668945312 170 c 0
 692.952148438 170 726.668945312 204.05859375 726.668945312 279 c 0xec
 726.668945312 301.556640625 669.668945312 296.42578125 669.668945312 357 c 0
 669.668945312 436.111328125 744.668945312 458.42578125 744.668945312 497.999023438 c 0
 744.668945312 562.16796875 716.22265625 610.604492188 671.021484375 647.505859375 c 0
 624.016601562 685.879882812 639.314453125 699.999023438 593.668945312 699.999023438 c 0
 480.1953125 699.999023438 381.163085938 650.936523438 288.510742188 617.206054688 c 0
 259.57421875 606.671875 236.908203125 601.279296875 205.008789062 601.001953125 c 2
 161.3125 595.17578125 l 2
EndSplineSet
EndChar

StartChar: grave
Encoding: 96 96 65
Width: 1298
Flags: MW
HStem: 132 21G<628.939 671.124 1168.47 1188.68> 159 20 186 20 228 20 297 20 333 20 345 20 379 20<47.7002 272.7 272.7 280.509> 388 20<326.7 344.7 344.7 344.7> 445 20<1136.64 1155.71> 525 20<225.061 368.7 260.7 368.7 368.7 371.42 260.7 380.7> 586.003 20
VStem: 413.7 20 777.7 20<425.492 449.879 425.492 460.755> 957.7 20<544.583 549.921 544.583 557.076> 1230.3 17.403
LayerCount: 2
Fore
SplineSet
194.700195312 579 m 2x38ff
 231.700195312 592 377.3359375 607.064453125 440.700195312 606 c 0
 572.4375 603.786132812 700.705078125 583.629882812 839.700195312 591 c 0
 867.88671875 592.494140625 1052.70019531 592.604492188 1052.70019531 582 c 0
 1052.70019531 570.40625 977.700195312 553.842773438 977.700195312 546 c 0
 977.700195312 543.166015625 1043.70019531 545.537109375 1043.70019531 528 c 0
 1043.70019531 517.942382812 1040.70019531 506.571289062 1040.70019531 495 c 0
 1040.70019531 460.946289062 797.700195312 470.7578125 797.700195312 429 c 0
 797.700195312 421.983398438 845.700195312 423 845.700195312 423 c 1
 845.700195312 423 1022.70019531 399.098632812 1022.70019531 399 c 0
 991.424804688 388.474609375 1013.12304688 366.260742188 1037.70019531 375 c 0
 1100.0234375 397.162109375 1160.70019531 290 1130.70019531 348 c 0
 1074.98828125 455.708984375 1118 549 1133.70019531 549 c 0
 1142.04980469 549 1127.57128906 465 1145.70019531 465 c 0
 1165.72265625 465 1150.74609375 498 1160.70019531 498 c 1
 1236.64355469 340.37109375 1247.26074219 364.717773438 1247.70019531 219 c 0
 1247.72558594 210.442382812 1256.48535156 150 1241.70019531 150 c 0
 1240.4921875 150 1232.39746094 159 1223.70019531 159 c 0x797f
 1205.13085938 159 1195.65625 132 1181.70019531 132 c 0
 1155.23925781 132 1160.67675781 180 1139.70019531 180 c 0
 1106.71875 180 1096.41015625 123 1082.70019531 123 c 0
 1047.15332031 123 1037.19726562 186 989.700195312 186 c 0
 963.057617188 186 939.7578125 162 920.700195312 162 c 0
 883.5390625 162 881.356445312 345 854.700195312 345 c 0xba7f
 788.663085938 345 789.372070312 162 749.700195312 162 c 0
 714.818359375 162 740.096679688 228 707.700195312 228 c 0
 680.192382812 228 682.546875 132 659.700195312 132 c 0
 598.177734375 132 576.546875 531 536.700195312 531 c 0
 492.272460938 531 480.640625 183 443.700195312 183 c 0
 419.373046875 183 391.23046875 333 356.700195312 333 c 0
 317.895507812 333 341.787109375 297 290.700195312 297 c 0
 270.220703125 297 47.7001953125 369.779296875 47.7001953125 399 c 1
 272.700195312 399 l 2xbd7f
 288.317382812 399 313.083007812 408 326.700195312 408 c 2
 344.700195312 408 l 1
 344.700195312 408 413.700195312 413.58203125 413.700195312 423 c 1
 413.700195312 423 170.700195312 452.489257812 170.700195312 486 c 0
 170.700195312 512.028320312 380.700195312 516.849609375 380.700195312 525 c 1
 380.700195312 524.799804688 378.400390625 525 368.700195312 525 c 2
 260.700195312 525 l 2
 189.421875 525 168.385742188 550.4375 119.700195312 564 c 1
 182.700195312 576 l 1
 194.700195312 579 l 2x38ff
379.470703125 544.911132812 m 2
 379.470703125 544.911132812 399.701171875 525.0078125 400.701171875 524.997070312 c 0
 400.701171875 488.314453125 337.391601562 497.989257812 319.071289062 496.297851562 c 0
 282.4375 492.915039062 239.387695312 488.87890625 209.700195312 482.791015625 c 1
 270.094726562 461.442382812 416.116210938 442.850585938 416.116210938 442.850585938 c 1
 433.701171875 440.711914062 l 1
 433.701171875 422.997070312 l 2
 433.701171875 382.9453125 346.33203125 388.063476562 346.33203125 388.063476562 c 1
 345.517578125 387.997070312 l 1
 326.700195312 387.997070312 l 2x7aff
 319.654296875 387.997070312 294.177734375 378.997070312 272.700195312 378.997070312 c 2
 111.709960938 378.997070312 l 1
 172.749023438 351.362304688 277.352539062 318.642578125 291.145507812 316.9921875 c 0
 322.721679688 317.515625 293.224609375 352.997070312 356.69921875 352.997070312 c 0x3d7f
 407.189453125 352.997070312 427.328125 248.875976562 441.896484375 216.893554688 c 1
 460.303710938 279.283203125 469.985351562 550.997070312 536.700195312 550.997070312 c 0
 598.595703125 550.997070312 623.553710938 211.299804688 655.899414062 158.834960938 c 1
 660.125 172.522460938 662.6328125 247.998046875 707.700195312 247.998046875 c 0
 751.95703125 247.998046875 748.248046875 191.159179688 749.462890625 185.756835938 c 1
 763.137695312 210.202148438 777.126953125 364.998046875 854.700195312 364.998046875 c 0x3a7f
 903.612304688 364.998046875 913.474609375 198.719726562 923.7890625 182.6015625 c 1
 933.241210938 185.622070312 958.068359375 205.998046875 989.700195312 205.998046875 c 0
 1042.36816406 205.998046875 1067.20019531 150.953125 1077.17285156 144.743164062 c 1
 1083.74707031 155.97265625 1099.41796875 199.998046875 1139.70019531 199.998046875 c 0
 1174.39648438 199.998046875 1180.12988281 156.104492188 1181.32421875 153.921875 c 1
 1185.20410156 157.780273438 1198.79296875 178.998046875 1223.70117188 178.998046875 c 0
 1226.17871094 178.998046875 1227.17773438 178.913085938 1230.29785156 178.345703125 c 1
 1230.11328125 193.571289062 1227.72460938 211.048828125 1227.70117188 218.938476562 c 0
 1227.3046875 350.321289062 1222.55175781 330.83203125 1162.36425781 449.484375 c 1
 1159.65820312 447.930664062 1151.23535156 444.998046875 1145.70019531 444.998046875 c 0
 1135.08007812 444.998046875 1128.109375 450.661132812 1123.0234375 458.50390625 c 1
 1122.93359375 430.359375 1129.13867188 394.547851562 1148.46386719 357.186523438 c 1
 1148.46386719 357.186523438 1180.88085938 320.49609375 1143.20703125 311.159179688 c 0
 1102.1484375 300.983398438 1085.03808594 370.60546875 1044.40039062 356.154296875 c 0
 1023.60839844 348.760742188 989.471679688 353.440429688 987.221679688 383.668945312 c 1
 942.276367188 389.771484375 857.041015625 401.286132812 844.513671875 402.978515625 c 2
 844.513671875 402.978515625 777.700195312 388.091796875 777.700195312 429 c 0
 777.700195312 492.509765625 994.751953125 490.842773438 1020.9453125 501.844726562 c 1
 1021.4609375 508.465820312 1022.45800781 515.004882812 1023.08496094 520.090820312 c 1
 1023.08496094 520.090820312 957.700195312 511.026367188 957.700195312 546 c 0
 957.700195312 568.151367188 976.3359375 569.4609375 978.525390625 570.427734375 c 1
 925.735351562 572.1796875 855.186523438 571.791992188 840.7578125 571.02734375 c 0
 699.154296875 563.518554688 570.215820312 583.819335938 440.36328125 586.001953125 c 0
 379.577148438 587.0234375 231.615234375 570.771484375 200.452148438 559.822265625 c 2
 190.685546875 557.380859375 l 1
 208.235351562 550.572265625 228.220703125 545 260.700195312 545 c 2
 368.700195312 545 l 2
 374.140625 545 375.869140625 544.961914062 379.470703125 544.911132812 c 2
EndSplineSet
EndChar

StartChar: a
Encoding: 97 97 66
Width: 981
Flags: MW
HStem: 24 20<718 718> 53 20 149 20 528 20<233.194 265.251> 621 20<248.52 255 255 389.781>
VStem: 144 20<161.15 199.478 157.402 210.372> 225 20<314.565 410.382> 877 20<143.324 319.303>
LayerCount: 2
Fore
SplineSet
198 641 m 0
 198 663 233.168945312 641 255 641 c 0
 527.649414062 641 897 487.130859375 897 170 c 0
 897 100.586914062 796.072265625 24 718 24 c 0
 643.908203125 26.9716796875 670.180664062 90.6513671875 594 80 c 0
 537.112304688 72.0458984375 516.069335938 149 458 149 c 0
 387.541015625 149 283.73828125 53 210 53 c 0
 145.091796875 53 144 134.299804688 144 188 c 0
 144 232.744140625 225 273.129882812 225 356 c 0
 225 464.763671875 84 491.004882812 84 599 c 0
 87.66796875 615.467773438 119.079101562 601.294921875 132 602 c 0
 180.920898438 604.669921875 211.387695312 548 255 548 c 0
 275.502929688 548 198 598 198 641 c 0
221.788085938 627.595703125 m 1
 221.788085938 627.595703125 310.313476562 527.998046875 255.000976562 527.998046875 c 0
 193.529296875 527.998046875 166.75 583.865234375 133.090820312 582.028320312 c 0
 121.34375 581.387695312 113.262695312 584.583984375 104.834960938 586.107421875 c 1
 115.365234375 511.58203125 245 475.219726562 245 355.999023438 c 0
 245 261.01953125 164 210.95703125 164 187.999023438 c 0
 164 126.805664062 169.145507812 72.9990234375 210 72.9990234375 c 0
 270.540039062 72.9990234375 373.779296875 168.999023438 458 168.999023438 c 0
 538.006835938 168.999023438 552.111328125 94.3369140625 591.23046875 99.806640625 c 0
 682.271484375 112.536132812 669.60546875 46.513671875 718.354492188 44 c 0
 787.546875 44.48828125 877 116.647460938 877 170 c 0
 877 468.606445312 524.5625 621 255 621 c 0
 242.0390625 621 231.284179688 624.853515625 221.788085938 627.595703125 c 1
EndSplineSet
EndChar

StartChar: b
Encoding: 98 98 67
Width: 886
Flags: MW
HStem: 56 21G<734.588 766.096> 83 19.4035 194 20 396 20<490.249 526.922> 593 20 605 20 651 20<264.557 305.334> 686 20<199.245 253.952> 704 20 741 20<425.206 488.321> 762 20<669.347 730.586>
VStem: 153.5 20 213.5 20 283.5 20<580.692 601.214> 408.5 20 555.5 20 640.5 20<310.438 397.566 310.438 403.46> 745.5 20<191.333 227.305> 772.5 20<665.315 745.067>
LayerCount: 2
Fore
SplineSet
399.5 608 m 0xf37fe0
 399.286132812 596.688476562 386.190429688 593 375.5 593 c 0xfb7fe0
 362.198242188 593 358.604492188 605 345.5 605 c 0
 336.286132812 605 303.5 603.427734375 303.5 599 c 0
 303.5 562.384765625 472.997070312 416 507.5 416 c 0
 546.344726562 416 555.5 471.860351562 555.5 497 c 0
 555.5 588.694335938 538.0234375 704 429.5 704 c 0xf6ffe0
 355.567382812 704 288.403320312 686 219.5 686 c 0
 178.990234375 686 93.5 678.89453125 93.5 731 c 0
 93.5 772.828125 408.911132812 761 441.5 761 c 0
 535.142578125 761 624.194335938 782 714.5 782 c 0
 746.671875 782 792.5 775.426757812 792.5 737 c 0
 792.5 581.415039062 660.5 478.131835938 660.5 317 c 0
 660.5 303.875 765.5 267.405273438 765.5 200 c 0
 765.5 181.202148438 781.692382812 56 750.5 56 c 0
 718.67578125 56 647.171875 194 600.5 194 c 0
 521.471679688 194 459.958007812 83 354.5 83 c 0
 303.719726562 83 153.5 71.5458984375 153.5 149 c 0
 153.5 309.999023438 408.5 227.4921875 408.5 335 c 0
 408.5 422.918945312 213.5 433.903320312 213.5 569 c 0
 213.5 618.305664062 234.614257812 671 294.5 671 c 0
 316.16796875 671 400.5 661 399.5 608 c 0xf37fe0
219.5 706 m 0
 292.40625 706 354.264648438 723.99609375 429.498046875 723.99609375 c 0
 559.004882812 723.99609375 575.498046875 586.008789062 575.498046875 496.99609375 c 0
 575.498046875 475.376953125 569.439453125 395.99609375 507.498046875 395.99609375 c 0
 459.048828125 395.99609375 283.498046875 543.603515625 283.498046875 598.99609375 c 0
 283.498046875 637.873046875 345.498046875 624.99609375 345.498046875 624.99609375 c 1xf6ffe0
 366.008789062 624.99609375 375.498046875 612.99609375 375.498046875 612.99609375 c 2
 376.737304688 612.99609375 377.825195312 613.064453125 379.155273438 613.254882812 c 1
 374.904296875 637.213867188 317.883789062 650.99609375 294.499023438 650.99609375 c 0
 251.083007812 650.99609375 233.499023438 614.8046875 233.499023438 568.99609375 c 0
 233.499023438 453.399414062 428.499023438 451.215820312 428.499023438 334.997070312 c 0
 428.499023438 194.422851562 173.499023438 285.856445312 173.499023438 148.998046875 c 0
 173.499023438 114.286132812 236.173828125 102.341796875 307.899414062 102.401367188 c 0
 326.200195312 102.416992188 342.4453125 102.998046875 354.499023438 102.998046875 c 0
 446.123046875 102.998046875 503.298828125 213.998046875 600.499023438 213.998046875 c 0
 659.1875 213.998046875 718.559570312 103.411132812 746.392578125 79.8525390625 c 1
 753.3203125 108.17578125 745.5 182.668945312 745.5 199.998046875 c 0
 745.5 254.611328125 640.5 268.275390625 640.5 316.998046875 c 0
 640.5 489.921875 772.5 593.631835938 772.5 736.999023438 c 0
 772.5 753.135742188 750.125976562 761.999023438 714.5 761.999023438 c 0
 627.321289062 761.999023438 538.157226562 740.999023438 441.5 740.999023438 c 0
 412.346679688 740.999023438 163.139648438 747.329101562 114.169921875 725.556640625 c 1
 119.2265625 707.716796875 172.217773438 706 219.5 706 c 0
EndSplineSet
EndChar

